%TF.GenerationSoftware,KiCad,Pcbnew,8.0.4+dfsg-1*%
%TF.CreationDate,2024-09-09T10:41:01+02:00*%
%TF.ProjectId,hw_lower_v2,68775f6c-6f77-4657-925f-76322e6b6963,rev?*%
%TF.SameCoordinates,Original*%
%TF.FileFunction,Copper,L2,Inr*%
%TF.FilePolarity,Positive*%
%FSLAX46Y46*%
G04 Gerber Fmt 4.6, Leading zero omitted, Abs format (unit mm)*
G04 Created by KiCad (PCBNEW 8.0.4+dfsg-1) date 2024-09-09 10:41:01*
%MOMM*%
%LPD*%
G01*
G04 APERTURE LIST*
%TA.AperFunction,ComponentPad*%
%ADD10C,6.400000*%
%TD*%
%TA.AperFunction,ComponentPad*%
%ADD11C,2.900000*%
%TD*%
%TA.AperFunction,ComponentPad*%
%ADD12R,2.000000X1.700000*%
%TD*%
%TA.AperFunction,ComponentPad*%
%ADD13O,2.000000X1.700000*%
%TD*%
%TA.AperFunction,ComponentPad*%
%ADD14C,1.800000*%
%TD*%
%TA.AperFunction,ComponentPad*%
%ADD15C,1.200000*%
%TD*%
%TA.AperFunction,ComponentPad*%
%ADD16C,5.000000*%
%TD*%
%TA.AperFunction,ComponentPad*%
%ADD17C,1.600000*%
%TD*%
%TA.AperFunction,ComponentPad*%
%ADD18C,1.524000*%
%TD*%
%TA.AperFunction,ComponentPad*%
%ADD19R,1.700000X1.700000*%
%TD*%
%TA.AperFunction,ComponentPad*%
%ADD20O,1.700000X1.700000*%
%TD*%
%TA.AperFunction,ComponentPad*%
%ADD21C,3.000000*%
%TD*%
%TA.AperFunction,ComponentPad*%
%ADD22C,3.500000*%
%TD*%
%TA.AperFunction,ComponentPad*%
%ADD23O,5.200000X2.000000*%
%TD*%
%TA.AperFunction,ViaPad*%
%ADD24C,0.600000*%
%TD*%
G04 APERTURE END LIST*
D10*
%TO.N,N/C*%
%TO.C,H5*%
X197980000Y-200770000D03*
%TD*%
D11*
%TO.N,/AC/L_out*%
%TO.C,J6*%
X113999873Y-102650000D03*
X113999873Y-109850000D03*
X118999873Y-102650000D03*
X118999873Y-109850000D03*
%TD*%
D12*
%TO.N,Net-(PS1-AC{slash}L)*%
%TO.C,PS1*%
X147000000Y-117400000D03*
D13*
%TO.N,/AC/N_internal_power*%
X141000000Y-117400000D03*
%TO.N,GND*%
X153000000Y-151000000D03*
%TO.N,Net-(JP1-B)*%
X135000000Y-151000000D03*
%TD*%
D14*
%TO.N,Net-(PS1-AC{slash}L)*%
%TO.C,C12*%
X142800000Y-110150000D03*
%TO.N,/AC/N_internal_power*%
X132800000Y-110150000D03*
%TD*%
D15*
%TO.N,Net-(U1-CT_S1)*%
%TO.C,U1*%
X183500000Y-150000000D03*
%TO.N,+5V*%
X185500000Y-150000000D03*
%TO.N,Net-(U1-Fault)*%
X187500000Y-150000000D03*
%TO.N,GND*%
X189500000Y-150000000D03*
%TO.N,Net-(Q2-D)*%
X191500000Y-150000000D03*
%TO.N,Net-(Q3-D)*%
X193500000Y-150000000D03*
%TO.N,Net-(U1-CT_S2)*%
X195500000Y-150000000D03*
D16*
%TO.N,/AC/N_in*%
X187880000Y-126150000D03*
%TO.N,/AC/N_internal_power*%
X171230000Y-120650000D03*
%TO.N,/AC/L_in*%
X187880000Y-134850000D03*
%TO.N,/AC/L_internal_power*%
X170730000Y-131650000D03*
%TD*%
D11*
%TO.N,Earth_Protective*%
%TO.C,J3*%
X165749873Y-102900000D03*
X165749873Y-110100000D03*
X170749873Y-102900000D03*
X170749873Y-110100000D03*
%TD*%
D17*
%TO.N,Net-(PS1-AC{slash}L)*%
%TO.C,RV1*%
X141500000Y-106150102D03*
%TO.N,/AC/N_internal_power*%
X133999872Y-102549898D03*
%TD*%
D10*
%TO.N,N/C*%
%TO.C,H3*%
X197980000Y-160130000D03*
%TD*%
D11*
%TO.N,/AC/N_out*%
%TO.C,J5*%
X107250127Y-116600000D03*
X107250127Y-109400000D03*
X102250127Y-116600000D03*
X102250127Y-109400000D03*
%TD*%
%TO.N,/AC/L_in*%
%TO.C,J1*%
X199000127Y-116850000D03*
X199000127Y-109650000D03*
X194000127Y-116850000D03*
X194000127Y-109650000D03*
%TD*%
%TO.N,/AC/N_in*%
%TO.C,J2*%
X185250127Y-109850000D03*
X185250127Y-102650000D03*
X180250127Y-109850000D03*
X180250127Y-102650000D03*
%TD*%
D18*
%TO.N,Net-(T1-AA)*%
%TO.C,T1*%
X172250000Y-140000000D03*
%TO.N,Net-(T1-AB)*%
X159750000Y-140000000D03*
%TO.N,Net-(T1-SA)*%
X172250000Y-150000000D03*
%TO.N,GND*%
X159750000Y-150000000D03*
%TD*%
D19*
%TO.N,/EVSE control and status/LOCK_SENSE*%
%TO.C,J7*%
X114605000Y-183830000D03*
D20*
%TO.N,GND*%
X114605000Y-181290000D03*
%TO.N,/EVSE control and status/LOCK_A_OUT*%
X114605000Y-178750000D03*
%TO.N,/EVSE control and status/LOCK_B_OUT*%
X114605000Y-176210000D03*
%TO.N,/EVSE control and status/CONTROL_PILOT_OUT*%
X114605000Y-173670000D03*
%TO.N,/EVSE control and status/PROXIMITY_PILOT*%
X114605000Y-171130000D03*
%TD*%
D11*
%TO.N,Earth_Protective*%
%TO.C,J4*%
X156749873Y-102900000D03*
X156749873Y-110100000D03*
X161749873Y-102900000D03*
X161749873Y-110100000D03*
%TD*%
D21*
%TO.N,+12V*%
%TO.C,K1*%
X119300000Y-152500000D03*
%TO.N,Net-(D1-A)*%
X111700000Y-152500000D03*
D22*
%TO.N,/AC/AC_RELAY_SENSE*%
X126950000Y-152500000D03*
%TO.N,GND*%
X104150000Y-152500000D03*
D23*
%TO.N,/AC/L_internal_power*%
X125000000Y-131200000D03*
%TO.N,/AC/L_out*%
X106000000Y-131200000D03*
%TO.N,/AC/N_internal_power*%
X125000000Y-120200000D03*
%TO.N,/AC/N_out*%
X106000000Y-120200000D03*
%TD*%
D19*
%TO.N,GND*%
%TO.C,J14*%
X102480000Y-191250000D03*
D20*
X105020000Y-191250000D03*
%TD*%
D10*
%TO.N,N/C*%
%TO.C,H6*%
X104000000Y-200770000D03*
%TD*%
D19*
%TO.N,+3.3V*%
%TO.C,J8*%
X164960000Y-198230000D03*
D20*
%TO.N,GND*%
X164960000Y-200770000D03*
%TO.N,+3.3V*%
X162420000Y-198230000D03*
%TO.N,GND*%
X162420000Y-200770000D03*
%TO.N,+3.3V*%
X159880000Y-198230000D03*
%TO.N,GND*%
X159880000Y-200770000D03*
%TO.N,/AC/GFCI_TEST*%
X157340000Y-198230000D03*
%TO.N,GND*%
X157340000Y-200770000D03*
%TO.N,/AC/GFCI_CALIBRATE*%
X154800000Y-198230000D03*
%TO.N,GND*%
X154800000Y-200770000D03*
%TO.N,/AC/GFCI_FAULT*%
X152260000Y-198230000D03*
%TO.N,GND*%
X152260000Y-200770000D03*
%TO.N,/AC/POWER_MEASUREMENT_TX*%
X149720000Y-198230000D03*
%TO.N,GND*%
X149720000Y-200770000D03*
%TO.N,/AC/POWER_MEASUREMENT_RX*%
X147180000Y-198230000D03*
%TO.N,GND*%
X147180000Y-200770000D03*
%TO.N,/AC/POWER_MEASUREMENT_CLK*%
X144640000Y-198230000D03*
%TO.N,GND*%
X144640000Y-200770000D03*
%TO.N,/AC/POWER_MEASUREMENT_INFO*%
X142100000Y-198230000D03*
%TO.N,GND*%
X142100000Y-200770000D03*
%TO.N,+12V*%
X139560000Y-198230000D03*
%TO.N,GND*%
X139560000Y-200770000D03*
%TO.N,+12V*%
X137020000Y-198230000D03*
%TO.N,GND*%
X137020000Y-200770000D03*
%TO.N,/AC/AC_RELAY_SENSE*%
X134480000Y-198230000D03*
%TO.N,GND*%
X134480000Y-200770000D03*
%TO.N,/AC/AC_RELAY_PWM*%
X131940000Y-198230000D03*
%TO.N,GND*%
X131940000Y-200770000D03*
%TO.N,/EVSE control and status/CONTROL_PILOT_PWM*%
X129400000Y-198230000D03*
%TO.N,GND*%
X129400000Y-200770000D03*
%TO.N,/EVSE control and status/CONTROL_PILOT_SENSE*%
X126860000Y-198230000D03*
%TO.N,GND*%
X126860000Y-200770000D03*
%TO.N,/EVSE control and status/PROXIMITY_PILOT*%
X124320000Y-198230000D03*
%TO.N,GND*%
X124320000Y-200770000D03*
%TO.N,/EVSE control and status/LOCK_B*%
X121780000Y-198230000D03*
%TO.N,/BV0*%
X121780000Y-200770000D03*
%TO.N,/EVSE control and status/LOCK_A*%
X119240000Y-198230000D03*
%TO.N,/BV1*%
X119240000Y-200770000D03*
%TO.N,/EVSE control and status/LOCK_SENSE*%
X116700000Y-198230000D03*
%TO.N,/BV2*%
X116700000Y-200770000D03*
%TD*%
D10*
%TO.N,N/C*%
%TO.C,H4*%
X104000000Y-160130000D03*
%TD*%
D24*
%TO.N,GND*%
X140080000Y-158700000D03*
X140380000Y-162900000D03*
X125180000Y-163900000D03*
X171380000Y-186100000D03*
X183180000Y-186900000D03*
X162180000Y-155700000D03*
X131780000Y-161600000D03*
X127880000Y-163200000D03*
X111380000Y-189500000D03*
X132752359Y-175440633D03*
X156380000Y-162500000D03*
X121980000Y-181700000D03*
X148180000Y-196100000D03*
X113980000Y-159700000D03*
X178980000Y-161900000D03*
X145180000Y-156100000D03*
X177780000Y-155700000D03*
X190180000Y-152300000D03*
X192580000Y-170100000D03*
X131280000Y-155900000D03*
X134180000Y-165100000D03*
X166180000Y-156900000D03*
X126280000Y-175600000D03*
X138480000Y-159000000D03*
X131180000Y-157500000D03*
X130280000Y-164600000D03*
X192380000Y-154900000D03*
X123380000Y-154100000D03*
X135580000Y-177500000D03*
X122380000Y-191300000D03*
X162180000Y-195500000D03*
X136580000Y-165900000D03*
X106980000Y-153900000D03*
X165380000Y-173100000D03*
X129580000Y-193900000D03*
X123180000Y-158500000D03*
X108580000Y-188700000D03*
X116700000Y-164750000D03*
X150780000Y-152900000D03*
X118780000Y-176300000D03*
X132980000Y-174300000D03*
X146780000Y-157362500D03*
X141880000Y-153600000D03*
X134980000Y-174900000D03*
X165380000Y-185500000D03*
X192380000Y-152100000D03*
X143980000Y-153900000D03*
X179393074Y-199731566D03*
X157469451Y-182343643D03*
X164580000Y-162900000D03*
X116780000Y-183700000D03*
X122380000Y-179300000D03*
X178980000Y-152100000D03*
X171180000Y-156700000D03*
X121180000Y-185700000D03*
X149980000Y-185700000D03*
X133780000Y-167700000D03*
X152140990Y-177699909D03*
X189380000Y-161700000D03*
X121380000Y-173100000D03*
X192180000Y-184300000D03*
X102980000Y-181100000D03*
X134380000Y-179100000D03*
X122780000Y-151300000D03*
X146780000Y-178700000D03*
X155180000Y-173900000D03*
X163980000Y-165900000D03*
X142580000Y-173900000D03*
X153180000Y-196500000D03*
X106980000Y-171900000D03*
X127580000Y-190500000D03*
X134980000Y-170700000D03*
X132780000Y-154100000D03*
X113980000Y-158500000D03*
X175180000Y-164300000D03*
X132380000Y-171300000D03*
X165580000Y-151700000D03*
X115700000Y-165250000D03*
X107780000Y-150900000D03*
X163380000Y-168500000D03*
X188780000Y-153300000D03*
X186180000Y-154500000D03*
X109380000Y-193300000D03*
X122180000Y-174700000D03*
X112780000Y-203200000D03*
X109980000Y-180300000D03*
X156380000Y-195500000D03*
X102780000Y-187100000D03*
X179980000Y-171500000D03*
X172980000Y-159300000D03*
X138780000Y-181100000D03*
X129780000Y-177700000D03*
X184980000Y-178700000D03*
X111580000Y-203500000D03*
X184380000Y-166900000D03*
X134380000Y-180900000D03*
X106180000Y-166500000D03*
X162980000Y-189900000D03*
X153780000Y-195400000D03*
X115380000Y-154100000D03*
X106780000Y-176900000D03*
X121180000Y-163900000D03*
X136980000Y-162900000D03*
X165780000Y-158100000D03*
X196380000Y-190700000D03*
X188580000Y-172500000D03*
X165380000Y-160100000D03*
X134180000Y-163900000D03*
X152980000Y-167300000D03*
X162380000Y-177100000D03*
X108580000Y-186500000D03*
X176580000Y-150700000D03*
X160780000Y-152700000D03*
X146580000Y-155500000D03*
X156780000Y-161100000D03*
X188780000Y-155700000D03*
X145180000Y-189500000D03*
X170780000Y-167300000D03*
X173580000Y-153100000D03*
X120980000Y-169700000D03*
X140780000Y-151300000D03*
X118480000Y-179900000D03*
X111080000Y-185000000D03*
X115700000Y-161250000D03*
X121780000Y-178300000D03*
X121480000Y-159500000D03*
X145380000Y-183100000D03*
X147580000Y-150900000D03*
X116380000Y-149900000D03*
X174780000Y-176100000D03*
%TO.N,+12V*%
X122730000Y-184050000D03*
X140780000Y-184100000D03*
X119230000Y-160750000D03*
X131980000Y-167750000D03*
X120590000Y-183550000D03*
X132180000Y-172800000D03*
X131980000Y-167000000D03*
X139230000Y-171500000D03*
X140230000Y-155750000D03*
X140780000Y-183100000D03*
X139480000Y-155750000D03*
X120980000Y-184100000D03*
X140780000Y-182100000D03*
X139230000Y-170750000D03*
X140980000Y-155750000D03*
X119250000Y-161500000D03*
%TO.N,+3.3V*%
X116730000Y-193250000D03*
X125980000Y-177800000D03*
X156780000Y-193500000D03*
X110480000Y-196945000D03*
X137730000Y-191000000D03*
X167486668Y-166393332D03*
X167486668Y-165700000D03*
X137730000Y-192500000D03*
X112730000Y-196945000D03*
X137730000Y-191750000D03*
X125980000Y-187750000D03*
X123480000Y-194000000D03*
X153280000Y-193500000D03*
X134480000Y-193250000D03*
X157380000Y-163250000D03*
X125980000Y-188640000D03*
X158148332Y-159500000D03*
%TO.N,+5V*%
X151730000Y-159500000D03*
X185030000Y-154500000D03*
X149730000Y-158250000D03*
X150730000Y-159500000D03*
X185030000Y-153500000D03*
X185030000Y-151000000D03*
X192480000Y-158000000D03*
%TO.N,Net-(Q2-D)*%
X191500000Y-155500000D03*
X155204265Y-190124264D03*
%TO.N,/AC/AC_RELAY_PWM*%
X112730000Y-162325000D03*
%TO.N,Net-(U1-CT_S2)*%
X178730000Y-159500000D03*
%TO.N,Net-(U1-Fault)*%
X151730000Y-192750000D03*
X187480000Y-152250000D03*
%TO.N,/EVSE control and status/CONTROL_PILOT_SENSE*%
X125330000Y-175500000D03*
%TO.N,/BV2*%
X109340000Y-199250000D03*
%TO.N,/BV1*%
X111590000Y-199250000D03*
%TO.N,/AC/POWER_MEASUREMENT_CLK*%
X163480000Y-161000000D03*
%TO.N,/AC/POWER_MEASUREMENT_RX*%
X160449669Y-163969669D03*
%TO.N,/AC/POWER_MEASUREMENT_TX*%
X161973332Y-163506668D03*
%TO.N,/AC/POWER_MEASUREMENT_INFO*%
X164180000Y-159500000D03*
%TO.N,/EVSE control and status/LOCK_B*%
X120580000Y-182000000D03*
%TO.N,/EVSE control and status/LOCK_A*%
X120379993Y-181122502D03*
%TO.N,Net-(Q3-D)*%
X158480000Y-190500000D03*
X193480000Y-155500000D03*
%TO.N,/AC/N_internal_power*%
X144700000Y-121850000D03*
X147900000Y-122550000D03*
X149500000Y-125350000D03*
X148700000Y-121850000D03*
X145500000Y-125350000D03*
X147100000Y-123250000D03*
X145500000Y-123250000D03*
X145500000Y-123950000D03*
X146300000Y-123250000D03*
X144700000Y-125350000D03*
X147900000Y-124650000D03*
X147100000Y-121850000D03*
X145500000Y-122550000D03*
X149500000Y-123950000D03*
X146300000Y-125350000D03*
X148700000Y-123950000D03*
X148700000Y-125350000D03*
X144700000Y-123950000D03*
X149500000Y-122550000D03*
X144700000Y-124650000D03*
X145500000Y-121850000D03*
X149500000Y-123250000D03*
X146300000Y-123950000D03*
X147100000Y-125350000D03*
X147900000Y-121850000D03*
X149500000Y-124650000D03*
X148700000Y-123250000D03*
X148700000Y-122550000D03*
X147900000Y-123250000D03*
X144700000Y-123250000D03*
X145500000Y-124650000D03*
X144700000Y-122550000D03*
X147900000Y-123950000D03*
X147100000Y-124650000D03*
X149500000Y-121850000D03*
X147100000Y-122550000D03*
X146300000Y-122550000D03*
X146300000Y-124650000D03*
X147100000Y-123950000D03*
X146300000Y-121850000D03*
X147900000Y-125350000D03*
X148700000Y-124650000D03*
%TO.N,/AC/L_internal_power*%
X151300000Y-134850000D03*
X153700000Y-132750000D03*
X151300000Y-129950000D03*
X153700000Y-135550000D03*
X153700000Y-131350000D03*
X149700000Y-134150000D03*
X152100000Y-134850000D03*
X153700000Y-130650000D03*
X152100000Y-129950000D03*
X154500000Y-135550000D03*
X150500000Y-132050000D03*
X152100000Y-132750000D03*
X154500000Y-132050000D03*
X151300000Y-132050000D03*
X149700000Y-132050000D03*
X154500000Y-130650000D03*
X150500000Y-132750000D03*
X152900000Y-130650000D03*
X150500000Y-134850000D03*
X154500000Y-133450000D03*
X153700000Y-132050000D03*
X153700000Y-129950000D03*
X149700000Y-132750000D03*
X152100000Y-132050000D03*
X152900000Y-132050000D03*
X149700000Y-129950000D03*
X152900000Y-134150000D03*
X154500000Y-129950000D03*
X154500000Y-131350000D03*
X152100000Y-130650000D03*
X152900000Y-133450000D03*
X150500000Y-135550000D03*
X152900000Y-134850000D03*
X151300000Y-132750000D03*
X151300000Y-131350000D03*
X150500000Y-131350000D03*
X152900000Y-132750000D03*
X150500000Y-129950000D03*
X151300000Y-135550000D03*
X151300000Y-130650000D03*
X151300000Y-133450000D03*
X150500000Y-130650000D03*
X152900000Y-129950000D03*
X150500000Y-134150000D03*
X152900000Y-135550000D03*
X154500000Y-134150000D03*
X149700000Y-130650000D03*
X152100000Y-131350000D03*
X152100000Y-135550000D03*
X151300000Y-134150000D03*
X153700000Y-133450000D03*
X153700000Y-134150000D03*
X150500000Y-133450000D03*
X154500000Y-134850000D03*
X149700000Y-134850000D03*
X149700000Y-133450000D03*
X152100000Y-133450000D03*
X153700000Y-134850000D03*
X149700000Y-131350000D03*
X149700000Y-135550000D03*
X154500000Y-132750000D03*
X152100000Y-134150000D03*
X152900000Y-131350000D03*
%TO.N,/EVSE control and status/CONTROL_PILOT_PWM*%
X129730000Y-175750000D03*
%TD*%
%TA.AperFunction,Conductor*%
%TO.N,/AC/L_out*%
G36*
X120004842Y-101000476D02*
G01*
X120185388Y-101018259D01*
X120204418Y-101022044D01*
X120373360Y-101073292D01*
X120391276Y-101080713D01*
X120546974Y-101163935D01*
X120563101Y-101174711D01*
X120658771Y-101253224D01*
X120699569Y-101286707D01*
X120713292Y-101300430D01*
X120825285Y-101436893D01*
X120836067Y-101453030D01*
X120919283Y-101608716D01*
X120926710Y-101626646D01*
X120977954Y-101795579D01*
X120981740Y-101814613D01*
X120999523Y-101995157D01*
X121000000Y-102004861D01*
X121000000Y-110280699D01*
X120999450Y-110291119D01*
X120978947Y-110484835D01*
X120974585Y-110505213D01*
X120913984Y-110690348D01*
X120910223Y-110700072D01*
X119250000Y-114400000D01*
X119250000Y-114614066D01*
X119250000Y-125744387D01*
X119249377Y-125755476D01*
X119226159Y-125961461D01*
X119221222Y-125983081D01*
X119154585Y-126173444D01*
X119144960Y-126193423D01*
X119034637Y-126368921D01*
X119028208Y-126377977D01*
X112053727Y-135119327D01*
X112046330Y-135127602D01*
X111899808Y-135274061D01*
X111882478Y-135287875D01*
X111711792Y-135395089D01*
X111691822Y-135404704D01*
X111501561Y-135471259D01*
X111479954Y-135476189D01*
X111274098Y-135499378D01*
X111263016Y-135500000D01*
X104254861Y-135500000D01*
X104245157Y-135499523D01*
X104064613Y-135481740D01*
X104045579Y-135477954D01*
X103876646Y-135426710D01*
X103858718Y-135419284D01*
X103703028Y-135336065D01*
X103686895Y-135325286D01*
X103618661Y-135269288D01*
X103550430Y-135213292D01*
X103536707Y-135199569D01*
X103470854Y-135119327D01*
X103424711Y-135063101D01*
X103413935Y-135046974D01*
X103330713Y-134891276D01*
X103323292Y-134873360D01*
X103272044Y-134704418D01*
X103268259Y-134685386D01*
X103250477Y-134504842D01*
X103250000Y-134495138D01*
X103250000Y-126004861D01*
X103250477Y-125995157D01*
X103268259Y-125814613D01*
X103272045Y-125795579D01*
X103287574Y-125744387D01*
X103323293Y-125626635D01*
X103330711Y-125608727D01*
X103413938Y-125453020D01*
X103424707Y-125436902D01*
X103536710Y-125300426D01*
X103550426Y-125286710D01*
X103686902Y-125174707D01*
X103703020Y-125163938D01*
X103858727Y-125080711D01*
X103876635Y-125073293D01*
X104045583Y-125022044D01*
X104064609Y-125018259D01*
X104245157Y-125000476D01*
X104254861Y-125000000D01*
X109737760Y-125000000D01*
X109737766Y-125000000D01*
X110250000Y-125000000D01*
X110549297Y-124584308D01*
X110549301Y-124584305D01*
X111861534Y-122761758D01*
X112050000Y-122500000D01*
X112050000Y-102004861D01*
X112050477Y-101995157D01*
X112068259Y-101814613D01*
X112072045Y-101795579D01*
X112123293Y-101626635D01*
X112130711Y-101608727D01*
X112213938Y-101453020D01*
X112224707Y-101436902D01*
X112336710Y-101300426D01*
X112350426Y-101286710D01*
X112486902Y-101174707D01*
X112503020Y-101163938D01*
X112658727Y-101080711D01*
X112676635Y-101073293D01*
X112845583Y-101022044D01*
X112864609Y-101018259D01*
X113045157Y-101000476D01*
X113054861Y-101000000D01*
X119995139Y-101000000D01*
X120004842Y-101000476D01*
G37*
%TD.AperFunction*%
%TD*%
%TA.AperFunction,Conductor*%
%TO.N,Earth_Protective*%
G36*
X171504842Y-101250476D02*
G01*
X171685388Y-101268259D01*
X171704418Y-101272044D01*
X171873360Y-101323292D01*
X171891276Y-101330713D01*
X172046974Y-101413935D01*
X172063101Y-101424711D01*
X172158771Y-101503224D01*
X172199569Y-101536707D01*
X172213292Y-101550430D01*
X172325285Y-101686893D01*
X172336067Y-101703030D01*
X172419283Y-101858716D01*
X172426710Y-101876646D01*
X172477954Y-102045579D01*
X172481740Y-102064613D01*
X172499523Y-102245157D01*
X172500000Y-102254861D01*
X172500000Y-110745138D01*
X172499523Y-110754842D01*
X172481740Y-110935386D01*
X172477954Y-110954420D01*
X172426710Y-111123353D01*
X172419283Y-111141283D01*
X172336067Y-111296969D01*
X172325285Y-111313106D01*
X172213292Y-111449569D01*
X172199569Y-111463292D01*
X172063106Y-111575285D01*
X172046969Y-111586067D01*
X171891283Y-111669283D01*
X171873353Y-111676710D01*
X171704420Y-111727954D01*
X171685386Y-111731740D01*
X171504843Y-111749523D01*
X171495139Y-111750000D01*
X156004861Y-111750000D01*
X155995157Y-111749523D01*
X155814613Y-111731740D01*
X155795579Y-111727954D01*
X155626646Y-111676710D01*
X155608718Y-111669284D01*
X155453028Y-111586065D01*
X155436895Y-111575286D01*
X155368661Y-111519288D01*
X155300430Y-111463292D01*
X155286707Y-111449569D01*
X155253224Y-111408771D01*
X155174711Y-111313101D01*
X155163935Y-111296974D01*
X155080713Y-111141276D01*
X155073292Y-111123360D01*
X155022044Y-110954418D01*
X155018259Y-110935386D01*
X155000477Y-110754842D01*
X155000000Y-110745138D01*
X155000000Y-102254861D01*
X155000477Y-102245157D01*
X155018259Y-102064613D01*
X155022045Y-102045579D01*
X155073293Y-101876635D01*
X155080711Y-101858727D01*
X155163938Y-101703020D01*
X155174707Y-101686902D01*
X155286710Y-101550426D01*
X155300426Y-101536710D01*
X155436902Y-101424707D01*
X155453020Y-101413938D01*
X155608727Y-101330711D01*
X155626635Y-101323293D01*
X155795583Y-101272044D01*
X155814609Y-101268259D01*
X155995157Y-101250476D01*
X156004861Y-101250000D01*
X171495139Y-101250000D01*
X171504842Y-101250476D01*
G37*
%TD.AperFunction*%
%TD*%
%TA.AperFunction,Conductor*%
%TO.N,/AC/L_in*%
G36*
X200758655Y-108050473D02*
G01*
X200855682Y-108060006D01*
X200938771Y-108068170D01*
X200957761Y-108071938D01*
X201126320Y-108122938D01*
X201144213Y-108130330D01*
X201299620Y-108213156D01*
X201315728Y-108223884D01*
X201452052Y-108335380D01*
X201465761Y-108349036D01*
X201476890Y-108362537D01*
X201499315Y-108419463D01*
X201499500Y-108425509D01*
X201499500Y-134101490D01*
X190100000Y-134150000D01*
X195380000Y-129300000D01*
X195500000Y-120250000D01*
X195152470Y-119945911D01*
X195152467Y-119945908D01*
X193700782Y-118675683D01*
X193700770Y-118675674D01*
X193500000Y-118500000D01*
X193238393Y-118447678D01*
X193238391Y-118447678D01*
X192880552Y-118376110D01*
X192869606Y-118373261D01*
X192716820Y-118324008D01*
X192696233Y-118314658D01*
X192563503Y-118234962D01*
X192545579Y-118221189D01*
X192434393Y-118113451D01*
X192420060Y-118095968D01*
X192336222Y-117965816D01*
X192326228Y-117945533D01*
X192274109Y-117799749D01*
X192268979Y-117777727D01*
X192250648Y-117618260D01*
X192250000Y-117606954D01*
X192250000Y-109054861D01*
X192250477Y-109045157D01*
X192268259Y-108864613D01*
X192272045Y-108845579D01*
X192323293Y-108676635D01*
X192330711Y-108658727D01*
X192413938Y-108503020D01*
X192424707Y-108486902D01*
X192536710Y-108350426D01*
X192550426Y-108336710D01*
X192686902Y-108224707D01*
X192703020Y-108213938D01*
X192858727Y-108130711D01*
X192876635Y-108123293D01*
X193045583Y-108072044D01*
X193064609Y-108068259D01*
X193245157Y-108050476D01*
X193254861Y-108050000D01*
X200748976Y-108050000D01*
X200758655Y-108050473D01*
G37*
%TD.AperFunction*%
%TD*%
%TA.AperFunction,Conductor*%
%TO.N,/AC/L_in*%
G36*
X190100000Y-134150000D02*
G01*
X201499500Y-134101491D01*
X201499500Y-137589626D01*
X201480593Y-137647817D01*
X201431093Y-137683781D01*
X201397546Y-137688582D01*
X188451935Y-137302147D01*
X188394334Y-137281512D01*
X188359864Y-137230961D01*
X188359849Y-137230911D01*
X187009757Y-132602024D01*
X187011615Y-132540867D01*
X187049065Y-132492482D01*
X187083872Y-132477541D01*
X193409765Y-131109780D01*
X190100000Y-134150000D01*
G37*
%TD.AperFunction*%
%TD*%
%TA.AperFunction,Conductor*%
%TO.N,/AC/N_out*%
G36*
X108004842Y-107750476D02*
G01*
X108185388Y-107768259D01*
X108204418Y-107772044D01*
X108373360Y-107823292D01*
X108391276Y-107830713D01*
X108546974Y-107913935D01*
X108563101Y-107924711D01*
X108658771Y-108003224D01*
X108699569Y-108036707D01*
X108713292Y-108050430D01*
X108825285Y-108186893D01*
X108836067Y-108203030D01*
X108919283Y-108358716D01*
X108926710Y-108376646D01*
X108977954Y-108545579D01*
X108981740Y-108564613D01*
X108999523Y-108745157D01*
X109000000Y-108754861D01*
X109000000Y-120495138D01*
X108999523Y-120504842D01*
X108981740Y-120685386D01*
X108977954Y-120704420D01*
X108926710Y-120873353D01*
X108919283Y-120891283D01*
X108836067Y-121046969D01*
X108825285Y-121063106D01*
X108713292Y-121199569D01*
X108699569Y-121213292D01*
X108563106Y-121325285D01*
X108546969Y-121336067D01*
X108391283Y-121419283D01*
X108373353Y-121426710D01*
X108204420Y-121477954D01*
X108185386Y-121481740D01*
X108004843Y-121499523D01*
X107995139Y-121500000D01*
X101504861Y-121500000D01*
X101495157Y-121499523D01*
X101314613Y-121481740D01*
X101295579Y-121477954D01*
X101126646Y-121426710D01*
X101108718Y-121419284D01*
X100953028Y-121336065D01*
X100936895Y-121325286D01*
X100868661Y-121269288D01*
X100800430Y-121213292D01*
X100786707Y-121199569D01*
X100753224Y-121158771D01*
X100674711Y-121063101D01*
X100663935Y-121046974D01*
X100580713Y-120891276D01*
X100573292Y-120873360D01*
X100522044Y-120704418D01*
X100518259Y-120685386D01*
X100500977Y-120509918D01*
X100500500Y-120500214D01*
X100500500Y-108749784D01*
X100500977Y-108740080D01*
X100518259Y-108564613D01*
X100522045Y-108545579D01*
X100573293Y-108376635D01*
X100580711Y-108358727D01*
X100663938Y-108203020D01*
X100674707Y-108186902D01*
X100786710Y-108050426D01*
X100800426Y-108036710D01*
X100936902Y-107924707D01*
X100953020Y-107913938D01*
X101108727Y-107830711D01*
X101126635Y-107823293D01*
X101295583Y-107772044D01*
X101314609Y-107768259D01*
X101495157Y-107750476D01*
X101504861Y-107750000D01*
X107995139Y-107750000D01*
X108004842Y-107750476D01*
G37*
%TD.AperFunction*%
%TD*%
%TA.AperFunction,Conductor*%
%TO.N,/AC/N_in*%
G36*
X190150763Y-125030563D02*
G01*
X190155919Y-125091531D01*
X190124254Y-125143886D01*
X190120866Y-125146684D01*
X186444385Y-128049169D01*
X186386996Y-128070387D01*
X186328096Y-128053820D01*
X186318090Y-128046182D01*
X178534050Y-121279599D01*
X178516265Y-121250000D01*
X187000000Y-121250000D01*
X187000000Y-117547499D01*
X190150763Y-125030563D01*
G37*
%TD.AperFunction*%
%TD*%
%TA.AperFunction,Conductor*%
%TO.N,/AC/N_in*%
G36*
X186004842Y-101000476D02*
G01*
X186185388Y-101018259D01*
X186204418Y-101022044D01*
X186373360Y-101073292D01*
X186391276Y-101080713D01*
X186546974Y-101163935D01*
X186563101Y-101174711D01*
X186658771Y-101253224D01*
X186699569Y-101286707D01*
X186713292Y-101300430D01*
X186825285Y-101436893D01*
X186836067Y-101453030D01*
X186919283Y-101608716D01*
X186926710Y-101626646D01*
X186977954Y-101795579D01*
X186981740Y-101814613D01*
X186999523Y-101995157D01*
X187000000Y-102004861D01*
X187000000Y-121250000D01*
X178614329Y-121250000D01*
X178595447Y-121218105D01*
X178586688Y-121198883D01*
X178526116Y-121016530D01*
X178521636Y-120995897D01*
X178500565Y-120799540D01*
X178500000Y-120788977D01*
X178500000Y-102004861D01*
X178500477Y-101995157D01*
X178518259Y-101814613D01*
X178522045Y-101795579D01*
X178573293Y-101626635D01*
X178580711Y-101608727D01*
X178663938Y-101453020D01*
X178674707Y-101436902D01*
X178786710Y-101300426D01*
X178800426Y-101286710D01*
X178936902Y-101174707D01*
X178953020Y-101163938D01*
X179108727Y-101080711D01*
X179126635Y-101073293D01*
X179295583Y-101022044D01*
X179314609Y-101018259D01*
X179495157Y-101000476D01*
X179504861Y-101000000D01*
X185995139Y-101000000D01*
X186004842Y-101000476D01*
G37*
%TD.AperFunction*%
%TD*%
%TA.AperFunction,Conductor*%
%TO.N,GND*%
G36*
X126394075Y-200577007D02*
G01*
X126360000Y-200704174D01*
X126360000Y-200835826D01*
X126394075Y-200962993D01*
X126426988Y-201020000D01*
X124753012Y-201020000D01*
X124785925Y-200962993D01*
X124820000Y-200835826D01*
X124820000Y-200704174D01*
X124785925Y-200577007D01*
X124753012Y-200520000D01*
X126426988Y-200520000D01*
X126394075Y-200577007D01*
G37*
%TD.AperFunction*%
%TA.AperFunction,Conductor*%
G36*
X128934075Y-200577007D02*
G01*
X128900000Y-200704174D01*
X128900000Y-200835826D01*
X128934075Y-200962993D01*
X128966988Y-201020000D01*
X127293012Y-201020000D01*
X127325925Y-200962993D01*
X127360000Y-200835826D01*
X127360000Y-200704174D01*
X127325925Y-200577007D01*
X127293012Y-200520000D01*
X128966988Y-200520000D01*
X128934075Y-200577007D01*
G37*
%TD.AperFunction*%
%TA.AperFunction,Conductor*%
G36*
X131474075Y-200577007D02*
G01*
X131440000Y-200704174D01*
X131440000Y-200835826D01*
X131474075Y-200962993D01*
X131506988Y-201020000D01*
X129833012Y-201020000D01*
X129865925Y-200962993D01*
X129900000Y-200835826D01*
X129900000Y-200704174D01*
X129865925Y-200577007D01*
X129833012Y-200520000D01*
X131506988Y-200520000D01*
X131474075Y-200577007D01*
G37*
%TD.AperFunction*%
%TA.AperFunction,Conductor*%
G36*
X134014075Y-200577007D02*
G01*
X133980000Y-200704174D01*
X133980000Y-200835826D01*
X134014075Y-200962993D01*
X134046988Y-201020000D01*
X132373012Y-201020000D01*
X132405925Y-200962993D01*
X132440000Y-200835826D01*
X132440000Y-200704174D01*
X132405925Y-200577007D01*
X132373012Y-200520000D01*
X134046988Y-200520000D01*
X134014075Y-200577007D01*
G37*
%TD.AperFunction*%
%TA.AperFunction,Conductor*%
G36*
X136554075Y-200577007D02*
G01*
X136520000Y-200704174D01*
X136520000Y-200835826D01*
X136554075Y-200962993D01*
X136586988Y-201020000D01*
X134913012Y-201020000D01*
X134945925Y-200962993D01*
X134980000Y-200835826D01*
X134980000Y-200704174D01*
X134945925Y-200577007D01*
X134913012Y-200520000D01*
X136586988Y-200520000D01*
X136554075Y-200577007D01*
G37*
%TD.AperFunction*%
%TA.AperFunction,Conductor*%
G36*
X139094075Y-200577007D02*
G01*
X139060000Y-200704174D01*
X139060000Y-200835826D01*
X139094075Y-200962993D01*
X139126988Y-201020000D01*
X137453012Y-201020000D01*
X137485925Y-200962993D01*
X137520000Y-200835826D01*
X137520000Y-200704174D01*
X137485925Y-200577007D01*
X137453012Y-200520000D01*
X139126988Y-200520000D01*
X139094075Y-200577007D01*
G37*
%TD.AperFunction*%
%TA.AperFunction,Conductor*%
G36*
X141634075Y-200577007D02*
G01*
X141600000Y-200704174D01*
X141600000Y-200835826D01*
X141634075Y-200962993D01*
X141666988Y-201020000D01*
X139993012Y-201020000D01*
X140025925Y-200962993D01*
X140060000Y-200835826D01*
X140060000Y-200704174D01*
X140025925Y-200577007D01*
X139993012Y-200520000D01*
X141666988Y-200520000D01*
X141634075Y-200577007D01*
G37*
%TD.AperFunction*%
%TA.AperFunction,Conductor*%
G36*
X144174075Y-200577007D02*
G01*
X144140000Y-200704174D01*
X144140000Y-200835826D01*
X144174075Y-200962993D01*
X144206988Y-201020000D01*
X142533012Y-201020000D01*
X142565925Y-200962993D01*
X142600000Y-200835826D01*
X142600000Y-200704174D01*
X142565925Y-200577007D01*
X142533012Y-200520000D01*
X144206988Y-200520000D01*
X144174075Y-200577007D01*
G37*
%TD.AperFunction*%
%TA.AperFunction,Conductor*%
G36*
X146714075Y-200577007D02*
G01*
X146680000Y-200704174D01*
X146680000Y-200835826D01*
X146714075Y-200962993D01*
X146746988Y-201020000D01*
X145073012Y-201020000D01*
X145105925Y-200962993D01*
X145140000Y-200835826D01*
X145140000Y-200704174D01*
X145105925Y-200577007D01*
X145073012Y-200520000D01*
X146746988Y-200520000D01*
X146714075Y-200577007D01*
G37*
%TD.AperFunction*%
%TA.AperFunction,Conductor*%
G36*
X149254075Y-200577007D02*
G01*
X149220000Y-200704174D01*
X149220000Y-200835826D01*
X149254075Y-200962993D01*
X149286988Y-201020000D01*
X147613012Y-201020000D01*
X147645925Y-200962993D01*
X147680000Y-200835826D01*
X147680000Y-200704174D01*
X147645925Y-200577007D01*
X147613012Y-200520000D01*
X149286988Y-200520000D01*
X149254075Y-200577007D01*
G37*
%TD.AperFunction*%
%TA.AperFunction,Conductor*%
G36*
X151794075Y-200577007D02*
G01*
X151760000Y-200704174D01*
X151760000Y-200835826D01*
X151794075Y-200962993D01*
X151826988Y-201020000D01*
X150153012Y-201020000D01*
X150185925Y-200962993D01*
X150220000Y-200835826D01*
X150220000Y-200704174D01*
X150185925Y-200577007D01*
X150153012Y-200520000D01*
X151826988Y-200520000D01*
X151794075Y-200577007D01*
G37*
%TD.AperFunction*%
%TA.AperFunction,Conductor*%
G36*
X154334075Y-200577007D02*
G01*
X154300000Y-200704174D01*
X154300000Y-200835826D01*
X154334075Y-200962993D01*
X154366988Y-201020000D01*
X152693012Y-201020000D01*
X152725925Y-200962993D01*
X152760000Y-200835826D01*
X152760000Y-200704174D01*
X152725925Y-200577007D01*
X152693012Y-200520000D01*
X154366988Y-200520000D01*
X154334075Y-200577007D01*
G37*
%TD.AperFunction*%
%TA.AperFunction,Conductor*%
G36*
X156874075Y-200577007D02*
G01*
X156840000Y-200704174D01*
X156840000Y-200835826D01*
X156874075Y-200962993D01*
X156906988Y-201020000D01*
X155233012Y-201020000D01*
X155265925Y-200962993D01*
X155300000Y-200835826D01*
X155300000Y-200704174D01*
X155265925Y-200577007D01*
X155233012Y-200520000D01*
X156906988Y-200520000D01*
X156874075Y-200577007D01*
G37*
%TD.AperFunction*%
%TA.AperFunction,Conductor*%
G36*
X159414075Y-200577007D02*
G01*
X159380000Y-200704174D01*
X159380000Y-200835826D01*
X159414075Y-200962993D01*
X159446988Y-201020000D01*
X157773012Y-201020000D01*
X157805925Y-200962993D01*
X157840000Y-200835826D01*
X157840000Y-200704174D01*
X157805925Y-200577007D01*
X157773012Y-200520000D01*
X159446988Y-200520000D01*
X159414075Y-200577007D01*
G37*
%TD.AperFunction*%
%TA.AperFunction,Conductor*%
G36*
X161954075Y-200577007D02*
G01*
X161920000Y-200704174D01*
X161920000Y-200835826D01*
X161954075Y-200962993D01*
X161986988Y-201020000D01*
X160313012Y-201020000D01*
X160345925Y-200962993D01*
X160380000Y-200835826D01*
X160380000Y-200704174D01*
X160345925Y-200577007D01*
X160313012Y-200520000D01*
X161986988Y-200520000D01*
X161954075Y-200577007D01*
G37*
%TD.AperFunction*%
%TA.AperFunction,Conductor*%
G36*
X164494075Y-200577007D02*
G01*
X164460000Y-200704174D01*
X164460000Y-200835826D01*
X164494075Y-200962993D01*
X164526988Y-201020000D01*
X162853012Y-201020000D01*
X162885925Y-200962993D01*
X162920000Y-200835826D01*
X162920000Y-200704174D01*
X162885925Y-200577007D01*
X162853012Y-200520000D01*
X164526988Y-200520000D01*
X164494075Y-200577007D01*
G37*
%TD.AperFunction*%
%TA.AperFunction,Conductor*%
G36*
X104554075Y-191057007D02*
G01*
X104520000Y-191184174D01*
X104520000Y-191315826D01*
X104554075Y-191442993D01*
X104586988Y-191500000D01*
X102913012Y-191500000D01*
X102945925Y-191442993D01*
X102980000Y-191315826D01*
X102980000Y-191184174D01*
X102945925Y-191057007D01*
X102913012Y-191000000D01*
X104586988Y-191000000D01*
X104554075Y-191057007D01*
G37*
%TD.AperFunction*%
%TA.AperFunction,Conductor*%
G36*
X158784446Y-149018907D02*
G01*
X158820410Y-149068407D01*
X158820410Y-149129593D01*
X158796259Y-149169004D01*
X158779555Y-149185707D01*
X158652900Y-149366591D01*
X158559578Y-149566723D01*
X158502423Y-149780026D01*
X158483179Y-149999996D01*
X158483179Y-150000003D01*
X158502423Y-150219973D01*
X158559578Y-150433276D01*
X158652901Y-150633410D01*
X158652902Y-150633411D01*
X158698257Y-150698187D01*
X159307861Y-150088583D01*
X159330667Y-150173694D01*
X159389910Y-150276306D01*
X159473694Y-150360090D01*
X159576306Y-150419333D01*
X159661414Y-150442138D01*
X159051811Y-151051741D01*
X159116590Y-151097099D01*
X159316722Y-151190421D01*
X159530026Y-151247576D01*
X159749997Y-151266821D01*
X159750003Y-151266821D01*
X159969973Y-151247576D01*
X160183277Y-151190421D01*
X160383409Y-151097099D01*
X160448187Y-151051740D01*
X159838585Y-150442138D01*
X159923694Y-150419333D01*
X160026306Y-150360090D01*
X160110090Y-150276306D01*
X160169333Y-150173694D01*
X160192138Y-150088585D01*
X160801740Y-150698187D01*
X160847099Y-150633409D01*
X160940421Y-150433277D01*
X160997576Y-150219973D01*
X161016821Y-150000003D01*
X161016821Y-149999996D01*
X160997576Y-149780026D01*
X160940421Y-149566723D01*
X160847099Y-149366591D01*
X160720444Y-149185707D01*
X160703741Y-149169004D01*
X160675964Y-149114487D01*
X160685535Y-149054055D01*
X160728800Y-149010790D01*
X160773745Y-149000000D01*
X171516988Y-149000000D01*
X171575179Y-149018907D01*
X171611143Y-149068407D01*
X171611143Y-149129593D01*
X171579793Y-149175528D01*
X171495068Y-149245059D01*
X171495059Y-149245068D01*
X171362292Y-149406845D01*
X171362288Y-149406851D01*
X171263628Y-149591430D01*
X171202872Y-149791713D01*
X171202871Y-149791719D01*
X171182359Y-149999996D01*
X171182359Y-150000003D01*
X171202871Y-150208280D01*
X171202872Y-150208286D01*
X171263628Y-150408569D01*
X171362288Y-150593148D01*
X171362292Y-150593154D01*
X171495059Y-150754931D01*
X171495068Y-150754940D01*
X171624478Y-150861144D01*
X171656850Y-150887711D01*
X171841431Y-150986372D01*
X171980958Y-151028696D01*
X172041713Y-151047127D01*
X172041719Y-151047128D01*
X172249997Y-151067641D01*
X172250000Y-151067641D01*
X172250003Y-151067641D01*
X172458280Y-151047128D01*
X172458286Y-151047127D01*
X172658569Y-150986372D01*
X172843150Y-150887711D01*
X173004936Y-150754936D01*
X173137711Y-150593150D01*
X173236372Y-150408569D01*
X173297127Y-150208286D01*
X173299100Y-150188261D01*
X173317641Y-150000003D01*
X173317641Y-149999996D01*
X173297128Y-149791719D01*
X173297127Y-149791713D01*
X173254139Y-149650001D01*
X173236372Y-149591431D01*
X173137711Y-149406850D01*
X173072275Y-149327116D01*
X173004940Y-149245068D01*
X173004931Y-149245059D01*
X172920207Y-149175528D01*
X172887220Y-149123997D01*
X172890822Y-149062917D01*
X172929637Y-149015621D01*
X172983012Y-149000000D01*
X183066315Y-149000000D01*
X183124506Y-149018907D01*
X183160470Y-149068407D01*
X183160470Y-149129593D01*
X183124506Y-149179093D01*
X183106582Y-149189441D01*
X183047277Y-149215845D01*
X183047268Y-149215850D01*
X182894129Y-149327111D01*
X182894124Y-149327116D01*
X182767469Y-149467781D01*
X182767465Y-149467787D01*
X182672825Y-149631706D01*
X182672819Y-149631720D01*
X182614327Y-149811738D01*
X182614326Y-149811742D01*
X182614326Y-149811744D01*
X182594540Y-150000000D01*
X182607409Y-150122447D01*
X182614327Y-150188261D01*
X182672819Y-150368279D01*
X182672825Y-150368293D01*
X182723529Y-150456113D01*
X182767467Y-150532216D01*
X182767469Y-150532218D01*
X182858583Y-150633411D01*
X182894129Y-150672888D01*
X183047270Y-150784151D01*
X183220197Y-150861144D01*
X183405354Y-150900500D01*
X183405357Y-150900500D01*
X183594643Y-150900500D01*
X183594646Y-150900500D01*
X183779803Y-150861144D01*
X183952730Y-150784151D01*
X184105871Y-150672888D01*
X184232533Y-150532216D01*
X184325498Y-150371196D01*
X184327174Y-150368293D01*
X184327174Y-150368291D01*
X184327179Y-150368284D01*
X184385674Y-150188256D01*
X184401542Y-150037272D01*
X184416432Y-150003829D01*
X184414264Y-150001877D01*
X184401542Y-149962725D01*
X184398501Y-149933789D01*
X184385674Y-149811744D01*
X184327179Y-149631716D01*
X184327176Y-149631711D01*
X184327174Y-149631706D01*
X184278551Y-149547490D01*
X184232533Y-149467784D01*
X184105871Y-149327112D01*
X183952730Y-149215849D01*
X183952725Y-149215847D01*
X183952722Y-149215845D01*
X183893418Y-149189441D01*
X183847948Y-149148500D01*
X183835227Y-149088651D01*
X183860114Y-149032756D01*
X183913102Y-149002163D01*
X183933685Y-149000000D01*
X185066315Y-149000000D01*
X185124506Y-149018907D01*
X185160470Y-149068407D01*
X185160470Y-149129593D01*
X185124506Y-149179093D01*
X185106582Y-149189441D01*
X185047277Y-149215845D01*
X185047268Y-149215850D01*
X184894129Y-149327111D01*
X184894124Y-149327116D01*
X184767469Y-149467781D01*
X184767465Y-149467787D01*
X184672825Y-149631706D01*
X184672819Y-149631720D01*
X184614327Y-149811738D01*
X184614326Y-149811742D01*
X184614326Y-149811744D01*
X184601499Y-149933788D01*
X184598458Y-149962725D01*
X184583567Y-149996169D01*
X184585736Y-149998122D01*
X184598457Y-150037271D01*
X184607409Y-150122447D01*
X184614327Y-150188261D01*
X184672819Y-150368279D01*
X184672824Y-150368290D01*
X184688975Y-150396265D01*
X184701696Y-150456113D01*
X184676809Y-150512008D01*
X184663506Y-150524305D01*
X184601724Y-150571712D01*
X184601713Y-150571723D01*
X184505462Y-150697160D01*
X184505462Y-150697161D01*
X184444957Y-150843233D01*
X184444955Y-150843241D01*
X184424318Y-150999999D01*
X184424318Y-151000000D01*
X184444955Y-151156758D01*
X184444957Y-151156766D01*
X184505462Y-151302838D01*
X184505462Y-151302839D01*
X184580092Y-151400099D01*
X184601718Y-151428282D01*
X184601722Y-151428285D01*
X184601723Y-151428286D01*
X184619123Y-151441637D01*
X184727159Y-151524536D01*
X184727160Y-151524536D01*
X184727161Y-151524537D01*
X184873233Y-151585042D01*
X184873238Y-151585044D01*
X184990809Y-151600522D01*
X185029999Y-151605682D01*
X185030000Y-151605682D01*
X185030001Y-151605682D01*
X185061352Y-151601554D01*
X185186762Y-151585044D01*
X185332841Y-151524536D01*
X185458282Y-151428282D01*
X185554536Y-151302841D01*
X185615044Y-151156762D01*
X185635682Y-151000000D01*
X185633767Y-150985455D01*
X185643259Y-150934241D01*
X188919312Y-150934241D01*
X189007581Y-150988895D01*
X189007586Y-150988898D01*
X189197683Y-151062541D01*
X189398070Y-151100000D01*
X189601930Y-151100000D01*
X189802316Y-151062541D01*
X189992415Y-150988897D01*
X189992416Y-150988897D01*
X190080686Y-150934241D01*
X189499999Y-150353554D01*
X188919312Y-150934241D01*
X185643259Y-150934241D01*
X185644917Y-150925295D01*
X185689299Y-150883177D01*
X185711335Y-150875696D01*
X185779803Y-150861144D01*
X185952730Y-150784151D01*
X186105871Y-150672888D01*
X186232533Y-150532216D01*
X186325498Y-150371196D01*
X186327174Y-150368293D01*
X186327174Y-150368291D01*
X186327179Y-150368284D01*
X186385674Y-150188256D01*
X186401542Y-150037272D01*
X186416432Y-150003829D01*
X186414264Y-150001877D01*
X186401542Y-149962725D01*
X186398501Y-149933789D01*
X186385674Y-149811744D01*
X186327179Y-149631716D01*
X186327176Y-149631711D01*
X186327174Y-149631706D01*
X186278551Y-149547490D01*
X186232533Y-149467784D01*
X186105871Y-149327112D01*
X185952730Y-149215849D01*
X185952725Y-149215847D01*
X185952722Y-149215845D01*
X185893418Y-149189441D01*
X185847948Y-149148500D01*
X185835227Y-149088651D01*
X185860114Y-149032756D01*
X185913102Y-149002163D01*
X185933685Y-149000000D01*
X187066315Y-149000000D01*
X187124506Y-149018907D01*
X187160470Y-149068407D01*
X187160470Y-149129593D01*
X187124506Y-149179093D01*
X187106582Y-149189441D01*
X187047277Y-149215845D01*
X187047268Y-149215850D01*
X186894129Y-149327111D01*
X186894124Y-149327116D01*
X186767469Y-149467781D01*
X186767465Y-149467787D01*
X186672825Y-149631706D01*
X186672819Y-149631720D01*
X186614327Y-149811738D01*
X186614326Y-149811742D01*
X186614326Y-149811744D01*
X186601499Y-149933788D01*
X186598458Y-149962725D01*
X186583567Y-149996169D01*
X186585736Y-149998122D01*
X186598457Y-150037271D01*
X186607409Y-150122447D01*
X186614327Y-150188261D01*
X186672819Y-150368279D01*
X186672825Y-150368293D01*
X186723529Y-150456113D01*
X186767467Y-150532216D01*
X186767469Y-150532218D01*
X186858583Y-150633411D01*
X186894129Y-150672888D01*
X187047270Y-150784151D01*
X187220197Y-150861144D01*
X187405354Y-150900500D01*
X187405357Y-150900500D01*
X187594643Y-150900500D01*
X187594646Y-150900500D01*
X187779803Y-150861144D01*
X187952730Y-150784151D01*
X188105871Y-150672888D01*
X188232533Y-150532216D01*
X188303392Y-150409484D01*
X188348860Y-150368545D01*
X188409710Y-150362149D01*
X188462698Y-150392742D01*
X188477748Y-150414858D01*
X188560751Y-150581551D01*
X188562532Y-150583911D01*
X189146444Y-149999999D01*
X189100367Y-149953922D01*
X189150000Y-149953922D01*
X189150000Y-150046078D01*
X189173852Y-150135095D01*
X189219930Y-150214905D01*
X189285095Y-150280070D01*
X189364905Y-150326148D01*
X189453922Y-150350000D01*
X189546078Y-150350000D01*
X189635095Y-150326148D01*
X189714905Y-150280070D01*
X189780070Y-150214905D01*
X189826148Y-150135095D01*
X189850000Y-150046078D01*
X189850000Y-149953922D01*
X189826148Y-149864905D01*
X189780070Y-149785095D01*
X189714905Y-149719930D01*
X189635095Y-149673852D01*
X189546078Y-149650000D01*
X189453922Y-149650000D01*
X189364905Y-149673852D01*
X189285095Y-149719930D01*
X189219930Y-149785095D01*
X189173852Y-149864905D01*
X189150000Y-149953922D01*
X189100367Y-149953922D01*
X188562533Y-149416087D01*
X188560753Y-149418445D01*
X188560750Y-149418450D01*
X188477748Y-149585141D01*
X188434885Y-149628804D01*
X188374544Y-149638933D01*
X188319773Y-149611660D01*
X188303391Y-149590513D01*
X188274068Y-149539725D01*
X188232533Y-149467784D01*
X188105871Y-149327112D01*
X187952730Y-149215849D01*
X187952725Y-149215847D01*
X187952722Y-149215845D01*
X187893418Y-149189441D01*
X187847948Y-149148500D01*
X187835227Y-149088651D01*
X187860114Y-149032756D01*
X187913102Y-149002163D01*
X187933685Y-149000000D01*
X188815791Y-149000000D01*
X188873982Y-149018907D01*
X188884280Y-149033080D01*
X188885458Y-149031903D01*
X189499999Y-149646444D01*
X190114541Y-149031903D01*
X190116234Y-149033596D01*
X190142976Y-149008995D01*
X190184208Y-149000000D01*
X191066315Y-149000000D01*
X191124506Y-149018907D01*
X191160470Y-149068407D01*
X191160470Y-149129593D01*
X191124506Y-149179093D01*
X191106582Y-149189441D01*
X191047277Y-149215845D01*
X191047268Y-149215850D01*
X190894129Y-149327111D01*
X190894124Y-149327116D01*
X190767469Y-149467781D01*
X190767467Y-149467783D01*
X190696608Y-149590514D01*
X190651138Y-149631454D01*
X190590288Y-149637849D01*
X190537300Y-149607256D01*
X190522251Y-149585141D01*
X190439249Y-149418450D01*
X190439244Y-149418441D01*
X190437466Y-149416087D01*
X189853554Y-149999999D01*
X190437466Y-150583911D01*
X190439245Y-150581556D01*
X190439249Y-150581549D01*
X190522251Y-150414858D01*
X190565113Y-150371196D01*
X190625454Y-150361066D01*
X190680225Y-150388338D01*
X190696608Y-150409486D01*
X190723529Y-150456113D01*
X190767467Y-150532216D01*
X190767469Y-150532218D01*
X190858583Y-150633411D01*
X190894129Y-150672888D01*
X191047270Y-150784151D01*
X191220197Y-150861144D01*
X191405354Y-150900500D01*
X191405357Y-150900500D01*
X191594643Y-150900500D01*
X191594646Y-150900500D01*
X191779803Y-150861144D01*
X191952730Y-150784151D01*
X192105871Y-150672888D01*
X192232533Y-150532216D01*
X192325498Y-150371196D01*
X192327174Y-150368293D01*
X192327174Y-150368291D01*
X192327179Y-150368284D01*
X192385674Y-150188256D01*
X192401542Y-150037272D01*
X192416432Y-150003829D01*
X192414264Y-150001877D01*
X192401542Y-149962725D01*
X192398501Y-149933789D01*
X192385674Y-149811744D01*
X192327179Y-149631716D01*
X192327176Y-149631711D01*
X192327174Y-149631706D01*
X192278551Y-149547490D01*
X192232533Y-149467784D01*
X192105871Y-149327112D01*
X191952730Y-149215849D01*
X191952725Y-149215847D01*
X191952722Y-149215845D01*
X191893418Y-149189441D01*
X191847948Y-149148500D01*
X191835227Y-149088651D01*
X191860114Y-149032756D01*
X191913102Y-149002163D01*
X191933685Y-149000000D01*
X193066315Y-149000000D01*
X193124506Y-149018907D01*
X193160470Y-149068407D01*
X193160470Y-149129593D01*
X193124506Y-149179093D01*
X193106582Y-149189441D01*
X193047277Y-149215845D01*
X193047268Y-149215850D01*
X192894129Y-149327111D01*
X192894124Y-149327116D01*
X192767469Y-149467781D01*
X192767465Y-149467787D01*
X192672825Y-149631706D01*
X192672819Y-149631720D01*
X192614327Y-149811738D01*
X192614326Y-149811742D01*
X192614326Y-149811744D01*
X192601499Y-149933788D01*
X192598458Y-149962725D01*
X192583567Y-149996169D01*
X192585736Y-149998122D01*
X192598457Y-150037271D01*
X192607409Y-150122447D01*
X192614327Y-150188261D01*
X192672819Y-150368279D01*
X192672825Y-150368293D01*
X192723529Y-150456113D01*
X192767467Y-150532216D01*
X192767469Y-150532218D01*
X192858583Y-150633411D01*
X192894129Y-150672888D01*
X193047270Y-150784151D01*
X193220197Y-150861144D01*
X193405354Y-150900500D01*
X193405357Y-150900500D01*
X193594643Y-150900500D01*
X193594646Y-150900500D01*
X193779803Y-150861144D01*
X193952730Y-150784151D01*
X194105871Y-150672888D01*
X194232533Y-150532216D01*
X194325498Y-150371196D01*
X194327174Y-150368293D01*
X194327174Y-150368291D01*
X194327179Y-150368284D01*
X194385674Y-150188256D01*
X194401542Y-150037272D01*
X194416432Y-150003829D01*
X194414264Y-150001877D01*
X194401542Y-149962725D01*
X194398501Y-149933789D01*
X194385674Y-149811744D01*
X194327179Y-149631716D01*
X194327176Y-149631711D01*
X194327174Y-149631706D01*
X194278551Y-149547490D01*
X194232533Y-149467784D01*
X194105871Y-149327112D01*
X193952730Y-149215849D01*
X193952725Y-149215847D01*
X193952722Y-149215845D01*
X193893418Y-149189441D01*
X193847948Y-149148500D01*
X193835227Y-149088651D01*
X193860114Y-149032756D01*
X193913102Y-149002163D01*
X193933685Y-149000000D01*
X195066315Y-149000000D01*
X195124506Y-149018907D01*
X195160470Y-149068407D01*
X195160470Y-149129593D01*
X195124506Y-149179093D01*
X195106582Y-149189441D01*
X195047277Y-149215845D01*
X195047268Y-149215850D01*
X194894129Y-149327111D01*
X194894124Y-149327116D01*
X194767469Y-149467781D01*
X194767465Y-149467787D01*
X194672825Y-149631706D01*
X194672819Y-149631720D01*
X194614327Y-149811738D01*
X194614326Y-149811742D01*
X194614326Y-149811744D01*
X194601499Y-149933788D01*
X194598458Y-149962725D01*
X194583567Y-149996169D01*
X194585736Y-149998122D01*
X194598457Y-150037271D01*
X194607409Y-150122447D01*
X194614327Y-150188261D01*
X194672819Y-150368279D01*
X194672825Y-150368293D01*
X194723529Y-150456113D01*
X194767467Y-150532216D01*
X194767469Y-150532218D01*
X194858583Y-150633411D01*
X194894129Y-150672888D01*
X195047270Y-150784151D01*
X195220197Y-150861144D01*
X195405354Y-150900500D01*
X195405357Y-150900500D01*
X195594643Y-150900500D01*
X195594646Y-150900500D01*
X195779803Y-150861144D01*
X195952730Y-150784151D01*
X196105871Y-150672888D01*
X196232533Y-150532216D01*
X196325498Y-150371196D01*
X196327174Y-150368293D01*
X196327174Y-150368291D01*
X196327179Y-150368284D01*
X196385674Y-150188256D01*
X196405460Y-150000000D01*
X196385674Y-149811744D01*
X196327179Y-149631716D01*
X196327176Y-149631711D01*
X196327174Y-149631706D01*
X196278551Y-149547490D01*
X196232533Y-149467784D01*
X196105871Y-149327112D01*
X195952730Y-149215849D01*
X195952725Y-149215847D01*
X195952722Y-149215845D01*
X195893418Y-149189441D01*
X195847948Y-149148500D01*
X195835227Y-149088651D01*
X195860114Y-149032756D01*
X195913102Y-149002163D01*
X195933685Y-149000000D01*
X201400500Y-149000000D01*
X201458691Y-149018907D01*
X201494655Y-149068407D01*
X201499500Y-149099000D01*
X201499500Y-158996559D01*
X201480593Y-159054750D01*
X201431093Y-159090714D01*
X201369907Y-159090714D01*
X201320407Y-159054750D01*
X201308076Y-159032038D01*
X201209230Y-158774537D01*
X201182255Y-158704264D01*
X201015682Y-158377348D01*
X200815851Y-158069634D01*
X200584949Y-157784494D01*
X200325506Y-157525051D01*
X200040366Y-157294149D01*
X199732652Y-157094318D01*
X199697287Y-157076298D01*
X199405733Y-156927743D01*
X199063219Y-156796264D01*
X199063196Y-156796257D01*
X198708788Y-156701293D01*
X198346413Y-156643898D01*
X198346392Y-156643896D01*
X197980006Y-156624696D01*
X197979994Y-156624696D01*
X197613607Y-156643896D01*
X197613586Y-156643898D01*
X197251211Y-156701293D01*
X196896803Y-156796257D01*
X196896780Y-156796264D01*
X196554266Y-156927743D01*
X196227353Y-157094315D01*
X195919631Y-157294151D01*
X195634498Y-157525047D01*
X195375047Y-157784498D01*
X195144151Y-158069631D01*
X195144149Y-158069634D01*
X195027019Y-158250000D01*
X194944315Y-158377353D01*
X194777743Y-158704266D01*
X194646264Y-159046780D01*
X194646257Y-159046803D01*
X194551293Y-159401211D01*
X194493898Y-159763586D01*
X194493896Y-159763607D01*
X194474696Y-160129993D01*
X194474696Y-160130006D01*
X194493896Y-160496392D01*
X194493898Y-160496413D01*
X194551293Y-160858788D01*
X194646257Y-161213196D01*
X194646264Y-161213219D01*
X194777743Y-161555733D01*
X194871610Y-161739955D01*
X194944318Y-161882652D01*
X195144149Y-162190366D01*
X195375051Y-162475506D01*
X195634494Y-162734949D01*
X195919634Y-162965851D01*
X196227348Y-163165682D01*
X196554264Y-163332255D01*
X196554266Y-163332256D01*
X196896780Y-163463735D01*
X196896793Y-163463739D01*
X196896801Y-163463742D01*
X197251206Y-163558705D01*
X197251209Y-163558705D01*
X197251211Y-163558706D01*
X197613586Y-163616101D01*
X197613595Y-163616101D01*
X197613596Y-163616102D01*
X197613597Y-163616102D01*
X197613607Y-163616103D01*
X197979994Y-163635304D01*
X197980000Y-163635304D01*
X197980006Y-163635304D01*
X198346392Y-163616103D01*
X198346400Y-163616102D01*
X198346404Y-163616102D01*
X198346406Y-163616101D01*
X198346413Y-163616101D01*
X198708788Y-163558706D01*
X198708788Y-163558705D01*
X198708794Y-163558705D01*
X199063199Y-163463742D01*
X199063210Y-163463737D01*
X199063219Y-163463735D01*
X199343089Y-163356302D01*
X199405736Y-163332255D01*
X199732652Y-163165682D01*
X200040366Y-162965851D01*
X200325506Y-162734949D01*
X200584949Y-162475506D01*
X200815851Y-162190366D01*
X201015682Y-161882652D01*
X201182255Y-161555736D01*
X201203650Y-161499999D01*
X201308076Y-161227962D01*
X201346581Y-161180412D01*
X201405681Y-161164576D01*
X201462803Y-161186503D01*
X201496127Y-161237817D01*
X201499500Y-161263440D01*
X201499500Y-199636559D01*
X201480593Y-199694750D01*
X201431093Y-199730714D01*
X201369907Y-199730714D01*
X201320407Y-199694750D01*
X201308076Y-199672038D01*
X201206247Y-199406766D01*
X201182255Y-199344264D01*
X201015682Y-199017348D01*
X200815851Y-198709634D01*
X200584949Y-198424494D01*
X200325506Y-198165051D01*
X200040366Y-197934149D01*
X199732652Y-197734318D01*
X199697287Y-197716298D01*
X199405733Y-197567743D01*
X199063219Y-197436264D01*
X199063196Y-197436257D01*
X198708788Y-197341293D01*
X198346413Y-197283898D01*
X198346392Y-197283896D01*
X197980006Y-197264696D01*
X197979994Y-197264696D01*
X197613607Y-197283896D01*
X197613586Y-197283898D01*
X197251211Y-197341293D01*
X196896803Y-197436257D01*
X196896780Y-197436264D01*
X196554266Y-197567743D01*
X196227353Y-197734315D01*
X196227349Y-197734317D01*
X196227348Y-197734318D01*
X196106787Y-197812611D01*
X195919631Y-197934151D01*
X195634498Y-198165047D01*
X195375047Y-198424498D01*
X195144151Y-198709631D01*
X195144149Y-198709634D01*
X194950121Y-199008413D01*
X194944315Y-199017353D01*
X194777743Y-199344266D01*
X194646264Y-199686780D01*
X194646257Y-199686803D01*
X194551293Y-200041211D01*
X194493898Y-200403586D01*
X194493896Y-200403607D01*
X194474696Y-200769993D01*
X194474696Y-200770006D01*
X194493896Y-201136392D01*
X194493898Y-201136413D01*
X194551293Y-201498788D01*
X194646257Y-201853196D01*
X194646264Y-201853219D01*
X194777743Y-202195733D01*
X194777745Y-202195736D01*
X194944318Y-202522652D01*
X195144149Y-202830366D01*
X195375051Y-203115506D01*
X195634494Y-203374949D01*
X195919634Y-203605851D01*
X196227348Y-203805682D01*
X196309701Y-203847643D01*
X196554266Y-203972256D01*
X196777834Y-204058076D01*
X196825384Y-204096581D01*
X196841220Y-204155681D01*
X196819293Y-204212803D01*
X196767979Y-204246127D01*
X196742356Y-204249500D01*
X105237644Y-204249500D01*
X105179453Y-204230593D01*
X105143489Y-204181093D01*
X105143489Y-204119907D01*
X105179453Y-204070407D01*
X105202166Y-204058076D01*
X105425733Y-203972256D01*
X105425731Y-203972256D01*
X105425736Y-203972255D01*
X105752652Y-203805682D01*
X106060366Y-203605851D01*
X106345506Y-203374949D01*
X106604949Y-203115506D01*
X106835851Y-202830366D01*
X107035682Y-202522652D01*
X107202255Y-202195736D01*
X107238761Y-202100634D01*
X107333735Y-201853219D01*
X107333737Y-201853210D01*
X107333742Y-201853199D01*
X107428705Y-201498794D01*
X107436817Y-201447576D01*
X107486101Y-201136413D01*
X107486103Y-201136392D01*
X107505304Y-200770006D01*
X107505304Y-200770000D01*
X115544571Y-200770000D01*
X115564244Y-200982310D01*
X115622595Y-201187389D01*
X115717634Y-201378255D01*
X115846128Y-201548407D01*
X115916734Y-201612773D01*
X116003692Y-201692047D01*
X116003699Y-201692053D01*
X116107389Y-201756255D01*
X116184981Y-201804298D01*
X116383802Y-201881321D01*
X116593390Y-201920500D01*
X116806610Y-201920500D01*
X117016198Y-201881321D01*
X117215019Y-201804298D01*
X117396302Y-201692052D01*
X117553872Y-201548407D01*
X117682366Y-201378255D01*
X117777405Y-201187389D01*
X117835756Y-200982310D01*
X117855429Y-200770000D01*
X118084571Y-200770000D01*
X118104244Y-200982310D01*
X118162595Y-201187389D01*
X118257634Y-201378255D01*
X118386128Y-201548407D01*
X118456734Y-201612773D01*
X118543692Y-201692047D01*
X118543699Y-201692053D01*
X118647389Y-201756255D01*
X118724981Y-201804298D01*
X118923802Y-201881321D01*
X119133390Y-201920500D01*
X119346610Y-201920500D01*
X119556198Y-201881321D01*
X119755019Y-201804298D01*
X119936302Y-201692052D01*
X120093872Y-201548407D01*
X120222366Y-201378255D01*
X120317405Y-201187389D01*
X120375756Y-200982310D01*
X120395429Y-200770000D01*
X120624571Y-200770000D01*
X120644244Y-200982310D01*
X120702595Y-201187389D01*
X120797634Y-201378255D01*
X120926128Y-201548407D01*
X120996734Y-201612773D01*
X121083692Y-201692047D01*
X121083699Y-201692053D01*
X121187389Y-201756255D01*
X121264981Y-201804298D01*
X121463802Y-201881321D01*
X121673390Y-201920500D01*
X121886610Y-201920500D01*
X122096198Y-201881321D01*
X122295019Y-201804298D01*
X122476302Y-201692052D01*
X122633872Y-201548407D01*
X122762366Y-201378255D01*
X122855795Y-201190621D01*
X122898655Y-201146962D01*
X122958996Y-201136832D01*
X123013767Y-201164104D01*
X123040040Y-201209127D01*
X123046567Y-201233487D01*
X123146399Y-201447577D01*
X123281886Y-201641073D01*
X123448926Y-201808113D01*
X123642422Y-201943600D01*
X123856509Y-202043430D01*
X124070000Y-202100634D01*
X124070000Y-201203012D01*
X124127007Y-201235925D01*
X124254174Y-201270000D01*
X124385826Y-201270000D01*
X124512993Y-201235925D01*
X124570000Y-201203012D01*
X124570000Y-202100633D01*
X124783490Y-202043430D01*
X124997577Y-201943600D01*
X125191073Y-201808113D01*
X125358113Y-201641073D01*
X125493601Y-201447576D01*
X125493602Y-201447574D01*
X125500275Y-201433265D01*
X125542003Y-201388516D01*
X125602064Y-201376841D01*
X125657517Y-201402698D01*
X125679725Y-201433265D01*
X125686397Y-201447574D01*
X125686398Y-201447576D01*
X125821886Y-201641073D01*
X125988926Y-201808113D01*
X126182422Y-201943600D01*
X126396509Y-202043430D01*
X126610000Y-202100634D01*
X126610000Y-201203012D01*
X126667007Y-201235925D01*
X126794174Y-201270000D01*
X126925826Y-201270000D01*
X127052993Y-201235925D01*
X127110000Y-201203012D01*
X127110000Y-202100633D01*
X127323490Y-202043430D01*
X127537577Y-201943600D01*
X127731073Y-201808113D01*
X127898113Y-201641073D01*
X128033601Y-201447576D01*
X128033602Y-201447574D01*
X128040275Y-201433265D01*
X128082003Y-201388516D01*
X128142064Y-201376841D01*
X128197517Y-201402698D01*
X128219725Y-201433265D01*
X128226397Y-201447574D01*
X128226398Y-201447576D01*
X128361886Y-201641073D01*
X128528926Y-201808113D01*
X128722422Y-201943600D01*
X128936509Y-202043430D01*
X129150000Y-202100634D01*
X129150000Y-201203012D01*
X129207007Y-201235925D01*
X129334174Y-201270000D01*
X129465826Y-201270000D01*
X129592993Y-201235925D01*
X129650000Y-201203012D01*
X129650000Y-202100634D01*
X129863490Y-202043430D01*
X130077577Y-201943600D01*
X130271073Y-201808113D01*
X130438113Y-201641073D01*
X130573601Y-201447576D01*
X130573602Y-201447574D01*
X130580275Y-201433265D01*
X130622003Y-201388516D01*
X130682064Y-201376841D01*
X130737517Y-201402698D01*
X130759725Y-201433265D01*
X130766397Y-201447574D01*
X130766398Y-201447576D01*
X130901886Y-201641073D01*
X131068926Y-201808113D01*
X131262422Y-201943600D01*
X131476509Y-202043430D01*
X131690000Y-202100634D01*
X131690000Y-201203012D01*
X131747007Y-201235925D01*
X131874174Y-201270000D01*
X132005826Y-201270000D01*
X132132993Y-201235925D01*
X132190000Y-201203012D01*
X132190000Y-202100633D01*
X132403490Y-202043430D01*
X132617577Y-201943600D01*
X132811073Y-201808113D01*
X132978113Y-201641073D01*
X133113601Y-201447576D01*
X133113602Y-201447574D01*
X133120275Y-201433265D01*
X133162003Y-201388516D01*
X133222064Y-201376841D01*
X133277517Y-201402698D01*
X133299725Y-201433265D01*
X133306397Y-201447574D01*
X133306398Y-201447576D01*
X133441886Y-201641073D01*
X133608926Y-201808113D01*
X133802422Y-201943600D01*
X134016509Y-202043430D01*
X134230000Y-202100634D01*
X134230000Y-201203012D01*
X134287007Y-201235925D01*
X134414174Y-201270000D01*
X134545826Y-201270000D01*
X134672993Y-201235925D01*
X134730000Y-201203012D01*
X134730000Y-202100634D01*
X134943490Y-202043430D01*
X135157577Y-201943600D01*
X135351073Y-201808113D01*
X135518113Y-201641073D01*
X135653601Y-201447576D01*
X135653602Y-201447574D01*
X135660275Y-201433265D01*
X135702003Y-201388516D01*
X135762064Y-201376841D01*
X135817517Y-201402698D01*
X135839725Y-201433265D01*
X135846397Y-201447574D01*
X135846398Y-201447576D01*
X135981886Y-201641073D01*
X136148926Y-201808113D01*
X136342422Y-201943600D01*
X136556509Y-202043430D01*
X136770000Y-202100634D01*
X136770000Y-201203012D01*
X136827007Y-201235925D01*
X136954174Y-201270000D01*
X137085826Y-201270000D01*
X137212993Y-201235925D01*
X137270000Y-201203012D01*
X137270000Y-202100633D01*
X137483490Y-202043430D01*
X137697577Y-201943600D01*
X137891073Y-201808113D01*
X138058113Y-201641073D01*
X138193601Y-201447576D01*
X138193602Y-201447574D01*
X138200275Y-201433265D01*
X138242003Y-201388516D01*
X138302064Y-201376841D01*
X138357517Y-201402698D01*
X138379725Y-201433265D01*
X138386397Y-201447574D01*
X138386398Y-201447576D01*
X138521886Y-201641073D01*
X138688926Y-201808113D01*
X138882422Y-201943600D01*
X139096509Y-202043430D01*
X139310000Y-202100634D01*
X139310000Y-201203012D01*
X139367007Y-201235925D01*
X139494174Y-201270000D01*
X139625826Y-201270000D01*
X139752993Y-201235925D01*
X139810000Y-201203012D01*
X139810000Y-202100633D01*
X140023490Y-202043430D01*
X140237577Y-201943600D01*
X140431073Y-201808113D01*
X140598113Y-201641073D01*
X140733601Y-201447576D01*
X140733602Y-201447574D01*
X140740275Y-201433265D01*
X140782003Y-201388516D01*
X140842064Y-201376841D01*
X140897517Y-201402698D01*
X140919725Y-201433265D01*
X140926397Y-201447574D01*
X140926398Y-201447576D01*
X141061886Y-201641073D01*
X141228926Y-201808113D01*
X141422422Y-201943600D01*
X141636509Y-202043430D01*
X141850000Y-202100634D01*
X141850000Y-201203012D01*
X141907007Y-201235925D01*
X142034174Y-201270000D01*
X142165826Y-201270000D01*
X142292993Y-201235925D01*
X142350000Y-201203012D01*
X142350000Y-202100634D01*
X142563490Y-202043430D01*
X142777577Y-201943600D01*
X142971073Y-201808113D01*
X143138113Y-201641073D01*
X143273601Y-201447576D01*
X143273602Y-201447574D01*
X143280275Y-201433265D01*
X143322003Y-201388516D01*
X143382064Y-201376841D01*
X143437517Y-201402698D01*
X143459725Y-201433265D01*
X143466397Y-201447574D01*
X143466398Y-201447576D01*
X143601886Y-201641073D01*
X143768926Y-201808113D01*
X143962422Y-201943600D01*
X144176509Y-202043430D01*
X144390000Y-202100634D01*
X144390000Y-201203012D01*
X144447007Y-201235925D01*
X144574174Y-201270000D01*
X144705826Y-201270000D01*
X144832993Y-201235925D01*
X144890000Y-201203012D01*
X144890000Y-202100634D01*
X145103490Y-202043430D01*
X145317577Y-201943600D01*
X145511073Y-201808113D01*
X145678113Y-201641073D01*
X145813601Y-201447576D01*
X145813602Y-201447574D01*
X145820275Y-201433265D01*
X145862003Y-201388516D01*
X145922064Y-201376841D01*
X145977517Y-201402698D01*
X145999725Y-201433265D01*
X146006397Y-201447574D01*
X146006398Y-201447576D01*
X146141886Y-201641073D01*
X146308926Y-201808113D01*
X146502422Y-201943600D01*
X146716509Y-202043430D01*
X146930000Y-202100634D01*
X146930000Y-201203012D01*
X146987007Y-201235925D01*
X147114174Y-201270000D01*
X147245826Y-201270000D01*
X147372993Y-201235925D01*
X147430000Y-201203012D01*
X147430000Y-202100634D01*
X147643490Y-202043430D01*
X147857577Y-201943600D01*
X148051073Y-201808113D01*
X148218113Y-201641073D01*
X148353601Y-201447576D01*
X148353602Y-201447574D01*
X148360275Y-201433265D01*
X148402003Y-201388516D01*
X148462064Y-201376841D01*
X148517517Y-201402698D01*
X148539725Y-201433265D01*
X148546397Y-201447574D01*
X148546398Y-201447576D01*
X148681886Y-201641073D01*
X148848926Y-201808113D01*
X149042422Y-201943600D01*
X149256509Y-202043430D01*
X149470000Y-202100634D01*
X149470000Y-201203012D01*
X149527007Y-201235925D01*
X149654174Y-201270000D01*
X149785826Y-201270000D01*
X149912993Y-201235925D01*
X149970000Y-201203012D01*
X149970000Y-202100634D01*
X150183490Y-202043430D01*
X150397577Y-201943600D01*
X150591073Y-201808113D01*
X150758113Y-201641073D01*
X150893601Y-201447576D01*
X150893602Y-201447574D01*
X150900275Y-201433265D01*
X150942003Y-201388516D01*
X151002064Y-201376841D01*
X151057517Y-201402698D01*
X151079725Y-201433265D01*
X151086397Y-201447574D01*
X151086398Y-201447576D01*
X151221886Y-201641073D01*
X151388926Y-201808113D01*
X151582422Y-201943600D01*
X151796509Y-202043430D01*
X152010000Y-202100634D01*
X152010000Y-201203012D01*
X152067007Y-201235925D01*
X152194174Y-201270000D01*
X152325826Y-201270000D01*
X152452993Y-201235925D01*
X152510000Y-201203012D01*
X152510000Y-202100634D01*
X152723490Y-202043430D01*
X152937577Y-201943600D01*
X153131073Y-201808113D01*
X153298113Y-201641073D01*
X153433601Y-201447576D01*
X153433602Y-201447574D01*
X153440275Y-201433265D01*
X153482003Y-201388516D01*
X153542064Y-201376841D01*
X153597517Y-201402698D01*
X153619725Y-201433265D01*
X153626397Y-201447574D01*
X153626398Y-201447576D01*
X153761886Y-201641073D01*
X153928926Y-201808113D01*
X154122422Y-201943600D01*
X154336509Y-202043430D01*
X154550000Y-202100634D01*
X154550000Y-201203012D01*
X154607007Y-201235925D01*
X154734174Y-201270000D01*
X154865826Y-201270000D01*
X154992993Y-201235925D01*
X155050000Y-201203012D01*
X155050000Y-202100634D01*
X155263490Y-202043430D01*
X155477577Y-201943600D01*
X155671073Y-201808113D01*
X155838113Y-201641073D01*
X155973601Y-201447576D01*
X155973602Y-201447574D01*
X155980275Y-201433265D01*
X156022003Y-201388516D01*
X156082064Y-201376841D01*
X156137517Y-201402698D01*
X156159725Y-201433265D01*
X156166397Y-201447574D01*
X156166398Y-201447576D01*
X156301886Y-201641073D01*
X156468926Y-201808113D01*
X156662422Y-201943600D01*
X156876509Y-202043430D01*
X157090000Y-202100634D01*
X157090000Y-201203012D01*
X157147007Y-201235925D01*
X157274174Y-201270000D01*
X157405826Y-201270000D01*
X157532993Y-201235925D01*
X157590000Y-201203012D01*
X157590000Y-202100633D01*
X157803490Y-202043430D01*
X158017577Y-201943600D01*
X158211073Y-201808113D01*
X158378113Y-201641073D01*
X158513601Y-201447576D01*
X158513602Y-201447574D01*
X158520275Y-201433265D01*
X158562003Y-201388516D01*
X158622064Y-201376841D01*
X158677517Y-201402698D01*
X158699725Y-201433265D01*
X158706397Y-201447574D01*
X158706398Y-201447576D01*
X158841886Y-201641073D01*
X159008926Y-201808113D01*
X159202422Y-201943600D01*
X159416509Y-202043430D01*
X159630000Y-202100634D01*
X159630000Y-201203012D01*
X159687007Y-201235925D01*
X159814174Y-201270000D01*
X159945826Y-201270000D01*
X160072993Y-201235925D01*
X160130000Y-201203012D01*
X160130000Y-202100633D01*
X160343490Y-202043430D01*
X160557577Y-201943600D01*
X160751073Y-201808113D01*
X160918113Y-201641073D01*
X161053601Y-201447576D01*
X161053602Y-201447574D01*
X161060275Y-201433265D01*
X161102003Y-201388516D01*
X161162064Y-201376841D01*
X161217517Y-201402698D01*
X161239725Y-201433265D01*
X161246397Y-201447574D01*
X161246398Y-201447576D01*
X161381886Y-201641073D01*
X161548926Y-201808113D01*
X161742422Y-201943600D01*
X161956509Y-202043430D01*
X162170000Y-202100634D01*
X162170000Y-201203012D01*
X162227007Y-201235925D01*
X162354174Y-201270000D01*
X162485826Y-201270000D01*
X162612993Y-201235925D01*
X162670000Y-201203012D01*
X162670000Y-202100634D01*
X162883490Y-202043430D01*
X163097577Y-201943600D01*
X163291073Y-201808113D01*
X163458113Y-201641073D01*
X163593601Y-201447576D01*
X163593602Y-201447574D01*
X163600275Y-201433265D01*
X163642003Y-201388516D01*
X163702064Y-201376841D01*
X163757517Y-201402698D01*
X163779725Y-201433265D01*
X163786397Y-201447574D01*
X163786398Y-201447576D01*
X163921886Y-201641073D01*
X164088926Y-201808113D01*
X164282422Y-201943600D01*
X164496509Y-202043430D01*
X164710000Y-202100634D01*
X164710000Y-201203012D01*
X164767007Y-201235925D01*
X164894174Y-201270000D01*
X165025826Y-201270000D01*
X165152993Y-201235925D01*
X165210000Y-201203012D01*
X165210000Y-202100633D01*
X165423490Y-202043430D01*
X165637577Y-201943600D01*
X165831073Y-201808113D01*
X165998113Y-201641073D01*
X166133600Y-201447577D01*
X166233430Y-201233489D01*
X166290636Y-201020000D01*
X165393012Y-201020000D01*
X165425925Y-200962993D01*
X165460000Y-200835826D01*
X165460000Y-200704174D01*
X165425925Y-200577007D01*
X165393012Y-200520000D01*
X166290636Y-200520000D01*
X166233429Y-200306505D01*
X166133605Y-200092432D01*
X166133601Y-200092424D01*
X165998113Y-199898926D01*
X165831073Y-199731886D01*
X165637577Y-199596399D01*
X165579299Y-199569224D01*
X165534551Y-199527496D01*
X165522876Y-199467434D01*
X165548734Y-199411982D01*
X165602247Y-199382318D01*
X165621136Y-199380499D01*
X165854864Y-199380499D01*
X165879991Y-199377585D01*
X165982765Y-199332206D01*
X166062206Y-199252765D01*
X166107585Y-199149991D01*
X166110500Y-199124865D01*
X166110499Y-197335136D01*
X166107585Y-197310009D01*
X166062206Y-197207235D01*
X165982765Y-197127794D01*
X165879991Y-197082415D01*
X165879990Y-197082414D01*
X165879988Y-197082414D01*
X165854868Y-197079500D01*
X164065139Y-197079500D01*
X164065136Y-197079501D01*
X164040009Y-197082414D01*
X163937235Y-197127794D01*
X163857794Y-197207235D01*
X163812414Y-197310011D01*
X163809500Y-197335130D01*
X163809500Y-199124860D01*
X163809501Y-199124863D01*
X163812414Y-199149990D01*
X163813325Y-199152053D01*
X163857794Y-199252765D01*
X163937235Y-199332206D01*
X164040009Y-199377585D01*
X164065135Y-199380500D01*
X164298862Y-199380499D01*
X164357050Y-199399406D01*
X164393014Y-199448906D01*
X164393015Y-199510091D01*
X164357051Y-199559591D01*
X164340700Y-199569223D01*
X164282428Y-199596396D01*
X164282424Y-199596398D01*
X164088926Y-199731886D01*
X163921886Y-199898926D01*
X163786398Y-200092424D01*
X163786396Y-200092428D01*
X163779724Y-200106737D01*
X163737995Y-200151485D01*
X163677934Y-200163159D01*
X163622481Y-200137300D01*
X163600276Y-200106737D01*
X163593603Y-200092428D01*
X163593601Y-200092424D01*
X163458113Y-199898926D01*
X163291073Y-199731886D01*
X163097577Y-199596399D01*
X162883489Y-199496569D01*
X162852301Y-199488212D01*
X162800987Y-199454888D01*
X162779060Y-199397766D01*
X162794896Y-199338666D01*
X162842160Y-199300271D01*
X162935019Y-199264298D01*
X163116302Y-199152052D01*
X163273872Y-199008407D01*
X163402366Y-198838255D01*
X163497405Y-198647389D01*
X163555756Y-198442310D01*
X163575429Y-198230000D01*
X163555756Y-198017690D01*
X163497405Y-197812611D01*
X163402366Y-197621745D01*
X163273872Y-197451593D01*
X163152882Y-197341295D01*
X163116307Y-197307952D01*
X163116300Y-197307946D01*
X162935024Y-197195705D01*
X162935019Y-197195702D01*
X162736198Y-197118679D01*
X162736197Y-197118678D01*
X162736195Y-197118678D01*
X162526610Y-197079500D01*
X162313390Y-197079500D01*
X162103804Y-197118678D01*
X161904980Y-197195702D01*
X161904975Y-197195705D01*
X161723699Y-197307946D01*
X161723692Y-197307952D01*
X161566135Y-197451586D01*
X161566131Y-197451589D01*
X161566128Y-197451593D01*
X161566125Y-197451597D01*
X161437635Y-197621743D01*
X161437630Y-197621752D01*
X161342596Y-197812608D01*
X161284244Y-198017688D01*
X161264571Y-198230000D01*
X161282593Y-198424498D01*
X161284244Y-198442310D01*
X161342595Y-198647389D01*
X161437634Y-198838255D01*
X161566128Y-199008407D01*
X161636734Y-199072773D01*
X161723692Y-199152047D01*
X161723699Y-199152053D01*
X161827389Y-199216255D01*
X161904981Y-199264298D01*
X161997839Y-199300271D01*
X162045269Y-199338921D01*
X162060923Y-199398070D01*
X162038820Y-199455124D01*
X161987699Y-199488211D01*
X161956512Y-199496567D01*
X161956505Y-199496570D01*
X161742432Y-199596394D01*
X161742424Y-199596398D01*
X161548926Y-199731886D01*
X161381886Y-199898926D01*
X161246398Y-200092424D01*
X161246396Y-200092428D01*
X161239724Y-200106737D01*
X161197995Y-200151485D01*
X161137934Y-200163159D01*
X161082481Y-200137300D01*
X161060276Y-200106737D01*
X161053603Y-200092428D01*
X161053601Y-200092424D01*
X160918113Y-199898926D01*
X160751073Y-199731886D01*
X160557577Y-199596399D01*
X160343489Y-199496569D01*
X160312301Y-199488212D01*
X160260987Y-199454888D01*
X160239060Y-199397766D01*
X160254896Y-199338666D01*
X160302160Y-199300271D01*
X160395019Y-199264298D01*
X160576302Y-199152052D01*
X160733872Y-199008407D01*
X160862366Y-198838255D01*
X160957405Y-198647389D01*
X161015756Y-198442310D01*
X161035429Y-198230000D01*
X161015756Y-198017690D01*
X160957405Y-197812611D01*
X160862366Y-197621745D01*
X160733872Y-197451593D01*
X160612882Y-197341295D01*
X160576307Y-197307952D01*
X160576300Y-197307946D01*
X160395024Y-197195705D01*
X160395019Y-197195702D01*
X160196198Y-197118679D01*
X160196197Y-197118678D01*
X160196195Y-197118678D01*
X159986610Y-197079500D01*
X159773390Y-197079500D01*
X159563804Y-197118678D01*
X159364980Y-197195702D01*
X159364975Y-197195705D01*
X159183699Y-197307946D01*
X159183692Y-197307952D01*
X159026135Y-197451586D01*
X159026131Y-197451589D01*
X159026128Y-197451593D01*
X159026125Y-197451597D01*
X158897635Y-197621743D01*
X158897630Y-197621752D01*
X158802596Y-197812608D01*
X158744244Y-198017688D01*
X158724571Y-198230000D01*
X158742593Y-198424498D01*
X158744244Y-198442310D01*
X158802595Y-198647389D01*
X158897634Y-198838255D01*
X159026128Y-199008407D01*
X159096734Y-199072773D01*
X159183692Y-199152047D01*
X159183699Y-199152053D01*
X159287389Y-199216255D01*
X159364981Y-199264298D01*
X159457839Y-199300271D01*
X159505269Y-199338921D01*
X159520923Y-199398070D01*
X159498820Y-199455124D01*
X159447699Y-199488211D01*
X159416512Y-199496567D01*
X159416505Y-199496570D01*
X159202432Y-199596394D01*
X159202424Y-199596398D01*
X159008926Y-199731886D01*
X158841886Y-199898926D01*
X158706398Y-200092424D01*
X158706396Y-200092428D01*
X158699724Y-200106737D01*
X158657995Y-200151485D01*
X158597934Y-200163159D01*
X158542481Y-200137300D01*
X158520276Y-200106737D01*
X158513603Y-200092428D01*
X158513601Y-200092424D01*
X158378113Y-199898926D01*
X158211073Y-199731886D01*
X158017577Y-199596399D01*
X157803489Y-199496569D01*
X157772301Y-199488212D01*
X157720987Y-199454888D01*
X157699060Y-199397766D01*
X157714896Y-199338666D01*
X157762160Y-199300271D01*
X157855019Y-199264298D01*
X158036302Y-199152052D01*
X158193872Y-199008407D01*
X158322366Y-198838255D01*
X158417405Y-198647389D01*
X158475756Y-198442310D01*
X158495429Y-198230000D01*
X158475756Y-198017690D01*
X158417405Y-197812611D01*
X158322366Y-197621745D01*
X158193872Y-197451593D01*
X158072882Y-197341295D01*
X158036307Y-197307952D01*
X158036300Y-197307946D01*
X157855024Y-197195705D01*
X157855019Y-197195702D01*
X157656198Y-197118679D01*
X157656197Y-197118678D01*
X157656195Y-197118678D01*
X157446610Y-197079500D01*
X157233390Y-197079500D01*
X157023804Y-197118678D01*
X156824980Y-197195702D01*
X156824975Y-197195705D01*
X156643699Y-197307946D01*
X156643692Y-197307952D01*
X156486135Y-197451586D01*
X156486131Y-197451589D01*
X156486128Y-197451593D01*
X156486125Y-197451597D01*
X156357635Y-197621743D01*
X156357630Y-197621752D01*
X156262596Y-197812608D01*
X156204244Y-198017688D01*
X156184571Y-198230000D01*
X156202593Y-198424498D01*
X156204244Y-198442310D01*
X156262595Y-198647389D01*
X156357634Y-198838255D01*
X156486128Y-199008407D01*
X156556734Y-199072773D01*
X156643692Y-199152047D01*
X156643699Y-199152053D01*
X156747389Y-199216255D01*
X156824981Y-199264298D01*
X156917839Y-199300271D01*
X156965269Y-199338921D01*
X156980923Y-199398070D01*
X156958820Y-199455124D01*
X156907699Y-199488211D01*
X156876512Y-199496567D01*
X156876505Y-199496570D01*
X156662432Y-199596394D01*
X156662424Y-199596398D01*
X156468926Y-199731886D01*
X156301886Y-199898926D01*
X156166398Y-200092424D01*
X156166396Y-200092428D01*
X156159724Y-200106737D01*
X156117995Y-200151485D01*
X156057934Y-200163159D01*
X156002481Y-200137300D01*
X155980276Y-200106737D01*
X155973603Y-200092428D01*
X155973601Y-200092424D01*
X155838113Y-199898926D01*
X155671073Y-199731886D01*
X155477577Y-199596399D01*
X155263489Y-199496569D01*
X155232301Y-199488212D01*
X155180987Y-199454888D01*
X155159060Y-199397766D01*
X155174896Y-199338666D01*
X155222160Y-199300271D01*
X155315019Y-199264298D01*
X155496302Y-199152052D01*
X155653872Y-199008407D01*
X155782366Y-198838255D01*
X155877405Y-198647389D01*
X155935756Y-198442310D01*
X155955429Y-198230000D01*
X155935756Y-198017690D01*
X155877405Y-197812611D01*
X155782366Y-197621745D01*
X155653872Y-197451593D01*
X155532882Y-197341295D01*
X155496307Y-197307952D01*
X155496300Y-197307946D01*
X155315024Y-197195705D01*
X155315019Y-197195702D01*
X155116198Y-197118679D01*
X155116197Y-197118678D01*
X155116195Y-197118678D01*
X154906610Y-197079500D01*
X154693390Y-197079500D01*
X154483804Y-197118678D01*
X154284980Y-197195702D01*
X154284975Y-197195705D01*
X154103699Y-197307946D01*
X154103692Y-197307952D01*
X153946135Y-197451586D01*
X153946131Y-197451589D01*
X153946128Y-197451593D01*
X153946125Y-197451597D01*
X153817635Y-197621743D01*
X153817630Y-197621752D01*
X153722596Y-197812608D01*
X153664244Y-198017688D01*
X153644571Y-198230000D01*
X153662593Y-198424498D01*
X153664244Y-198442310D01*
X153722595Y-198647389D01*
X153817634Y-198838255D01*
X153946128Y-199008407D01*
X154016734Y-199072773D01*
X154103692Y-199152047D01*
X154103699Y-199152053D01*
X154207389Y-199216255D01*
X154284981Y-199264298D01*
X154377839Y-199300271D01*
X154425269Y-199338921D01*
X154440923Y-199398070D01*
X154418820Y-199455124D01*
X154367699Y-199488211D01*
X154336512Y-199496567D01*
X154336505Y-199496570D01*
X154122432Y-199596394D01*
X154122424Y-199596398D01*
X153928926Y-199731886D01*
X153761886Y-199898926D01*
X153626398Y-200092424D01*
X153626396Y-200092428D01*
X153619724Y-200106737D01*
X153577995Y-200151485D01*
X153517934Y-200163159D01*
X153462481Y-200137300D01*
X153440276Y-200106737D01*
X153433603Y-200092428D01*
X153433601Y-200092424D01*
X153298113Y-199898926D01*
X153131073Y-199731886D01*
X152937577Y-199596399D01*
X152723489Y-199496569D01*
X152692301Y-199488212D01*
X152640987Y-199454888D01*
X152619060Y-199397766D01*
X152634896Y-199338666D01*
X152682160Y-199300271D01*
X152775019Y-199264298D01*
X152956302Y-199152052D01*
X153113872Y-199008407D01*
X153242366Y-198838255D01*
X153337405Y-198647389D01*
X153395756Y-198442310D01*
X153415429Y-198230000D01*
X153395756Y-198017690D01*
X153337405Y-197812611D01*
X153242366Y-197621745D01*
X153113872Y-197451593D01*
X152992882Y-197341295D01*
X152956307Y-197307952D01*
X152956300Y-197307946D01*
X152775024Y-197195705D01*
X152775019Y-197195702D01*
X152576198Y-197118679D01*
X152576197Y-197118678D01*
X152576195Y-197118678D01*
X152366610Y-197079500D01*
X152153390Y-197079500D01*
X151943804Y-197118678D01*
X151744980Y-197195702D01*
X151744975Y-197195705D01*
X151563699Y-197307946D01*
X151563692Y-197307952D01*
X151406135Y-197451586D01*
X151406131Y-197451589D01*
X151406128Y-197451593D01*
X151406125Y-197451597D01*
X151277635Y-197621743D01*
X151277630Y-197621752D01*
X151182596Y-197812608D01*
X151124244Y-198017688D01*
X151104571Y-198230000D01*
X151122593Y-198424498D01*
X151124244Y-198442310D01*
X151182595Y-198647389D01*
X151277634Y-198838255D01*
X151406128Y-199008407D01*
X151476734Y-199072773D01*
X151563692Y-199152047D01*
X151563699Y-199152053D01*
X151667389Y-199216255D01*
X151744981Y-199264298D01*
X151837839Y-199300271D01*
X151885269Y-199338921D01*
X151900923Y-199398070D01*
X151878820Y-199455124D01*
X151827699Y-199488211D01*
X151796512Y-199496567D01*
X151796505Y-199496570D01*
X151582432Y-199596394D01*
X151582424Y-199596398D01*
X151388926Y-199731886D01*
X151221886Y-199898926D01*
X151086398Y-200092424D01*
X151086396Y-200092428D01*
X151079724Y-200106737D01*
X151037995Y-200151485D01*
X150977934Y-200163159D01*
X150922481Y-200137300D01*
X150900276Y-200106737D01*
X150893603Y-200092428D01*
X150893601Y-200092424D01*
X150758113Y-199898926D01*
X150591073Y-199731886D01*
X150397577Y-199596399D01*
X150183489Y-199496569D01*
X150152301Y-199488212D01*
X150100987Y-199454888D01*
X150079060Y-199397766D01*
X150094896Y-199338666D01*
X150142160Y-199300271D01*
X150235019Y-199264298D01*
X150416302Y-199152052D01*
X150573872Y-199008407D01*
X150702366Y-198838255D01*
X150797405Y-198647389D01*
X150855756Y-198442310D01*
X150875429Y-198230000D01*
X150855756Y-198017690D01*
X150797405Y-197812611D01*
X150702366Y-197621745D01*
X150573872Y-197451593D01*
X150452882Y-197341295D01*
X150416307Y-197307952D01*
X150416300Y-197307946D01*
X150235024Y-197195705D01*
X150235019Y-197195702D01*
X150036198Y-197118679D01*
X150036197Y-197118678D01*
X150036195Y-197118678D01*
X149826610Y-197079500D01*
X149613390Y-197079500D01*
X149403804Y-197118678D01*
X149204980Y-197195702D01*
X149204975Y-197195705D01*
X149023699Y-197307946D01*
X149023692Y-197307952D01*
X148866135Y-197451586D01*
X148866131Y-197451589D01*
X148866128Y-197451593D01*
X148866125Y-197451597D01*
X148737635Y-197621743D01*
X148737630Y-197621752D01*
X148642596Y-197812608D01*
X148584244Y-198017688D01*
X148564571Y-198230000D01*
X148582593Y-198424498D01*
X148584244Y-198442310D01*
X148642595Y-198647389D01*
X148737634Y-198838255D01*
X148866128Y-199008407D01*
X148936734Y-199072773D01*
X149023692Y-199152047D01*
X149023699Y-199152053D01*
X149127389Y-199216255D01*
X149204981Y-199264298D01*
X149297839Y-199300271D01*
X149345269Y-199338921D01*
X149360923Y-199398070D01*
X149338820Y-199455124D01*
X149287699Y-199488211D01*
X149256512Y-199496567D01*
X149256505Y-199496570D01*
X149042432Y-199596394D01*
X149042424Y-199596398D01*
X148848926Y-199731886D01*
X148681886Y-199898926D01*
X148546398Y-200092424D01*
X148546396Y-200092428D01*
X148539724Y-200106737D01*
X148497995Y-200151485D01*
X148437934Y-200163159D01*
X148382481Y-200137300D01*
X148360276Y-200106737D01*
X148353603Y-200092428D01*
X148353601Y-200092424D01*
X148218113Y-199898926D01*
X148051073Y-199731886D01*
X147857577Y-199596399D01*
X147643489Y-199496569D01*
X147612301Y-199488212D01*
X147560987Y-199454888D01*
X147539060Y-199397766D01*
X147554896Y-199338666D01*
X147602160Y-199300271D01*
X147695019Y-199264298D01*
X147876302Y-199152052D01*
X148033872Y-199008407D01*
X148162366Y-198838255D01*
X148257405Y-198647389D01*
X148315756Y-198442310D01*
X148335429Y-198230000D01*
X148315756Y-198017690D01*
X148257405Y-197812611D01*
X148162366Y-197621745D01*
X148033872Y-197451593D01*
X147912882Y-197341295D01*
X147876307Y-197307952D01*
X147876300Y-197307946D01*
X147695024Y-197195705D01*
X147695019Y-197195702D01*
X147496198Y-197118679D01*
X147496197Y-197118678D01*
X147496195Y-197118678D01*
X147286610Y-197079500D01*
X147073390Y-197079500D01*
X146863804Y-197118678D01*
X146664980Y-197195702D01*
X146664975Y-197195705D01*
X146483699Y-197307946D01*
X146483692Y-197307952D01*
X146326135Y-197451586D01*
X146326131Y-197451589D01*
X146326128Y-197451593D01*
X146326125Y-197451597D01*
X146197635Y-197621743D01*
X146197630Y-197621752D01*
X146102596Y-197812608D01*
X146044244Y-198017688D01*
X146024571Y-198230000D01*
X146042593Y-198424498D01*
X146044244Y-198442310D01*
X146102595Y-198647389D01*
X146197634Y-198838255D01*
X146326128Y-199008407D01*
X146396734Y-199072773D01*
X146483692Y-199152047D01*
X146483699Y-199152053D01*
X146587389Y-199216255D01*
X146664981Y-199264298D01*
X146757839Y-199300271D01*
X146805269Y-199338921D01*
X146820923Y-199398070D01*
X146798820Y-199455124D01*
X146747699Y-199488211D01*
X146716512Y-199496567D01*
X146716505Y-199496570D01*
X146502432Y-199596394D01*
X146502424Y-199596398D01*
X146308926Y-199731886D01*
X146141886Y-199898926D01*
X146006398Y-200092424D01*
X146006396Y-200092428D01*
X145999724Y-200106737D01*
X145957995Y-200151485D01*
X145897934Y-200163159D01*
X145842481Y-200137300D01*
X145820276Y-200106737D01*
X145813603Y-200092428D01*
X145813601Y-200092424D01*
X145678113Y-199898926D01*
X145511073Y-199731886D01*
X145317577Y-199596399D01*
X145103489Y-199496569D01*
X145072301Y-199488212D01*
X145020987Y-199454888D01*
X144999060Y-199397766D01*
X145014896Y-199338666D01*
X145062160Y-199300271D01*
X145155019Y-199264298D01*
X145336302Y-199152052D01*
X145493872Y-199008407D01*
X145622366Y-198838255D01*
X145717405Y-198647389D01*
X145775756Y-198442310D01*
X145795429Y-198230000D01*
X145775756Y-198017690D01*
X145717405Y-197812611D01*
X145622366Y-197621745D01*
X145493872Y-197451593D01*
X145372882Y-197341295D01*
X145336307Y-197307952D01*
X145336300Y-197307946D01*
X145155024Y-197195705D01*
X145155019Y-197195702D01*
X144956198Y-197118679D01*
X144956197Y-197118678D01*
X144956195Y-197118678D01*
X144746610Y-197079500D01*
X144533390Y-197079500D01*
X144323804Y-197118678D01*
X144124980Y-197195702D01*
X144124975Y-197195705D01*
X143943699Y-197307946D01*
X143943692Y-197307952D01*
X143786135Y-197451586D01*
X143786131Y-197451589D01*
X143786128Y-197451593D01*
X143786125Y-197451597D01*
X143657635Y-197621743D01*
X143657630Y-197621752D01*
X143562596Y-197812608D01*
X143504244Y-198017688D01*
X143484571Y-198230000D01*
X143502593Y-198424498D01*
X143504244Y-198442310D01*
X143562595Y-198647389D01*
X143657634Y-198838255D01*
X143786128Y-199008407D01*
X143856734Y-199072773D01*
X143943692Y-199152047D01*
X143943699Y-199152053D01*
X144047389Y-199216255D01*
X144124981Y-199264298D01*
X144217839Y-199300271D01*
X144265269Y-199338921D01*
X144280923Y-199398070D01*
X144258820Y-199455124D01*
X144207699Y-199488211D01*
X144176512Y-199496567D01*
X144176505Y-199496570D01*
X143962432Y-199596394D01*
X143962424Y-199596398D01*
X143768926Y-199731886D01*
X143601886Y-199898926D01*
X143466398Y-200092424D01*
X143466396Y-200092428D01*
X143459724Y-200106737D01*
X143417995Y-200151485D01*
X143357934Y-200163159D01*
X143302481Y-200137300D01*
X143280276Y-200106737D01*
X143273603Y-200092428D01*
X143273601Y-200092424D01*
X143138113Y-199898926D01*
X142971073Y-199731886D01*
X142777577Y-199596399D01*
X142563489Y-199496569D01*
X142532301Y-199488212D01*
X142480987Y-199454888D01*
X142459060Y-199397766D01*
X142474896Y-199338666D01*
X142522160Y-199300271D01*
X142615019Y-199264298D01*
X142796302Y-199152052D01*
X142953872Y-199008407D01*
X143082366Y-198838255D01*
X143177405Y-198647389D01*
X143235756Y-198442310D01*
X143255429Y-198230000D01*
X143235756Y-198017690D01*
X143177405Y-197812611D01*
X143082366Y-197621745D01*
X142953872Y-197451593D01*
X142832882Y-197341295D01*
X142796307Y-197307952D01*
X142796300Y-197307946D01*
X142615024Y-197195705D01*
X142615019Y-197195702D01*
X142416198Y-197118679D01*
X142416197Y-197118678D01*
X142416195Y-197118678D01*
X142206610Y-197079500D01*
X141993390Y-197079500D01*
X141783804Y-197118678D01*
X141584980Y-197195702D01*
X141584975Y-197195705D01*
X141403699Y-197307946D01*
X141403692Y-197307952D01*
X141246135Y-197451586D01*
X141246131Y-197451589D01*
X141246128Y-197451593D01*
X141246125Y-197451597D01*
X141117635Y-197621743D01*
X141117630Y-197621752D01*
X141022596Y-197812608D01*
X140964244Y-198017688D01*
X140944571Y-198230000D01*
X140962593Y-198424498D01*
X140964244Y-198442310D01*
X141022595Y-198647389D01*
X141117634Y-198838255D01*
X141246128Y-199008407D01*
X141316734Y-199072773D01*
X141403692Y-199152047D01*
X141403699Y-199152053D01*
X141507389Y-199216255D01*
X141584981Y-199264298D01*
X141677839Y-199300271D01*
X141725269Y-199338921D01*
X141740923Y-199398070D01*
X141718820Y-199455124D01*
X141667699Y-199488211D01*
X141636512Y-199496567D01*
X141636505Y-199496570D01*
X141422432Y-199596394D01*
X141422424Y-199596398D01*
X141228926Y-199731886D01*
X141061886Y-199898926D01*
X140926398Y-200092424D01*
X140926396Y-200092428D01*
X140919724Y-200106737D01*
X140877995Y-200151485D01*
X140817934Y-200163159D01*
X140762481Y-200137300D01*
X140740276Y-200106737D01*
X140733603Y-200092428D01*
X140733601Y-200092424D01*
X140598113Y-199898926D01*
X140431073Y-199731886D01*
X140237577Y-199596399D01*
X140023489Y-199496569D01*
X139992301Y-199488212D01*
X139940987Y-199454888D01*
X139919060Y-199397766D01*
X139934896Y-199338666D01*
X139982160Y-199300271D01*
X140075019Y-199264298D01*
X140256302Y-199152052D01*
X140413872Y-199008407D01*
X140542366Y-198838255D01*
X140637405Y-198647389D01*
X140695756Y-198442310D01*
X140715429Y-198230000D01*
X140695756Y-198017690D01*
X140637405Y-197812611D01*
X140542366Y-197621745D01*
X140413872Y-197451593D01*
X140292882Y-197341295D01*
X140256307Y-197307952D01*
X140256300Y-197307946D01*
X140075024Y-197195705D01*
X140075019Y-197195702D01*
X139876198Y-197118679D01*
X139876197Y-197118678D01*
X139876195Y-197118678D01*
X139666610Y-197079500D01*
X139453390Y-197079500D01*
X139243804Y-197118678D01*
X139044980Y-197195702D01*
X139044975Y-197195705D01*
X138863699Y-197307946D01*
X138863692Y-197307952D01*
X138706135Y-197451586D01*
X138706131Y-197451589D01*
X138706128Y-197451593D01*
X138706125Y-197451597D01*
X138577635Y-197621743D01*
X138577630Y-197621752D01*
X138482596Y-197812608D01*
X138424244Y-198017688D01*
X138404571Y-198230000D01*
X138422593Y-198424498D01*
X138424244Y-198442310D01*
X138482595Y-198647389D01*
X138577634Y-198838255D01*
X138706128Y-199008407D01*
X138776734Y-199072773D01*
X138863692Y-199152047D01*
X138863699Y-199152053D01*
X138967389Y-199216255D01*
X139044981Y-199264298D01*
X139137839Y-199300271D01*
X139185269Y-199338921D01*
X139200923Y-199398070D01*
X139178820Y-199455124D01*
X139127699Y-199488211D01*
X139096512Y-199496567D01*
X139096505Y-199496570D01*
X138882432Y-199596394D01*
X138882424Y-199596398D01*
X138688926Y-199731886D01*
X138521886Y-199898926D01*
X138386398Y-200092424D01*
X138386396Y-200092428D01*
X138379724Y-200106737D01*
X138337995Y-200151485D01*
X138277934Y-200163159D01*
X138222481Y-200137300D01*
X138200276Y-200106737D01*
X138193603Y-200092428D01*
X138193601Y-200092424D01*
X138058113Y-199898926D01*
X137891073Y-199731886D01*
X137697577Y-199596399D01*
X137483489Y-199496569D01*
X137452301Y-199488212D01*
X137400987Y-199454888D01*
X137379060Y-199397766D01*
X137394896Y-199338666D01*
X137442160Y-199300271D01*
X137535019Y-199264298D01*
X137716302Y-199152052D01*
X137873872Y-199008407D01*
X138002366Y-198838255D01*
X138097405Y-198647389D01*
X138155756Y-198442310D01*
X138175429Y-198230000D01*
X138155756Y-198017690D01*
X138097405Y-197812611D01*
X138002366Y-197621745D01*
X137873872Y-197451593D01*
X137752882Y-197341295D01*
X137716307Y-197307952D01*
X137716300Y-197307946D01*
X137535024Y-197195705D01*
X137535019Y-197195702D01*
X137336198Y-197118679D01*
X137336197Y-197118678D01*
X137336195Y-197118678D01*
X137126610Y-197079500D01*
X136913390Y-197079500D01*
X136703804Y-197118678D01*
X136504980Y-197195702D01*
X136504975Y-197195705D01*
X136323699Y-197307946D01*
X136323692Y-197307952D01*
X136166135Y-197451586D01*
X136166131Y-197451589D01*
X136166128Y-197451593D01*
X136166125Y-197451597D01*
X136037635Y-197621743D01*
X136037630Y-197621752D01*
X135942596Y-197812608D01*
X135884244Y-198017688D01*
X135864571Y-198230000D01*
X135882593Y-198424498D01*
X135884244Y-198442310D01*
X135942595Y-198647389D01*
X136037634Y-198838255D01*
X136166128Y-199008407D01*
X136236734Y-199072773D01*
X136323692Y-199152047D01*
X136323699Y-199152053D01*
X136427389Y-199216255D01*
X136504981Y-199264298D01*
X136597839Y-199300271D01*
X136645269Y-199338921D01*
X136660923Y-199398070D01*
X136638820Y-199455124D01*
X136587699Y-199488211D01*
X136556512Y-199496567D01*
X136556505Y-199496570D01*
X136342432Y-199596394D01*
X136342424Y-199596398D01*
X136148926Y-199731886D01*
X135981886Y-199898926D01*
X135846398Y-200092424D01*
X135846396Y-200092428D01*
X135839724Y-200106737D01*
X135797995Y-200151485D01*
X135737934Y-200163159D01*
X135682481Y-200137300D01*
X135660276Y-200106737D01*
X135653603Y-200092428D01*
X135653601Y-200092424D01*
X135518113Y-199898926D01*
X135351073Y-199731886D01*
X135157577Y-199596399D01*
X134943489Y-199496569D01*
X134912301Y-199488212D01*
X134860987Y-199454888D01*
X134839060Y-199397766D01*
X134854896Y-199338666D01*
X134902160Y-199300271D01*
X134995019Y-199264298D01*
X135176302Y-199152052D01*
X135333872Y-199008407D01*
X135462366Y-198838255D01*
X135557405Y-198647389D01*
X135615756Y-198442310D01*
X135635429Y-198230000D01*
X135615756Y-198017690D01*
X135557405Y-197812611D01*
X135462366Y-197621745D01*
X135333872Y-197451593D01*
X135212882Y-197341295D01*
X135176307Y-197307952D01*
X135176300Y-197307946D01*
X134995024Y-197195705D01*
X134995019Y-197195702D01*
X134796198Y-197118679D01*
X134796197Y-197118678D01*
X134796195Y-197118678D01*
X134586610Y-197079500D01*
X134373390Y-197079500D01*
X134163804Y-197118678D01*
X133964980Y-197195702D01*
X133964975Y-197195705D01*
X133783699Y-197307946D01*
X133783692Y-197307952D01*
X133626135Y-197451586D01*
X133626131Y-197451589D01*
X133626128Y-197451593D01*
X133626125Y-197451597D01*
X133497635Y-197621743D01*
X133497630Y-197621752D01*
X133402596Y-197812608D01*
X133344244Y-198017688D01*
X133324571Y-198230000D01*
X133342593Y-198424498D01*
X133344244Y-198442310D01*
X133402595Y-198647389D01*
X133497634Y-198838255D01*
X133626128Y-199008407D01*
X133696734Y-199072773D01*
X133783692Y-199152047D01*
X133783699Y-199152053D01*
X133887389Y-199216255D01*
X133964981Y-199264298D01*
X134057839Y-199300271D01*
X134105269Y-199338921D01*
X134120923Y-199398070D01*
X134098820Y-199455124D01*
X134047699Y-199488211D01*
X134016512Y-199496567D01*
X134016505Y-199496570D01*
X133802432Y-199596394D01*
X133802424Y-199596398D01*
X133608926Y-199731886D01*
X133441886Y-199898926D01*
X133306398Y-200092424D01*
X133306396Y-200092428D01*
X133299724Y-200106737D01*
X133257995Y-200151485D01*
X133197934Y-200163159D01*
X133142481Y-200137300D01*
X133120276Y-200106737D01*
X133113603Y-200092428D01*
X133113601Y-200092424D01*
X132978113Y-199898926D01*
X132811073Y-199731886D01*
X132617577Y-199596399D01*
X132403489Y-199496569D01*
X132372301Y-199488212D01*
X132320987Y-199454888D01*
X132299060Y-199397766D01*
X132314896Y-199338666D01*
X132362160Y-199300271D01*
X132455019Y-199264298D01*
X132636302Y-199152052D01*
X132793872Y-199008407D01*
X132922366Y-198838255D01*
X133017405Y-198647389D01*
X133075756Y-198442310D01*
X133095429Y-198230000D01*
X133075756Y-198017690D01*
X133017405Y-197812611D01*
X132922366Y-197621745D01*
X132793872Y-197451593D01*
X132672882Y-197341295D01*
X132636307Y-197307952D01*
X132636300Y-197307946D01*
X132455024Y-197195705D01*
X132455019Y-197195702D01*
X132256198Y-197118679D01*
X132256197Y-197118678D01*
X132256195Y-197118678D01*
X132046610Y-197079500D01*
X131833390Y-197079500D01*
X131623804Y-197118678D01*
X131424980Y-197195702D01*
X131424975Y-197195705D01*
X131243699Y-197307946D01*
X131243692Y-197307952D01*
X131086135Y-197451586D01*
X131086131Y-197451589D01*
X131086128Y-197451593D01*
X131086125Y-197451597D01*
X130957635Y-197621743D01*
X130957630Y-197621752D01*
X130862596Y-197812608D01*
X130804244Y-198017688D01*
X130784571Y-198230000D01*
X130802593Y-198424498D01*
X130804244Y-198442310D01*
X130862595Y-198647389D01*
X130957634Y-198838255D01*
X131086128Y-199008407D01*
X131156734Y-199072773D01*
X131243692Y-199152047D01*
X131243699Y-199152053D01*
X131347389Y-199216255D01*
X131424981Y-199264298D01*
X131517839Y-199300271D01*
X131565269Y-199338921D01*
X131580923Y-199398070D01*
X131558820Y-199455124D01*
X131507699Y-199488211D01*
X131476512Y-199496567D01*
X131476505Y-199496570D01*
X131262432Y-199596394D01*
X131262424Y-199596398D01*
X131068926Y-199731886D01*
X130901886Y-199898926D01*
X130766398Y-200092424D01*
X130766396Y-200092428D01*
X130759724Y-200106737D01*
X130717995Y-200151485D01*
X130657934Y-200163159D01*
X130602481Y-200137300D01*
X130580276Y-200106737D01*
X130573603Y-200092428D01*
X130573601Y-200092424D01*
X130438113Y-199898926D01*
X130271073Y-199731886D01*
X130077577Y-199596399D01*
X129863489Y-199496569D01*
X129832301Y-199488212D01*
X129780987Y-199454888D01*
X129759060Y-199397766D01*
X129774896Y-199338666D01*
X129822160Y-199300271D01*
X129915019Y-199264298D01*
X130096302Y-199152052D01*
X130253872Y-199008407D01*
X130382366Y-198838255D01*
X130477405Y-198647389D01*
X130535756Y-198442310D01*
X130555429Y-198230000D01*
X130535756Y-198017690D01*
X130477405Y-197812611D01*
X130382366Y-197621745D01*
X130253872Y-197451593D01*
X130132882Y-197341295D01*
X130096307Y-197307952D01*
X130096300Y-197307946D01*
X129915024Y-197195705D01*
X129915019Y-197195702D01*
X129716198Y-197118679D01*
X129716197Y-197118678D01*
X129716195Y-197118678D01*
X129506610Y-197079500D01*
X129293390Y-197079500D01*
X129083804Y-197118678D01*
X128884980Y-197195702D01*
X128884975Y-197195705D01*
X128703699Y-197307946D01*
X128703692Y-197307952D01*
X128546135Y-197451586D01*
X128546131Y-197451589D01*
X128546128Y-197451593D01*
X128546125Y-197451597D01*
X128417635Y-197621743D01*
X128417630Y-197621752D01*
X128322596Y-197812608D01*
X128264244Y-198017688D01*
X128244571Y-198230000D01*
X128262593Y-198424498D01*
X128264244Y-198442310D01*
X128322595Y-198647389D01*
X128417634Y-198838255D01*
X128546128Y-199008407D01*
X128616734Y-199072773D01*
X128703692Y-199152047D01*
X128703699Y-199152053D01*
X128807389Y-199216255D01*
X128884981Y-199264298D01*
X128977839Y-199300271D01*
X129025269Y-199338921D01*
X129040923Y-199398070D01*
X129018820Y-199455124D01*
X128967699Y-199488211D01*
X128936512Y-199496567D01*
X128936505Y-199496570D01*
X128722432Y-199596394D01*
X128722424Y-199596398D01*
X128528926Y-199731886D01*
X128361886Y-199898926D01*
X128226398Y-200092424D01*
X128226396Y-200092428D01*
X128219724Y-200106737D01*
X128177995Y-200151485D01*
X128117934Y-200163159D01*
X128062481Y-200137300D01*
X128040276Y-200106737D01*
X128033603Y-200092428D01*
X128033601Y-200092424D01*
X127898113Y-199898926D01*
X127731073Y-199731886D01*
X127537577Y-199596399D01*
X127323489Y-199496569D01*
X127292301Y-199488212D01*
X127240987Y-199454888D01*
X127219060Y-199397766D01*
X127234896Y-199338666D01*
X127282160Y-199300271D01*
X127375019Y-199264298D01*
X127556302Y-199152052D01*
X127713872Y-199008407D01*
X127842366Y-198838255D01*
X127937405Y-198647389D01*
X127995756Y-198442310D01*
X128015429Y-198230000D01*
X127995756Y-198017690D01*
X127937405Y-197812611D01*
X127842366Y-197621745D01*
X127713872Y-197451593D01*
X127592882Y-197341295D01*
X127556307Y-197307952D01*
X127556300Y-197307946D01*
X127375024Y-197195705D01*
X127375019Y-197195702D01*
X127176198Y-197118679D01*
X127176197Y-197118678D01*
X127176195Y-197118678D01*
X126966610Y-197079500D01*
X126753390Y-197079500D01*
X126543804Y-197118678D01*
X126344980Y-197195702D01*
X126344975Y-197195705D01*
X126163699Y-197307946D01*
X126163692Y-197307952D01*
X126006135Y-197451586D01*
X126006131Y-197451589D01*
X126006128Y-197451593D01*
X126006125Y-197451597D01*
X125877635Y-197621743D01*
X125877630Y-197621752D01*
X125782596Y-197812608D01*
X125724244Y-198017688D01*
X125704571Y-198230000D01*
X125722593Y-198424498D01*
X125724244Y-198442310D01*
X125782595Y-198647389D01*
X125877634Y-198838255D01*
X126006128Y-199008407D01*
X126076734Y-199072773D01*
X126163692Y-199152047D01*
X126163699Y-199152053D01*
X126267389Y-199216255D01*
X126344981Y-199264298D01*
X126437839Y-199300271D01*
X126485269Y-199338921D01*
X126500923Y-199398070D01*
X126478820Y-199455124D01*
X126427699Y-199488211D01*
X126396512Y-199496567D01*
X126396505Y-199496570D01*
X126182432Y-199596394D01*
X126182424Y-199596398D01*
X125988926Y-199731886D01*
X125821886Y-199898926D01*
X125686398Y-200092424D01*
X125686396Y-200092428D01*
X125679724Y-200106737D01*
X125637995Y-200151485D01*
X125577934Y-200163159D01*
X125522481Y-200137300D01*
X125500276Y-200106737D01*
X125493603Y-200092428D01*
X125493601Y-200092424D01*
X125358113Y-199898926D01*
X125191073Y-199731886D01*
X124997577Y-199596399D01*
X124783489Y-199496569D01*
X124752301Y-199488212D01*
X124700987Y-199454888D01*
X124679060Y-199397766D01*
X124694896Y-199338666D01*
X124742160Y-199300271D01*
X124835019Y-199264298D01*
X125016302Y-199152052D01*
X125173872Y-199008407D01*
X125302366Y-198838255D01*
X125397405Y-198647389D01*
X125455756Y-198442310D01*
X125475429Y-198230000D01*
X125455756Y-198017690D01*
X125397405Y-197812611D01*
X125302366Y-197621745D01*
X125173872Y-197451593D01*
X125052882Y-197341295D01*
X125016307Y-197307952D01*
X125016300Y-197307946D01*
X124835024Y-197195705D01*
X124835019Y-197195702D01*
X124636198Y-197118679D01*
X124636197Y-197118678D01*
X124636195Y-197118678D01*
X124426610Y-197079500D01*
X124213390Y-197079500D01*
X124003804Y-197118678D01*
X123804980Y-197195702D01*
X123804975Y-197195705D01*
X123623699Y-197307946D01*
X123623692Y-197307952D01*
X123466135Y-197451586D01*
X123466131Y-197451589D01*
X123466128Y-197451593D01*
X123466125Y-197451597D01*
X123337635Y-197621743D01*
X123337630Y-197621752D01*
X123242596Y-197812608D01*
X123184244Y-198017688D01*
X123164571Y-198230000D01*
X123182593Y-198424498D01*
X123184244Y-198442310D01*
X123242595Y-198647389D01*
X123337634Y-198838255D01*
X123466128Y-199008407D01*
X123536734Y-199072773D01*
X123623692Y-199152047D01*
X123623699Y-199152053D01*
X123727389Y-199216255D01*
X123804981Y-199264298D01*
X123897839Y-199300271D01*
X123945269Y-199338921D01*
X123960923Y-199398070D01*
X123938820Y-199455124D01*
X123887699Y-199488211D01*
X123856512Y-199496567D01*
X123856505Y-199496570D01*
X123642432Y-199596394D01*
X123642424Y-199596398D01*
X123448926Y-199731886D01*
X123281886Y-199898926D01*
X123146398Y-200092424D01*
X123146394Y-200092432D01*
X123046570Y-200306505D01*
X123046569Y-200306507D01*
X123040040Y-200330873D01*
X123006715Y-200382186D01*
X122949593Y-200404111D01*
X122890493Y-200388274D01*
X122855793Y-200349374D01*
X122762372Y-200161756D01*
X122762369Y-200161751D01*
X122762366Y-200161745D01*
X122633872Y-199991593D01*
X122484786Y-199855682D01*
X122476307Y-199847952D01*
X122476300Y-199847946D01*
X122295024Y-199735705D01*
X122295019Y-199735702D01*
X122168790Y-199686801D01*
X122096198Y-199658679D01*
X122096197Y-199658678D01*
X122096195Y-199658678D01*
X121886610Y-199619500D01*
X121673390Y-199619500D01*
X121463804Y-199658678D01*
X121264980Y-199735702D01*
X121264975Y-199735705D01*
X121083699Y-199847946D01*
X121083692Y-199847952D01*
X120926135Y-199991586D01*
X120926131Y-199991589D01*
X120926128Y-199991593D01*
X120926125Y-199991597D01*
X120797635Y-200161743D01*
X120797630Y-200161752D01*
X120702596Y-200352608D01*
X120702595Y-200352611D01*
X120694180Y-200382186D01*
X120644244Y-200557688D01*
X120624572Y-200769993D01*
X120624571Y-200770000D01*
X120395429Y-200770000D01*
X120375756Y-200557690D01*
X120317405Y-200352611D01*
X120222366Y-200161745D01*
X120093872Y-199991593D01*
X119944786Y-199855682D01*
X119936307Y-199847952D01*
X119936300Y-199847946D01*
X119755024Y-199735705D01*
X119755019Y-199735702D01*
X119628790Y-199686801D01*
X119556198Y-199658679D01*
X119556197Y-199658678D01*
X119556195Y-199658678D01*
X119346610Y-199619500D01*
X119133390Y-199619500D01*
X118923804Y-199658678D01*
X118724980Y-199735702D01*
X118724975Y-199735705D01*
X118543699Y-199847946D01*
X118543692Y-199847952D01*
X118386135Y-199991586D01*
X118386131Y-199991589D01*
X118386128Y-199991593D01*
X118386125Y-199991597D01*
X118257635Y-200161743D01*
X118257630Y-200161752D01*
X118162596Y-200352608D01*
X118162595Y-200352611D01*
X118154180Y-200382186D01*
X118104244Y-200557688D01*
X118084572Y-200769993D01*
X118084571Y-200770000D01*
X117855429Y-200770000D01*
X117835756Y-200557690D01*
X117777405Y-200352611D01*
X117682366Y-200161745D01*
X117553872Y-199991593D01*
X117404786Y-199855682D01*
X117396307Y-199847952D01*
X117396300Y-199847946D01*
X117215024Y-199735705D01*
X117215019Y-199735702D01*
X117088790Y-199686801D01*
X117016198Y-199658679D01*
X117016197Y-199658678D01*
X117016195Y-199658678D01*
X116806610Y-199619500D01*
X116593390Y-199619500D01*
X116383804Y-199658678D01*
X116184980Y-199735702D01*
X116184975Y-199735705D01*
X116003699Y-199847946D01*
X116003692Y-199847952D01*
X115846135Y-199991586D01*
X115846131Y-199991589D01*
X115846128Y-199991593D01*
X115846125Y-199991597D01*
X115717635Y-200161743D01*
X115717630Y-200161752D01*
X115622596Y-200352608D01*
X115622595Y-200352611D01*
X115614180Y-200382186D01*
X115564244Y-200557688D01*
X115544572Y-200769993D01*
X115544571Y-200770000D01*
X107505304Y-200770000D01*
X107505304Y-200769993D01*
X107486103Y-200403607D01*
X107486101Y-200403586D01*
X107428706Y-200041211D01*
X107390581Y-199898926D01*
X107333742Y-199686801D01*
X107333739Y-199686793D01*
X107333735Y-199686780D01*
X107202256Y-199344266D01*
X107161510Y-199264298D01*
X107154224Y-199249999D01*
X108734318Y-199249999D01*
X108734318Y-199250000D01*
X108754955Y-199406758D01*
X108754957Y-199406766D01*
X108815462Y-199552838D01*
X108815462Y-199552839D01*
X108911713Y-199678276D01*
X108911718Y-199678282D01*
X109037159Y-199774536D01*
X109183238Y-199835044D01*
X109281285Y-199847952D01*
X109339999Y-199855682D01*
X109340000Y-199855682D01*
X109340001Y-199855682D01*
X109398715Y-199847952D01*
X109496762Y-199835044D01*
X109642841Y-199774536D01*
X109768282Y-199678282D01*
X109864536Y-199552841D01*
X109925044Y-199406762D01*
X109945682Y-199250000D01*
X109945682Y-199249999D01*
X110984318Y-199249999D01*
X110984318Y-199250000D01*
X111004955Y-199406758D01*
X111004957Y-199406766D01*
X111065462Y-199552838D01*
X111065462Y-199552839D01*
X111161713Y-199678276D01*
X111161718Y-199678282D01*
X111287159Y-199774536D01*
X111433238Y-199835044D01*
X111531285Y-199847952D01*
X111589999Y-199855682D01*
X111590000Y-199855682D01*
X111590001Y-199855682D01*
X111648715Y-199847952D01*
X111746762Y-199835044D01*
X111892841Y-199774536D01*
X112018282Y-199678282D01*
X112114536Y-199552841D01*
X112175044Y-199406762D01*
X112195682Y-199250000D01*
X112175044Y-199093238D01*
X112114537Y-198947161D01*
X112114537Y-198947160D01*
X112018286Y-198821723D01*
X112018285Y-198821722D01*
X112018282Y-198821718D01*
X112018277Y-198821714D01*
X112018276Y-198821713D01*
X111892838Y-198725462D01*
X111746766Y-198664957D01*
X111746758Y-198664955D01*
X111590001Y-198644318D01*
X111589999Y-198644318D01*
X111433241Y-198664955D01*
X111433233Y-198664957D01*
X111287161Y-198725462D01*
X111287160Y-198725462D01*
X111161723Y-198821713D01*
X111161713Y-198821723D01*
X111065462Y-198947160D01*
X111065462Y-198947161D01*
X111004957Y-199093233D01*
X111004955Y-199093241D01*
X110984318Y-199249999D01*
X109945682Y-199249999D01*
X109925044Y-199093238D01*
X109864537Y-198947161D01*
X109864537Y-198947160D01*
X109768286Y-198821723D01*
X109768285Y-198821722D01*
X109768282Y-198821718D01*
X109768277Y-198821714D01*
X109768276Y-198821713D01*
X109642838Y-198725462D01*
X109496766Y-198664957D01*
X109496758Y-198664955D01*
X109340001Y-198644318D01*
X109339999Y-198644318D01*
X109183241Y-198664955D01*
X109183233Y-198664957D01*
X109037161Y-198725462D01*
X109037160Y-198725462D01*
X108911723Y-198821713D01*
X108911713Y-198821723D01*
X108815462Y-198947160D01*
X108815462Y-198947161D01*
X108754957Y-199093233D01*
X108754955Y-199093241D01*
X108734318Y-199249999D01*
X107154224Y-199249999D01*
X107035682Y-199017348D01*
X106835851Y-198709634D01*
X106604949Y-198424494D01*
X106410455Y-198230000D01*
X115544571Y-198230000D01*
X115562593Y-198424498D01*
X115564244Y-198442310D01*
X115622595Y-198647389D01*
X115717634Y-198838255D01*
X115846128Y-199008407D01*
X115916734Y-199072773D01*
X116003692Y-199152047D01*
X116003699Y-199152053D01*
X116107389Y-199216255D01*
X116184981Y-199264298D01*
X116383802Y-199341321D01*
X116593390Y-199380500D01*
X116806610Y-199380500D01*
X117016198Y-199341321D01*
X117215019Y-199264298D01*
X117396302Y-199152052D01*
X117553872Y-199008407D01*
X117682366Y-198838255D01*
X117777405Y-198647389D01*
X117835756Y-198442310D01*
X117855429Y-198230000D01*
X118084571Y-198230000D01*
X118102593Y-198424498D01*
X118104244Y-198442310D01*
X118162595Y-198647389D01*
X118257634Y-198838255D01*
X118386128Y-199008407D01*
X118456734Y-199072773D01*
X118543692Y-199152047D01*
X118543699Y-199152053D01*
X118647389Y-199216255D01*
X118724981Y-199264298D01*
X118923802Y-199341321D01*
X119133390Y-199380500D01*
X119346610Y-199380500D01*
X119556198Y-199341321D01*
X119755019Y-199264298D01*
X119936302Y-199152052D01*
X120093872Y-199008407D01*
X120222366Y-198838255D01*
X120317405Y-198647389D01*
X120375756Y-198442310D01*
X120395429Y-198230000D01*
X120624571Y-198230000D01*
X120642593Y-198424498D01*
X120644244Y-198442310D01*
X120702595Y-198647389D01*
X120797634Y-198838255D01*
X120926128Y-199008407D01*
X120996734Y-199072773D01*
X121083692Y-199152047D01*
X121083699Y-199152053D01*
X121187389Y-199216255D01*
X121264981Y-199264298D01*
X121463802Y-199341321D01*
X121673390Y-199380500D01*
X121886610Y-199380500D01*
X122096198Y-199341321D01*
X122295019Y-199264298D01*
X122476302Y-199152052D01*
X122633872Y-199008407D01*
X122762366Y-198838255D01*
X122857405Y-198647389D01*
X122915756Y-198442310D01*
X122935429Y-198230000D01*
X122915756Y-198017690D01*
X122857405Y-197812611D01*
X122762366Y-197621745D01*
X122633872Y-197451593D01*
X122512882Y-197341295D01*
X122476307Y-197307952D01*
X122476300Y-197307946D01*
X122295024Y-197195705D01*
X122295019Y-197195702D01*
X122096198Y-197118679D01*
X122096197Y-197118678D01*
X122096195Y-197118678D01*
X121886610Y-197079500D01*
X121673390Y-197079500D01*
X121463804Y-197118678D01*
X121264980Y-197195702D01*
X121264975Y-197195705D01*
X121083699Y-197307946D01*
X121083692Y-197307952D01*
X120926135Y-197451586D01*
X120926131Y-197451589D01*
X120926128Y-197451593D01*
X120926125Y-197451597D01*
X120797635Y-197621743D01*
X120797630Y-197621752D01*
X120702596Y-197812608D01*
X120644244Y-198017688D01*
X120624571Y-198230000D01*
X120395429Y-198230000D01*
X120375756Y-198017690D01*
X120317405Y-197812611D01*
X120222366Y-197621745D01*
X120093872Y-197451593D01*
X119972882Y-197341295D01*
X119936307Y-197307952D01*
X119936300Y-197307946D01*
X119755024Y-197195705D01*
X119755019Y-197195702D01*
X119556198Y-197118679D01*
X119556197Y-197118678D01*
X119556195Y-197118678D01*
X119346610Y-197079500D01*
X119133390Y-197079500D01*
X118923804Y-197118678D01*
X118724980Y-197195702D01*
X118724975Y-197195705D01*
X118543699Y-197307946D01*
X118543692Y-197307952D01*
X118386135Y-197451586D01*
X118386131Y-197451589D01*
X118386128Y-197451593D01*
X118386125Y-197451597D01*
X118257635Y-197621743D01*
X118257630Y-197621752D01*
X118162596Y-197812608D01*
X118104244Y-198017688D01*
X118084571Y-198230000D01*
X117855429Y-198230000D01*
X117835756Y-198017690D01*
X117777405Y-197812611D01*
X117682366Y-197621745D01*
X117553872Y-197451593D01*
X117432882Y-197341295D01*
X117396307Y-197307952D01*
X117396300Y-197307946D01*
X117215024Y-197195705D01*
X117215019Y-197195702D01*
X117016198Y-197118679D01*
X117016197Y-197118678D01*
X117016195Y-197118678D01*
X116806610Y-197079500D01*
X116593390Y-197079500D01*
X116383804Y-197118678D01*
X116184980Y-197195702D01*
X116184975Y-197195705D01*
X116003699Y-197307946D01*
X116003692Y-197307952D01*
X115846135Y-197451586D01*
X115846131Y-197451589D01*
X115846128Y-197451593D01*
X115846125Y-197451597D01*
X115717635Y-197621743D01*
X115717630Y-197621752D01*
X115622596Y-197812608D01*
X115564244Y-198017688D01*
X115544571Y-198230000D01*
X106410455Y-198230000D01*
X106345506Y-198165051D01*
X106060366Y-197934149D01*
X105752652Y-197734318D01*
X105717287Y-197716298D01*
X105425733Y-197567743D01*
X105083219Y-197436264D01*
X105083196Y-197436257D01*
X104728788Y-197341293D01*
X104366413Y-197283898D01*
X104366392Y-197283896D01*
X104000006Y-197264696D01*
X103999994Y-197264696D01*
X103633607Y-197283896D01*
X103633586Y-197283898D01*
X103271211Y-197341293D01*
X102916803Y-197436257D01*
X102916780Y-197436264D01*
X102574266Y-197567743D01*
X102247353Y-197734315D01*
X102247349Y-197734317D01*
X102247348Y-197734318D01*
X102126787Y-197812611D01*
X101939631Y-197934151D01*
X101654498Y-198165047D01*
X101395047Y-198424498D01*
X101164151Y-198709631D01*
X101164149Y-198709634D01*
X100970121Y-199008413D01*
X100964315Y-199017353D01*
X100797743Y-199344266D01*
X100691924Y-199619936D01*
X100653419Y-199667486D01*
X100594319Y-199683322D01*
X100537197Y-199661395D01*
X100503873Y-199610081D01*
X100500500Y-199584458D01*
X100500500Y-196944999D01*
X109874318Y-196944999D01*
X109874318Y-196945000D01*
X109894955Y-197101758D01*
X109894957Y-197101766D01*
X109955462Y-197247838D01*
X109955462Y-197247839D01*
X110051713Y-197373276D01*
X110051718Y-197373282D01*
X110177159Y-197469536D01*
X110323238Y-197530044D01*
X110440809Y-197545522D01*
X110479999Y-197550682D01*
X110480000Y-197550682D01*
X110480001Y-197550682D01*
X110511352Y-197546554D01*
X110636762Y-197530044D01*
X110782841Y-197469536D01*
X110908282Y-197373282D01*
X111004536Y-197247841D01*
X111065044Y-197101762D01*
X111085682Y-196945000D01*
X111085682Y-196944999D01*
X112124318Y-196944999D01*
X112124318Y-196945000D01*
X112144955Y-197101758D01*
X112144957Y-197101766D01*
X112205462Y-197247838D01*
X112205462Y-197247839D01*
X112301713Y-197373276D01*
X112301718Y-197373282D01*
X112427159Y-197469536D01*
X112573238Y-197530044D01*
X112690809Y-197545522D01*
X112729999Y-197550682D01*
X112730000Y-197550682D01*
X112730001Y-197550682D01*
X112761352Y-197546554D01*
X112886762Y-197530044D01*
X113032841Y-197469536D01*
X113158282Y-197373282D01*
X113254536Y-197247841D01*
X113315044Y-197101762D01*
X113335682Y-196945000D01*
X113315044Y-196788238D01*
X113254537Y-196642161D01*
X113254537Y-196642160D01*
X113158286Y-196516723D01*
X113158285Y-196516722D01*
X113158282Y-196516718D01*
X113158277Y-196516714D01*
X113158276Y-196516713D01*
X113032838Y-196420462D01*
X112886766Y-196359957D01*
X112886758Y-196359955D01*
X112730001Y-196339318D01*
X112729999Y-196339318D01*
X112573241Y-196359955D01*
X112573233Y-196359957D01*
X112427161Y-196420462D01*
X112427160Y-196420462D01*
X112301723Y-196516713D01*
X112301713Y-196516723D01*
X112205462Y-196642160D01*
X112205462Y-196642161D01*
X112144957Y-196788233D01*
X112144955Y-196788241D01*
X112124318Y-196944999D01*
X111085682Y-196944999D01*
X111065044Y-196788238D01*
X111004537Y-196642161D01*
X111004537Y-196642160D01*
X110908286Y-196516723D01*
X110908285Y-196516722D01*
X110908282Y-196516718D01*
X110908277Y-196516714D01*
X110908276Y-196516713D01*
X110782838Y-196420462D01*
X110636766Y-196359957D01*
X110636758Y-196359955D01*
X110480001Y-196339318D01*
X110479999Y-196339318D01*
X110323241Y-196359955D01*
X110323233Y-196359957D01*
X110177161Y-196420462D01*
X110177160Y-196420462D01*
X110051723Y-196516713D01*
X110051713Y-196516723D01*
X109955462Y-196642160D01*
X109955462Y-196642161D01*
X109894957Y-196788233D01*
X109894955Y-196788241D01*
X109874318Y-196944999D01*
X100500500Y-196944999D01*
X100500500Y-195618594D01*
X101153500Y-195618594D01*
X101153500Y-195781405D01*
X101185262Y-195941080D01*
X101185262Y-195941082D01*
X101247563Y-196091492D01*
X101247563Y-196091493D01*
X101338015Y-196226862D01*
X101338016Y-196226863D01*
X101453137Y-196341984D01*
X101588505Y-196432435D01*
X101738919Y-196494738D01*
X101898597Y-196526500D01*
X101898598Y-196526500D01*
X102061402Y-196526500D01*
X102061403Y-196526500D01*
X102221081Y-196494738D01*
X102371495Y-196432435D01*
X102506863Y-196341984D01*
X102621984Y-196226863D01*
X102712435Y-196091495D01*
X102774738Y-195941081D01*
X102806500Y-195781403D01*
X102806500Y-195618597D01*
X102806499Y-195618594D01*
X198753500Y-195618594D01*
X198753500Y-195781405D01*
X198785262Y-195941080D01*
X198785262Y-195941082D01*
X198847563Y-196091492D01*
X198847563Y-196091493D01*
X198938015Y-196226862D01*
X198938016Y-196226863D01*
X199053137Y-196341984D01*
X199188505Y-196432435D01*
X199338919Y-196494738D01*
X199498597Y-196526500D01*
X199498598Y-196526500D01*
X199661402Y-196526500D01*
X199661403Y-196526500D01*
X199821081Y-196494738D01*
X199971495Y-196432435D01*
X200106863Y-196341984D01*
X200221984Y-196226863D01*
X200312435Y-196091495D01*
X200374738Y-195941081D01*
X200406500Y-195781403D01*
X200406500Y-195618597D01*
X200374738Y-195458919D01*
X200312436Y-195308507D01*
X200312436Y-195308506D01*
X200221984Y-195173137D01*
X200106862Y-195058015D01*
X199971492Y-194967563D01*
X199821081Y-194905262D01*
X199661405Y-194873500D01*
X199661403Y-194873500D01*
X199498597Y-194873500D01*
X199498594Y-194873500D01*
X199338919Y-194905262D01*
X199338917Y-194905262D01*
X199188507Y-194967563D01*
X199188506Y-194967563D01*
X199053137Y-195058015D01*
X198938015Y-195173137D01*
X198847563Y-195308506D01*
X198847563Y-195308507D01*
X198785262Y-195458917D01*
X198785262Y-195458919D01*
X198753500Y-195618594D01*
X102806499Y-195618594D01*
X102774738Y-195458919D01*
X102712436Y-195308507D01*
X102712436Y-195308506D01*
X102621984Y-195173137D01*
X102506862Y-195058015D01*
X102371492Y-194967563D01*
X102221081Y-194905262D01*
X102061405Y-194873500D01*
X102061403Y-194873500D01*
X101898597Y-194873500D01*
X101898594Y-194873500D01*
X101738919Y-194905262D01*
X101738917Y-194905262D01*
X101588507Y-194967563D01*
X101588506Y-194967563D01*
X101453137Y-195058015D01*
X101338015Y-195173137D01*
X101247563Y-195308506D01*
X101247563Y-195308507D01*
X101185262Y-195458917D01*
X101185262Y-195458919D01*
X101153500Y-195618594D01*
X100500500Y-195618594D01*
X100500500Y-193999999D01*
X122874318Y-193999999D01*
X122874318Y-194000000D01*
X122894955Y-194156758D01*
X122894957Y-194156766D01*
X122955462Y-194302838D01*
X122955462Y-194302839D01*
X122955464Y-194302841D01*
X123051718Y-194428282D01*
X123177159Y-194524536D01*
X123323238Y-194585044D01*
X123440809Y-194600522D01*
X123479999Y-194605682D01*
X123480000Y-194605682D01*
X123480001Y-194605682D01*
X123511352Y-194601554D01*
X123636762Y-194585044D01*
X123782841Y-194524536D01*
X123908282Y-194428282D01*
X124004536Y-194302841D01*
X124065044Y-194156762D01*
X124085682Y-194000000D01*
X124065044Y-193843238D01*
X124004537Y-193697161D01*
X124004537Y-193697160D01*
X123908286Y-193571723D01*
X123908285Y-193571722D01*
X123908282Y-193571718D01*
X123908277Y-193571714D01*
X123908276Y-193571713D01*
X123782838Y-193475462D01*
X123636766Y-193414957D01*
X123636758Y-193414955D01*
X123480001Y-193394318D01*
X123479999Y-193394318D01*
X123323241Y-193414955D01*
X123323233Y-193414957D01*
X123177161Y-193475462D01*
X123177160Y-193475462D01*
X123051723Y-193571713D01*
X123051713Y-193571723D01*
X122955462Y-193697160D01*
X122955462Y-193697161D01*
X122894957Y-193843233D01*
X122894955Y-193843241D01*
X122874318Y-193999999D01*
X100500500Y-193999999D01*
X100500500Y-193249999D01*
X116124318Y-193249999D01*
X116124318Y-193250000D01*
X116144955Y-193406758D01*
X116144957Y-193406766D01*
X116205462Y-193552838D01*
X116205462Y-193552839D01*
X116285202Y-193656758D01*
X116301718Y-193678282D01*
X116427159Y-193774536D01*
X116573238Y-193835044D01*
X116690809Y-193850522D01*
X116729999Y-193855682D01*
X116730000Y-193855682D01*
X116730001Y-193855682D01*
X116761352Y-193851554D01*
X116886762Y-193835044D01*
X117032841Y-193774536D01*
X117158282Y-193678282D01*
X117254536Y-193552841D01*
X117315044Y-193406762D01*
X117335682Y-193250000D01*
X117335682Y-193249999D01*
X133874318Y-193249999D01*
X133874318Y-193250000D01*
X133894955Y-193406758D01*
X133894957Y-193406766D01*
X133955462Y-193552838D01*
X133955462Y-193552839D01*
X134035202Y-193656758D01*
X134051718Y-193678282D01*
X134177159Y-193774536D01*
X134323238Y-193835044D01*
X134440809Y-193850522D01*
X134479999Y-193855682D01*
X134480000Y-193855682D01*
X134480001Y-193855682D01*
X134511352Y-193851554D01*
X134636762Y-193835044D01*
X134782841Y-193774536D01*
X134908282Y-193678282D01*
X135004536Y-193552841D01*
X135026424Y-193499999D01*
X152674318Y-193499999D01*
X152674318Y-193500000D01*
X152694955Y-193656758D01*
X152694957Y-193656766D01*
X152755462Y-193802838D01*
X152755462Y-193802839D01*
X152796010Y-193855682D01*
X152851718Y-193928282D01*
X152977159Y-194024536D01*
X153123238Y-194085044D01*
X153240809Y-194100522D01*
X153279999Y-194105682D01*
X153280000Y-194105682D01*
X153280001Y-194105682D01*
X153311352Y-194101554D01*
X153436762Y-194085044D01*
X153582841Y-194024536D01*
X153708282Y-193928282D01*
X153804536Y-193802841D01*
X153865044Y-193656762D01*
X153885682Y-193500000D01*
X153885682Y-193499999D01*
X156174318Y-193499999D01*
X156174318Y-193500000D01*
X156194955Y-193656758D01*
X156194957Y-193656766D01*
X156255462Y-193802838D01*
X156255462Y-193802839D01*
X156296010Y-193855682D01*
X156351718Y-193928282D01*
X156477159Y-194024536D01*
X156623238Y-194085044D01*
X156740809Y-194100522D01*
X156779999Y-194105682D01*
X156780000Y-194105682D01*
X156780001Y-194105682D01*
X156811352Y-194101554D01*
X156936762Y-194085044D01*
X157082841Y-194024536D01*
X157208282Y-193928282D01*
X157304536Y-193802841D01*
X157365044Y-193656762D01*
X157385682Y-193500000D01*
X157365044Y-193343238D01*
X157336587Y-193274536D01*
X157304537Y-193197161D01*
X157304537Y-193197160D01*
X157208286Y-193071723D01*
X157208285Y-193071722D01*
X157208282Y-193071718D01*
X157208277Y-193071714D01*
X157208276Y-193071713D01*
X157082838Y-192975462D01*
X156936766Y-192914957D01*
X156936758Y-192914955D01*
X156780001Y-192894318D01*
X156779999Y-192894318D01*
X156623241Y-192914955D01*
X156623233Y-192914957D01*
X156477161Y-192975462D01*
X156477160Y-192975462D01*
X156351723Y-193071713D01*
X156351713Y-193071723D01*
X156255462Y-193197160D01*
X156255462Y-193197161D01*
X156194957Y-193343233D01*
X156194955Y-193343241D01*
X156174318Y-193499999D01*
X153885682Y-193499999D01*
X153865044Y-193343238D01*
X153836587Y-193274536D01*
X153804537Y-193197161D01*
X153804537Y-193197160D01*
X153708286Y-193071723D01*
X153708285Y-193071722D01*
X153708282Y-193071718D01*
X153708277Y-193071714D01*
X153708276Y-193071713D01*
X153582838Y-192975462D01*
X153436766Y-192914957D01*
X153436758Y-192914955D01*
X153280001Y-192894318D01*
X153279999Y-192894318D01*
X153123241Y-192914955D01*
X153123233Y-192914957D01*
X152977161Y-192975462D01*
X152977160Y-192975462D01*
X152851723Y-193071713D01*
X152851713Y-193071723D01*
X152755462Y-193197160D01*
X152755462Y-193197161D01*
X152694957Y-193343233D01*
X152694955Y-193343241D01*
X152674318Y-193499999D01*
X135026424Y-193499999D01*
X135065044Y-193406762D01*
X135085682Y-193250000D01*
X135065044Y-193093238D01*
X135004537Y-192947161D01*
X135004537Y-192947160D01*
X134908286Y-192821723D01*
X134908285Y-192821722D01*
X134908282Y-192821718D01*
X134908277Y-192821714D01*
X134908276Y-192821713D01*
X134782838Y-192725462D01*
X134636766Y-192664957D01*
X134636758Y-192664955D01*
X134480001Y-192644318D01*
X134479999Y-192644318D01*
X134323241Y-192664955D01*
X134323233Y-192664957D01*
X134177161Y-192725462D01*
X134177160Y-192725462D01*
X134051723Y-192821713D01*
X134051713Y-192821723D01*
X133955462Y-192947160D01*
X133955462Y-192947161D01*
X133894957Y-193093233D01*
X133894955Y-193093241D01*
X133874318Y-193249999D01*
X117335682Y-193249999D01*
X117315044Y-193093238D01*
X117254537Y-192947161D01*
X117254537Y-192947160D01*
X117158286Y-192821723D01*
X117158285Y-192821722D01*
X117158282Y-192821718D01*
X117158277Y-192821714D01*
X117158276Y-192821713D01*
X117032838Y-192725462D01*
X116886766Y-192664957D01*
X116886758Y-192664955D01*
X116730001Y-192644318D01*
X116729999Y-192644318D01*
X116573241Y-192664955D01*
X116573233Y-192664957D01*
X116427161Y-192725462D01*
X116427160Y-192725462D01*
X116301723Y-192821713D01*
X116301713Y-192821723D01*
X116205462Y-192947160D01*
X116205462Y-192947161D01*
X116144957Y-193093233D01*
X116144955Y-193093241D01*
X116124318Y-193249999D01*
X100500500Y-193249999D01*
X100500500Y-192147824D01*
X101129999Y-192147824D01*
X101136401Y-192207370D01*
X101136403Y-192207381D01*
X101186646Y-192342088D01*
X101186647Y-192342090D01*
X101272807Y-192457184D01*
X101272815Y-192457192D01*
X101387909Y-192543352D01*
X101387911Y-192543353D01*
X101522618Y-192593596D01*
X101522629Y-192593598D01*
X101582176Y-192600000D01*
X102229999Y-192600000D01*
X102230000Y-192599999D01*
X102230000Y-191683012D01*
X102287007Y-191715925D01*
X102414174Y-191750000D01*
X102545826Y-191750000D01*
X102672993Y-191715925D01*
X102730000Y-191683012D01*
X102730000Y-192599999D01*
X102730001Y-192600000D01*
X103377824Y-192600000D01*
X103437370Y-192593598D01*
X103437381Y-192593596D01*
X103572088Y-192543353D01*
X103572090Y-192543352D01*
X103687184Y-192457192D01*
X103687192Y-192457184D01*
X103773352Y-192342090D01*
X103773353Y-192342088D01*
X103823596Y-192207381D01*
X103823598Y-192207370D01*
X103825222Y-192192269D01*
X103850241Y-192136432D01*
X103903301Y-192105965D01*
X103964136Y-192112504D01*
X103993659Y-192132846D01*
X104148926Y-192288113D01*
X104342422Y-192423600D01*
X104556509Y-192523430D01*
X104770000Y-192580634D01*
X104770000Y-191683012D01*
X104827007Y-191715925D01*
X104954174Y-191750000D01*
X105085826Y-191750000D01*
X105212993Y-191715925D01*
X105270000Y-191683012D01*
X105270000Y-192580633D01*
X105483490Y-192523430D01*
X105697577Y-192423600D01*
X105891073Y-192288113D01*
X106058113Y-192121073D01*
X106193600Y-191927577D01*
X106293430Y-191713489D01*
X106350636Y-191500000D01*
X105453012Y-191500000D01*
X105485925Y-191442993D01*
X105520000Y-191315826D01*
X105520000Y-191184174D01*
X105485925Y-191057007D01*
X105453012Y-191000000D01*
X106350636Y-191000000D01*
X137124318Y-191000000D01*
X137144956Y-191156762D01*
X137205464Y-191302841D01*
X137214590Y-191314735D01*
X137235013Y-191372409D01*
X137217635Y-191431075D01*
X137214608Y-191435241D01*
X137205464Y-191447159D01*
X137205463Y-191447160D01*
X137205463Y-191447161D01*
X137144957Y-191593236D01*
X137144955Y-191593241D01*
X137128804Y-191715925D01*
X137124318Y-191750000D01*
X137144956Y-191906762D01*
X137205464Y-192052841D01*
X137214590Y-192064735D01*
X137235013Y-192122409D01*
X137217635Y-192181075D01*
X137214608Y-192185241D01*
X137205464Y-192197159D01*
X137145433Y-192342088D01*
X137144957Y-192343236D01*
X137144955Y-192343241D01*
X137124318Y-192499999D01*
X137124318Y-192500000D01*
X137144955Y-192656758D01*
X137144957Y-192656766D01*
X137205462Y-192802838D01*
X137205462Y-192802839D01*
X137291493Y-192914957D01*
X137301718Y-192928282D01*
X137427159Y-193024536D01*
X137573238Y-193085044D01*
X137690809Y-193100522D01*
X137729999Y-193105682D01*
X137730000Y-193105682D01*
X137730001Y-193105682D01*
X137761352Y-193101554D01*
X137886762Y-193085044D01*
X138032841Y-193024536D01*
X138158282Y-192928282D01*
X138254536Y-192802841D01*
X138276424Y-192749999D01*
X151124318Y-192749999D01*
X151124318Y-192750000D01*
X151144955Y-192906758D01*
X151144957Y-192906766D01*
X151205462Y-193052838D01*
X151205462Y-193052839D01*
X151246010Y-193105682D01*
X151301718Y-193178282D01*
X151427159Y-193274536D01*
X151573238Y-193335044D01*
X151690809Y-193350522D01*
X151729999Y-193355682D01*
X151730000Y-193355682D01*
X151730001Y-193355682D01*
X151761352Y-193351554D01*
X151886762Y-193335044D01*
X152032841Y-193274536D01*
X152158282Y-193178282D01*
X152254536Y-193052841D01*
X152315044Y-192906762D01*
X152335682Y-192750000D01*
X152315044Y-192593238D01*
X152286129Y-192523430D01*
X152254537Y-192447161D01*
X152254537Y-192447160D01*
X152158286Y-192321723D01*
X152158285Y-192321722D01*
X152158282Y-192321718D01*
X152158277Y-192321714D01*
X152158276Y-192321713D01*
X152032838Y-192225462D01*
X151886766Y-192164957D01*
X151886758Y-192164955D01*
X151730001Y-192144318D01*
X151729999Y-192144318D01*
X151573241Y-192164955D01*
X151573233Y-192164957D01*
X151427161Y-192225462D01*
X151427160Y-192225462D01*
X151301723Y-192321713D01*
X151301713Y-192321723D01*
X151205462Y-192447160D01*
X151205462Y-192447161D01*
X151144957Y-192593233D01*
X151144955Y-192593241D01*
X151124318Y-192749999D01*
X138276424Y-192749999D01*
X138315044Y-192656762D01*
X138335682Y-192500000D01*
X138315044Y-192343238D01*
X138315042Y-192343233D01*
X138254537Y-192197161D01*
X138254537Y-192197160D01*
X138245412Y-192185269D01*
X138224987Y-192127593D01*
X138242363Y-192068927D01*
X138245412Y-192064731D01*
X138254536Y-192052841D01*
X138315044Y-191906762D01*
X138335682Y-191750000D01*
X138315044Y-191593238D01*
X138276424Y-191500001D01*
X138254537Y-191447161D01*
X138254537Y-191447160D01*
X138245412Y-191435269D01*
X138224987Y-191377593D01*
X138242363Y-191318927D01*
X138245412Y-191314731D01*
X138254536Y-191302841D01*
X138315044Y-191156762D01*
X138335682Y-191000000D01*
X138315044Y-190843238D01*
X138290538Y-190784075D01*
X138254537Y-190697161D01*
X138254537Y-190697160D01*
X138158286Y-190571723D01*
X138158285Y-190571722D01*
X138158282Y-190571718D01*
X138158277Y-190571714D01*
X138158276Y-190571713D01*
X138032838Y-190475462D01*
X137886766Y-190414957D01*
X137886758Y-190414955D01*
X137730001Y-190394318D01*
X137729999Y-190394318D01*
X137573241Y-190414955D01*
X137573233Y-190414957D01*
X137427161Y-190475462D01*
X137427160Y-190475462D01*
X137301723Y-190571713D01*
X137301713Y-190571723D01*
X137205462Y-190697160D01*
X137205462Y-190697161D01*
X137144957Y-190843233D01*
X137144955Y-190843241D01*
X137133759Y-190928286D01*
X137124318Y-191000000D01*
X106350636Y-191000000D01*
X106293429Y-190786505D01*
X106193605Y-190572432D01*
X106193601Y-190572424D01*
X106058113Y-190378926D01*
X105891073Y-190211886D01*
X105765934Y-190124263D01*
X154598583Y-190124263D01*
X154598583Y-190124264D01*
X154619220Y-190281022D01*
X154619222Y-190281030D01*
X154679727Y-190427102D01*
X154679727Y-190427103D01*
X154716836Y-190475464D01*
X154775983Y-190552546D01*
X154775987Y-190552549D01*
X154775988Y-190552550D01*
X154800975Y-190571723D01*
X154901424Y-190648800D01*
X154901425Y-190648800D01*
X154901426Y-190648801D01*
X155047498Y-190709306D01*
X155047503Y-190709308D01*
X155165074Y-190724786D01*
X155204264Y-190729946D01*
X155204265Y-190729946D01*
X155204266Y-190729946D01*
X155235617Y-190725818D01*
X155361027Y-190709308D01*
X155507106Y-190648800D01*
X155632547Y-190552546D01*
X155672868Y-190499999D01*
X157874318Y-190499999D01*
X157874318Y-190500000D01*
X157894955Y-190656758D01*
X157894957Y-190656766D01*
X157955462Y-190802838D01*
X157955462Y-190802839D01*
X157991574Y-190849901D01*
X158051718Y-190928282D01*
X158177159Y-191024536D01*
X158323238Y-191085044D01*
X158440809Y-191100522D01*
X158479999Y-191105682D01*
X158480000Y-191105682D01*
X158480001Y-191105682D01*
X158511352Y-191101554D01*
X158636762Y-191085044D01*
X158782841Y-191024536D01*
X158908282Y-190928282D01*
X159004536Y-190802841D01*
X159065044Y-190656762D01*
X159085682Y-190500000D01*
X159065044Y-190343238D01*
X159064570Y-190342094D01*
X159004537Y-190197161D01*
X159004537Y-190197160D01*
X158908286Y-190071723D01*
X158908285Y-190071722D01*
X158908282Y-190071718D01*
X158908277Y-190071714D01*
X158908276Y-190071713D01*
X158782838Y-189975462D01*
X158636766Y-189914957D01*
X158636758Y-189914955D01*
X158480001Y-189894318D01*
X158479999Y-189894318D01*
X158323241Y-189914955D01*
X158323233Y-189914957D01*
X158177161Y-189975462D01*
X158177160Y-189975462D01*
X158051723Y-190071713D01*
X158051713Y-190071723D01*
X157955462Y-190197160D01*
X157955462Y-190197161D01*
X157894957Y-190343233D01*
X157894955Y-190343241D01*
X157874318Y-190499999D01*
X155672868Y-190499999D01*
X155728801Y-190427105D01*
X155789309Y-190281026D01*
X155809947Y-190124264D01*
X155789309Y-189967502D01*
X155728802Y-189821425D01*
X155728802Y-189821424D01*
X155632551Y-189695987D01*
X155632550Y-189695986D01*
X155632547Y-189695982D01*
X155632542Y-189695978D01*
X155632541Y-189695977D01*
X155507103Y-189599726D01*
X155361031Y-189539221D01*
X155361023Y-189539219D01*
X155204266Y-189518582D01*
X155204264Y-189518582D01*
X155047506Y-189539219D01*
X155047498Y-189539221D01*
X154901426Y-189599726D01*
X154901425Y-189599726D01*
X154775988Y-189695977D01*
X154775978Y-189695987D01*
X154679727Y-189821424D01*
X154679727Y-189821425D01*
X154619222Y-189967497D01*
X154619220Y-189967505D01*
X154598583Y-190124263D01*
X105765934Y-190124263D01*
X105697577Y-190076399D01*
X105483489Y-189976569D01*
X105270000Y-189919364D01*
X105270000Y-190816988D01*
X105212993Y-190784075D01*
X105085826Y-190750000D01*
X104954174Y-190750000D01*
X104827007Y-190784075D01*
X104770000Y-190816988D01*
X104770000Y-189919364D01*
X104556505Y-189976570D01*
X104342432Y-190076394D01*
X104342424Y-190076398D01*
X104148925Y-190211887D01*
X104148921Y-190211890D01*
X103993658Y-190367153D01*
X103939142Y-190394930D01*
X103878710Y-190385359D01*
X103835445Y-190342094D01*
X103825222Y-190307731D01*
X103823598Y-190292629D01*
X103823596Y-190292618D01*
X103773353Y-190157911D01*
X103773352Y-190157909D01*
X103687192Y-190042815D01*
X103687184Y-190042807D01*
X103572090Y-189956647D01*
X103572088Y-189956646D01*
X103437381Y-189906403D01*
X103437370Y-189906401D01*
X103377824Y-189900000D01*
X102730001Y-189900000D01*
X102730000Y-189900001D01*
X102730000Y-190816988D01*
X102672993Y-190784075D01*
X102545826Y-190750000D01*
X102414174Y-190750000D01*
X102287007Y-190784075D01*
X102230000Y-190816988D01*
X102230000Y-189900001D01*
X102229999Y-189900000D01*
X101582176Y-189900000D01*
X101522629Y-189906401D01*
X101522618Y-189906403D01*
X101387911Y-189956646D01*
X101387909Y-189956647D01*
X101272815Y-190042807D01*
X101272807Y-190042815D01*
X101186647Y-190157909D01*
X101186646Y-190157911D01*
X101136403Y-190292618D01*
X101136401Y-190292629D01*
X101130000Y-190352175D01*
X101130000Y-190999999D01*
X101130001Y-191000000D01*
X102046988Y-191000000D01*
X102014075Y-191057007D01*
X101980000Y-191184174D01*
X101980000Y-191315826D01*
X102014075Y-191442993D01*
X102046988Y-191500000D01*
X101130001Y-191500000D01*
X101130000Y-191500001D01*
X101130000Y-192147824D01*
X101129999Y-192147824D01*
X100500500Y-192147824D01*
X100500500Y-187749999D01*
X125374318Y-187749999D01*
X125374318Y-187750000D01*
X125394955Y-187906758D01*
X125394957Y-187906766D01*
X125455462Y-188052838D01*
X125455462Y-188052839D01*
X125518301Y-188134733D01*
X125538725Y-188192409D01*
X125521347Y-188251075D01*
X125518301Y-188255267D01*
X125455462Y-188337160D01*
X125455462Y-188337161D01*
X125394957Y-188483233D01*
X125394955Y-188483241D01*
X125374318Y-188639999D01*
X125374318Y-188640000D01*
X125394955Y-188796758D01*
X125394957Y-188796766D01*
X125455462Y-188942838D01*
X125455462Y-188942839D01*
X125455464Y-188942841D01*
X125551718Y-189068282D01*
X125677159Y-189164536D01*
X125823238Y-189225044D01*
X125940809Y-189240522D01*
X125979999Y-189245682D01*
X125980000Y-189245682D01*
X125980001Y-189245682D01*
X126011352Y-189241554D01*
X126136762Y-189225044D01*
X126282841Y-189164536D01*
X126408282Y-189068282D01*
X126504536Y-188942841D01*
X126565044Y-188796762D01*
X126585682Y-188640000D01*
X126565044Y-188483238D01*
X126504536Y-188337159D01*
X126441697Y-188255266D01*
X126421274Y-188197591D01*
X126438652Y-188138926D01*
X126441698Y-188134733D01*
X126504536Y-188052841D01*
X126565044Y-187906762D01*
X126585682Y-187750000D01*
X126565044Y-187593238D01*
X126504537Y-187447161D01*
X126504537Y-187447160D01*
X126408286Y-187321723D01*
X126408285Y-187321722D01*
X126408282Y-187321718D01*
X126408277Y-187321714D01*
X126408276Y-187321713D01*
X126282838Y-187225462D01*
X126136766Y-187164957D01*
X126136758Y-187164955D01*
X125980001Y-187144318D01*
X125979999Y-187144318D01*
X125823241Y-187164955D01*
X125823233Y-187164957D01*
X125677161Y-187225462D01*
X125677160Y-187225462D01*
X125551723Y-187321713D01*
X125551713Y-187321723D01*
X125455462Y-187447160D01*
X125455462Y-187447161D01*
X125394957Y-187593233D01*
X125394955Y-187593241D01*
X125374318Y-187749999D01*
X100500500Y-187749999D01*
X100500500Y-181040000D01*
X113274364Y-181040000D01*
X114171988Y-181040000D01*
X114139075Y-181097007D01*
X114105000Y-181224174D01*
X114105000Y-181355826D01*
X114139075Y-181482993D01*
X114171988Y-181540000D01*
X113274364Y-181540000D01*
X113331569Y-181753489D01*
X113431399Y-181967577D01*
X113566886Y-182161073D01*
X113733926Y-182328113D01*
X113927423Y-182463601D01*
X113927425Y-182463602D01*
X113985699Y-182490775D01*
X114030448Y-182532503D01*
X114042123Y-182592564D01*
X114016266Y-182648017D01*
X113962752Y-182677681D01*
X113943861Y-182679500D01*
X113710139Y-182679500D01*
X113710136Y-182679501D01*
X113685009Y-182682414D01*
X113582235Y-182727794D01*
X113502794Y-182807235D01*
X113457414Y-182910011D01*
X113454500Y-182935130D01*
X113454500Y-184724860D01*
X113454501Y-184724863D01*
X113457414Y-184749990D01*
X113482756Y-184807385D01*
X113502794Y-184852765D01*
X113582235Y-184932206D01*
X113685009Y-184977585D01*
X113710135Y-184980500D01*
X115499864Y-184980499D01*
X115524991Y-184977585D01*
X115627765Y-184932206D01*
X115707206Y-184852765D01*
X115752585Y-184749991D01*
X115755500Y-184724865D01*
X115755499Y-183549999D01*
X119984318Y-183549999D01*
X119984318Y-183550000D01*
X120004955Y-183706758D01*
X120004957Y-183706766D01*
X120065462Y-183852838D01*
X120065462Y-183852839D01*
X120134830Y-183943241D01*
X120161718Y-183978282D01*
X120287159Y-184074536D01*
X120322991Y-184089378D01*
X120369517Y-184129113D01*
X120383259Y-184167919D01*
X120394956Y-184256762D01*
X120455462Y-184402838D01*
X120455462Y-184402839D01*
X120551713Y-184528276D01*
X120551718Y-184528282D01*
X120677159Y-184624536D01*
X120677160Y-184624536D01*
X120677161Y-184624537D01*
X120752352Y-184655682D01*
X120823238Y-184685044D01*
X120940809Y-184700522D01*
X120979999Y-184705682D01*
X120980000Y-184705682D01*
X120980001Y-184705682D01*
X121011352Y-184701554D01*
X121136762Y-184685044D01*
X121282841Y-184624536D01*
X121408282Y-184528282D01*
X121504536Y-184402841D01*
X121565044Y-184256762D01*
X121585682Y-184100000D01*
X121584283Y-184089377D01*
X121579099Y-184049999D01*
X122124318Y-184049999D01*
X122124318Y-184050000D01*
X122144955Y-184206758D01*
X122144957Y-184206766D01*
X122205462Y-184352838D01*
X122205462Y-184352839D01*
X122243830Y-184402841D01*
X122301718Y-184478282D01*
X122427159Y-184574536D01*
X122573238Y-184635044D01*
X122690809Y-184650522D01*
X122729999Y-184655682D01*
X122730000Y-184655682D01*
X122730001Y-184655682D01*
X122761352Y-184651554D01*
X122886762Y-184635044D01*
X123032841Y-184574536D01*
X123158282Y-184478282D01*
X123254536Y-184352841D01*
X123315044Y-184206762D01*
X123335682Y-184050000D01*
X123315044Y-183893238D01*
X123254537Y-183747161D01*
X123254537Y-183747160D01*
X123158286Y-183621723D01*
X123158285Y-183621722D01*
X123158282Y-183621718D01*
X123158277Y-183621714D01*
X123158276Y-183621713D01*
X123043570Y-183533697D01*
X123032841Y-183525464D01*
X123032840Y-183525463D01*
X123032838Y-183525462D01*
X122886766Y-183464957D01*
X122886758Y-183464955D01*
X122730001Y-183444318D01*
X122729999Y-183444318D01*
X122573241Y-183464955D01*
X122573233Y-183464957D01*
X122427161Y-183525462D01*
X122427160Y-183525462D01*
X122301723Y-183621713D01*
X122301713Y-183621723D01*
X122205462Y-183747160D01*
X122205462Y-183747161D01*
X122144957Y-183893233D01*
X122144955Y-183893241D01*
X122124318Y-184049999D01*
X121579099Y-184049999D01*
X121569658Y-183978286D01*
X121565044Y-183943238D01*
X121527600Y-183852841D01*
X121504537Y-183797161D01*
X121504537Y-183797160D01*
X121408286Y-183671723D01*
X121408285Y-183671722D01*
X121408282Y-183671718D01*
X121408277Y-183671714D01*
X121408276Y-183671713D01*
X121282842Y-183575464D01*
X121282840Y-183575463D01*
X121247006Y-183560620D01*
X121200480Y-183520883D01*
X121186739Y-183482077D01*
X121184485Y-183464957D01*
X121175044Y-183393238D01*
X121175042Y-183393233D01*
X121114537Y-183247161D01*
X121114537Y-183247160D01*
X121018286Y-183121723D01*
X121018285Y-183121722D01*
X121018282Y-183121718D01*
X121018277Y-183121714D01*
X121018276Y-183121713D01*
X120892838Y-183025462D01*
X120746766Y-182964957D01*
X120746758Y-182964955D01*
X120590001Y-182944318D01*
X120589999Y-182944318D01*
X120433241Y-182964955D01*
X120433233Y-182964957D01*
X120287161Y-183025462D01*
X120287160Y-183025462D01*
X120161723Y-183121713D01*
X120161713Y-183121723D01*
X120065462Y-183247160D01*
X120065462Y-183247161D01*
X120004957Y-183393233D01*
X120004955Y-183393241D01*
X119984318Y-183549999D01*
X115755499Y-183549999D01*
X115755499Y-182935136D01*
X115752585Y-182910009D01*
X115707206Y-182807235D01*
X115627765Y-182727794D01*
X115524991Y-182682415D01*
X115524990Y-182682414D01*
X115524988Y-182682414D01*
X115499869Y-182679500D01*
X115266140Y-182679500D01*
X115207949Y-182660593D01*
X115171985Y-182611093D01*
X115171985Y-182549907D01*
X115207949Y-182500407D01*
X115224301Y-182490775D01*
X115282577Y-182463600D01*
X115476073Y-182328113D01*
X115643113Y-182161073D01*
X115778600Y-181967577D01*
X115878430Y-181753489D01*
X115935636Y-181540000D01*
X115038012Y-181540000D01*
X115070925Y-181482993D01*
X115105000Y-181355826D01*
X115105000Y-181224174D01*
X115077756Y-181122501D01*
X119774311Y-181122501D01*
X119774311Y-181122502D01*
X119794948Y-181279260D01*
X119794950Y-181279268D01*
X119855455Y-181425340D01*
X119855455Y-181425341D01*
X119943436Y-181540000D01*
X119951711Y-181550784D01*
X119951715Y-181550787D01*
X119951716Y-181550788D01*
X120016180Y-181600253D01*
X120050836Y-181650677D01*
X120049235Y-181711842D01*
X120047377Y-181716680D01*
X119994957Y-181843232D01*
X119994955Y-181843241D01*
X119974318Y-181999999D01*
X119974318Y-182000000D01*
X119994955Y-182156758D01*
X119994957Y-182156766D01*
X120055462Y-182302838D01*
X120055462Y-182302839D01*
X120132194Y-182402838D01*
X120151718Y-182428282D01*
X120277159Y-182524536D01*
X120277160Y-182524536D01*
X120277161Y-182524537D01*
X120338410Y-182549907D01*
X120423238Y-182585044D01*
X120536841Y-182600000D01*
X120579999Y-182605682D01*
X120580000Y-182605682D01*
X120580001Y-182605682D01*
X120623159Y-182600000D01*
X120736762Y-182585044D01*
X120882841Y-182524536D01*
X121008282Y-182428282D01*
X121104536Y-182302841D01*
X121165044Y-182156762D01*
X121172517Y-182099999D01*
X140174318Y-182099999D01*
X140174318Y-182100000D01*
X140194955Y-182256758D01*
X140194957Y-182256766D01*
X140255462Y-182402838D01*
X140255462Y-182402839D01*
X140351719Y-182528284D01*
X140353437Y-182530002D01*
X140354225Y-182531550D01*
X140355668Y-182533430D01*
X140355319Y-182533697D01*
X140381210Y-182584521D01*
X140371634Y-182644952D01*
X140353437Y-182669998D01*
X140351719Y-182671715D01*
X140255462Y-182797160D01*
X140255462Y-182797161D01*
X140194957Y-182943233D01*
X140194955Y-182943241D01*
X140174318Y-183099999D01*
X140174318Y-183100000D01*
X140194955Y-183256758D01*
X140194957Y-183256766D01*
X140255462Y-183402838D01*
X140255462Y-183402839D01*
X140351719Y-183528284D01*
X140353437Y-183530002D01*
X140354225Y-183531550D01*
X140355668Y-183533430D01*
X140355319Y-183533697D01*
X140381210Y-183584521D01*
X140371634Y-183644952D01*
X140353437Y-183669998D01*
X140351719Y-183671715D01*
X140255462Y-183797160D01*
X140255462Y-183797161D01*
X140194957Y-183943233D01*
X140194955Y-183943241D01*
X140174318Y-184099999D01*
X140174318Y-184100000D01*
X140194955Y-184256758D01*
X140194957Y-184256766D01*
X140255462Y-184402838D01*
X140255462Y-184402839D01*
X140351713Y-184528276D01*
X140351718Y-184528282D01*
X140477159Y-184624536D01*
X140477160Y-184624536D01*
X140477161Y-184624537D01*
X140552352Y-184655682D01*
X140623238Y-184685044D01*
X140740809Y-184700522D01*
X140779999Y-184705682D01*
X140780000Y-184705682D01*
X140780001Y-184705682D01*
X140811352Y-184701554D01*
X140936762Y-184685044D01*
X141082841Y-184624536D01*
X141208282Y-184528282D01*
X141304536Y-184402841D01*
X141365044Y-184256762D01*
X141385682Y-184100000D01*
X141384283Y-184089377D01*
X141369658Y-183978286D01*
X141365044Y-183943238D01*
X141327600Y-183852841D01*
X141304537Y-183797161D01*
X141304537Y-183797160D01*
X141208286Y-183671723D01*
X141208285Y-183671722D01*
X141208282Y-183671718D01*
X141208277Y-183671714D01*
X141206567Y-183670004D01*
X141205776Y-183668452D01*
X141204332Y-183666570D01*
X141204680Y-183666302D01*
X141178790Y-183615487D01*
X141188361Y-183555055D01*
X141206567Y-183529996D01*
X141208273Y-183528288D01*
X141208282Y-183528282D01*
X141304536Y-183402841D01*
X141365044Y-183256762D01*
X141385682Y-183100000D01*
X141365044Y-182943238D01*
X141304537Y-182797161D01*
X141304537Y-182797160D01*
X141208286Y-182671723D01*
X141208285Y-182671722D01*
X141208282Y-182671718D01*
X141208277Y-182671714D01*
X141206567Y-182670004D01*
X141205776Y-182668452D01*
X141204332Y-182666570D01*
X141204680Y-182666302D01*
X141178790Y-182615487D01*
X141188361Y-182555055D01*
X141206567Y-182529996D01*
X141208273Y-182528288D01*
X141208282Y-182528282D01*
X141304536Y-182402841D01*
X141365044Y-182256762D01*
X141385682Y-182100000D01*
X141365044Y-181943238D01*
X141304537Y-181797161D01*
X141304537Y-181797160D01*
X141208286Y-181671723D01*
X141208285Y-181671722D01*
X141208282Y-181671718D01*
X141208277Y-181671714D01*
X141208276Y-181671713D01*
X141082838Y-181575462D01*
X140936766Y-181514957D01*
X140936758Y-181514955D01*
X140780001Y-181494318D01*
X140779999Y-181494318D01*
X140623241Y-181514955D01*
X140623233Y-181514957D01*
X140477161Y-181575462D01*
X140477160Y-181575462D01*
X140351723Y-181671713D01*
X140351713Y-181671723D01*
X140255462Y-181797160D01*
X140255462Y-181797161D01*
X140194957Y-181943233D01*
X140194955Y-181943241D01*
X140174318Y-182099999D01*
X121172517Y-182099999D01*
X121185682Y-182000000D01*
X121165044Y-181843238D01*
X121145958Y-181797160D01*
X121104537Y-181697161D01*
X121104537Y-181697160D01*
X121008286Y-181571723D01*
X121008285Y-181571722D01*
X121008282Y-181571718D01*
X120943810Y-181522247D01*
X120909156Y-181471823D01*
X120910758Y-181410659D01*
X120912606Y-181405843D01*
X120965037Y-181279264D01*
X120985675Y-181122502D01*
X120965037Y-180965740D01*
X120965035Y-180965735D01*
X120904530Y-180819663D01*
X120904530Y-180819662D01*
X120808279Y-180694225D01*
X120808278Y-180694224D01*
X120808275Y-180694220D01*
X120808270Y-180694216D01*
X120808269Y-180694215D01*
X120737097Y-180639603D01*
X120682834Y-180597966D01*
X120682833Y-180597965D01*
X120682831Y-180597964D01*
X120536759Y-180537459D01*
X120536751Y-180537457D01*
X120379994Y-180516820D01*
X120379992Y-180516820D01*
X120223234Y-180537457D01*
X120223226Y-180537459D01*
X120077154Y-180597964D01*
X120077153Y-180597964D01*
X119951716Y-180694215D01*
X119951706Y-180694225D01*
X119855455Y-180819662D01*
X119855455Y-180819663D01*
X119794950Y-180965735D01*
X119794948Y-180965743D01*
X119774311Y-181122501D01*
X115077756Y-181122501D01*
X115070925Y-181097007D01*
X115038012Y-181040000D01*
X115935636Y-181040000D01*
X115878429Y-180826505D01*
X115778605Y-180612432D01*
X115778601Y-180612424D01*
X115643113Y-180418926D01*
X115476073Y-180251886D01*
X115282577Y-180116399D01*
X115068489Y-180016569D01*
X115037301Y-180008212D01*
X114985987Y-179974888D01*
X114964060Y-179917766D01*
X114979896Y-179858666D01*
X115027160Y-179820271D01*
X115120019Y-179784298D01*
X115301302Y-179672052D01*
X115458872Y-179528407D01*
X115587366Y-179358255D01*
X115682405Y-179167389D01*
X115740756Y-178962310D01*
X115760429Y-178750000D01*
X115740756Y-178537690D01*
X115682405Y-178332611D01*
X115587366Y-178141745D01*
X115458872Y-177971593D01*
X115404623Y-177922139D01*
X115301307Y-177827952D01*
X115301300Y-177827946D01*
X115256164Y-177799999D01*
X125374318Y-177799999D01*
X125374318Y-177800000D01*
X125394955Y-177956758D01*
X125394957Y-177956766D01*
X125455462Y-178102838D01*
X125455462Y-178102839D01*
X125455464Y-178102841D01*
X125551718Y-178228282D01*
X125677159Y-178324536D01*
X125677160Y-178324536D01*
X125677161Y-178324537D01*
X125823233Y-178385042D01*
X125823238Y-178385044D01*
X125940809Y-178400522D01*
X125979999Y-178405682D01*
X125980000Y-178405682D01*
X125980001Y-178405682D01*
X126011352Y-178401554D01*
X126136762Y-178385044D01*
X126282841Y-178324536D01*
X126408282Y-178228282D01*
X126504536Y-178102841D01*
X126565044Y-177956762D01*
X126585682Y-177800000D01*
X126565044Y-177643238D01*
X126504537Y-177497161D01*
X126504537Y-177497160D01*
X126408286Y-177371723D01*
X126408285Y-177371722D01*
X126408282Y-177371718D01*
X126408277Y-177371714D01*
X126408276Y-177371713D01*
X126282838Y-177275462D01*
X126136766Y-177214957D01*
X126136758Y-177214955D01*
X125980001Y-177194318D01*
X125979999Y-177194318D01*
X125823241Y-177214955D01*
X125823233Y-177214957D01*
X125677161Y-177275462D01*
X125677160Y-177275462D01*
X125551723Y-177371713D01*
X125551713Y-177371723D01*
X125455462Y-177497160D01*
X125455462Y-177497161D01*
X125394957Y-177643233D01*
X125394955Y-177643241D01*
X125374318Y-177799999D01*
X115256164Y-177799999D01*
X115120024Y-177715705D01*
X115120019Y-177715702D01*
X114921195Y-177638678D01*
X114711610Y-177599500D01*
X114498390Y-177599500D01*
X114288804Y-177638678D01*
X114089980Y-177715702D01*
X114089975Y-177715705D01*
X113908699Y-177827946D01*
X113908692Y-177827952D01*
X113751135Y-177971586D01*
X113751131Y-177971589D01*
X113751128Y-177971593D01*
X113751125Y-177971597D01*
X113622635Y-178141743D01*
X113622630Y-178141752D01*
X113527596Y-178332608D01*
X113469244Y-178537688D01*
X113469244Y-178537690D01*
X113449571Y-178750000D01*
X113469244Y-178962310D01*
X113527595Y-179167389D01*
X113622634Y-179358255D01*
X113751128Y-179528407D01*
X113751135Y-179528413D01*
X113908692Y-179672047D01*
X113908699Y-179672053D01*
X114012389Y-179736255D01*
X114089981Y-179784298D01*
X114182839Y-179820271D01*
X114230269Y-179858921D01*
X114245923Y-179918070D01*
X114223820Y-179975124D01*
X114172699Y-180008211D01*
X114141512Y-180016567D01*
X114141505Y-180016570D01*
X113927432Y-180116394D01*
X113927424Y-180116398D01*
X113733926Y-180251886D01*
X113566886Y-180418926D01*
X113431398Y-180612424D01*
X113431394Y-180612432D01*
X113331570Y-180826505D01*
X113274364Y-181040000D01*
X100500500Y-181040000D01*
X100500500Y-176210000D01*
X113449571Y-176210000D01*
X113469244Y-176422310D01*
X113527595Y-176627389D01*
X113622634Y-176818255D01*
X113751128Y-176988407D01*
X113751135Y-176988413D01*
X113908692Y-177132047D01*
X113908699Y-177132053D01*
X114009261Y-177194318D01*
X114089981Y-177244298D01*
X114288802Y-177321321D01*
X114498390Y-177360500D01*
X114711610Y-177360500D01*
X114921198Y-177321321D01*
X115120019Y-177244298D01*
X115301302Y-177132052D01*
X115458872Y-176988407D01*
X115587366Y-176818255D01*
X115682405Y-176627389D01*
X115740756Y-176422310D01*
X115760429Y-176210000D01*
X115740756Y-175997690D01*
X115682405Y-175792611D01*
X115587366Y-175601745D01*
X115510530Y-175499999D01*
X124724318Y-175499999D01*
X124724318Y-175500000D01*
X124744955Y-175656758D01*
X124744957Y-175656766D01*
X124805462Y-175802838D01*
X124805462Y-175802839D01*
X124805464Y-175802841D01*
X124901718Y-175928282D01*
X125027159Y-176024536D01*
X125173238Y-176085044D01*
X125290809Y-176100522D01*
X125329999Y-176105682D01*
X125330000Y-176105682D01*
X125330001Y-176105682D01*
X125361352Y-176101554D01*
X125486762Y-176085044D01*
X125632841Y-176024536D01*
X125758282Y-175928282D01*
X125854536Y-175802841D01*
X125876424Y-175749999D01*
X129124318Y-175749999D01*
X129124318Y-175750000D01*
X129144955Y-175906758D01*
X129144957Y-175906766D01*
X129205462Y-176052838D01*
X129205462Y-176052839D01*
X129230174Y-176085044D01*
X129301718Y-176178282D01*
X129427159Y-176274536D01*
X129573238Y-176335044D01*
X129690809Y-176350522D01*
X129729999Y-176355682D01*
X129730000Y-176355682D01*
X129730001Y-176355682D01*
X129761352Y-176351554D01*
X129886762Y-176335044D01*
X130032841Y-176274536D01*
X130158282Y-176178282D01*
X130254536Y-176052841D01*
X130315044Y-175906762D01*
X130335682Y-175750000D01*
X130315044Y-175593238D01*
X130315042Y-175593233D01*
X130254537Y-175447161D01*
X130254537Y-175447160D01*
X130158286Y-175321723D01*
X130158285Y-175321722D01*
X130158282Y-175321718D01*
X130158277Y-175321714D01*
X130158276Y-175321713D01*
X130032838Y-175225462D01*
X129886766Y-175164957D01*
X129886758Y-175164955D01*
X129730001Y-175144318D01*
X129729999Y-175144318D01*
X129573241Y-175164955D01*
X129573233Y-175164957D01*
X129427161Y-175225462D01*
X129427160Y-175225462D01*
X129301723Y-175321713D01*
X129301713Y-175321723D01*
X129205462Y-175447160D01*
X129205462Y-175447161D01*
X129144957Y-175593233D01*
X129144955Y-175593241D01*
X129124318Y-175749999D01*
X125876424Y-175749999D01*
X125915044Y-175656762D01*
X125935682Y-175500000D01*
X125915044Y-175343238D01*
X125854537Y-175197161D01*
X125854537Y-175197160D01*
X125758286Y-175071723D01*
X125758285Y-175071722D01*
X125758282Y-175071718D01*
X125758277Y-175071714D01*
X125758276Y-175071713D01*
X125632838Y-174975462D01*
X125486766Y-174914957D01*
X125486758Y-174914955D01*
X125330001Y-174894318D01*
X125329999Y-174894318D01*
X125173241Y-174914955D01*
X125173233Y-174914957D01*
X125027161Y-174975462D01*
X125027160Y-174975462D01*
X124901723Y-175071713D01*
X124901713Y-175071723D01*
X124805462Y-175197160D01*
X124805462Y-175197161D01*
X124744957Y-175343233D01*
X124744955Y-175343241D01*
X124724318Y-175499999D01*
X115510530Y-175499999D01*
X115458872Y-175431593D01*
X115361952Y-175343238D01*
X115301307Y-175287952D01*
X115301300Y-175287946D01*
X115120024Y-175175705D01*
X115120019Y-175175702D01*
X115092280Y-175164956D01*
X114921198Y-175098679D01*
X114921197Y-175098678D01*
X114921195Y-175098678D01*
X114711610Y-175059500D01*
X114498390Y-175059500D01*
X114288804Y-175098678D01*
X114089980Y-175175702D01*
X114089975Y-175175705D01*
X113908699Y-175287946D01*
X113908692Y-175287952D01*
X113751135Y-175431586D01*
X113751131Y-175431589D01*
X113751128Y-175431593D01*
X113751125Y-175431597D01*
X113622635Y-175601743D01*
X113622630Y-175601752D01*
X113527596Y-175792608D01*
X113469244Y-175997688D01*
X113461150Y-176085042D01*
X113449571Y-176210000D01*
X100500500Y-176210000D01*
X100500500Y-173670000D01*
X113449571Y-173670000D01*
X113469244Y-173882310D01*
X113527595Y-174087389D01*
X113622634Y-174278255D01*
X113751128Y-174448407D01*
X113751135Y-174448413D01*
X113908692Y-174592047D01*
X113908699Y-174592053D01*
X114012389Y-174656255D01*
X114089981Y-174704298D01*
X114288802Y-174781321D01*
X114498390Y-174820500D01*
X114711610Y-174820500D01*
X114921198Y-174781321D01*
X115120019Y-174704298D01*
X115301302Y-174592052D01*
X115458872Y-174448407D01*
X115587366Y-174278255D01*
X115682405Y-174087389D01*
X115740756Y-173882310D01*
X115760429Y-173670000D01*
X115740756Y-173457690D01*
X115682405Y-173252611D01*
X115587366Y-173061745D01*
X115458872Y-172891593D01*
X115358399Y-172799999D01*
X131574318Y-172799999D01*
X131574318Y-172800000D01*
X131594955Y-172956758D01*
X131594957Y-172956766D01*
X131655462Y-173102838D01*
X131655462Y-173102839D01*
X131655464Y-173102841D01*
X131751718Y-173228282D01*
X131877159Y-173324536D01*
X132023238Y-173385044D01*
X132140809Y-173400522D01*
X132179999Y-173405682D01*
X132180000Y-173405682D01*
X132180001Y-173405682D01*
X132211352Y-173401554D01*
X132336762Y-173385044D01*
X132482841Y-173324536D01*
X132608282Y-173228282D01*
X132704536Y-173102841D01*
X132765044Y-172956762D01*
X132785682Y-172800000D01*
X132765044Y-172643238D01*
X132761924Y-172635705D01*
X132704537Y-172497161D01*
X132704537Y-172497160D01*
X132608286Y-172371723D01*
X132608285Y-172371722D01*
X132608282Y-172371718D01*
X132608277Y-172371714D01*
X132608276Y-172371713D01*
X132482838Y-172275462D01*
X132336766Y-172214957D01*
X132336758Y-172214955D01*
X132180001Y-172194318D01*
X132179999Y-172194318D01*
X132023241Y-172214955D01*
X132023233Y-172214957D01*
X131877161Y-172275462D01*
X131877160Y-172275462D01*
X131751723Y-172371713D01*
X131751713Y-172371723D01*
X131655462Y-172497160D01*
X131655462Y-172497161D01*
X131594957Y-172643233D01*
X131594955Y-172643241D01*
X131574318Y-172799999D01*
X115358399Y-172799999D01*
X115301307Y-172747952D01*
X115301300Y-172747946D01*
X115120024Y-172635705D01*
X115120019Y-172635702D01*
X114921195Y-172558678D01*
X114711610Y-172519500D01*
X114498390Y-172519500D01*
X114288804Y-172558678D01*
X114089980Y-172635702D01*
X114089975Y-172635705D01*
X113908699Y-172747946D01*
X113908692Y-172747952D01*
X113751135Y-172891586D01*
X113751131Y-172891589D01*
X113751128Y-172891593D01*
X113751125Y-172891597D01*
X113622635Y-173061743D01*
X113622630Y-173061752D01*
X113527596Y-173252608D01*
X113469244Y-173457688D01*
X113469244Y-173457690D01*
X113449571Y-173670000D01*
X100500500Y-173670000D01*
X100500500Y-171130000D01*
X113449571Y-171130000D01*
X113469244Y-171342311D01*
X113469507Y-171343236D01*
X113527595Y-171547389D01*
X113622634Y-171738255D01*
X113751128Y-171908407D01*
X113751135Y-171908413D01*
X113908692Y-172052047D01*
X113908699Y-172052053D01*
X113995313Y-172105682D01*
X114089981Y-172164298D01*
X114288802Y-172241321D01*
X114498390Y-172280500D01*
X114711610Y-172280500D01*
X114921198Y-172241321D01*
X115120019Y-172164298D01*
X115301302Y-172052052D01*
X115458872Y-171908407D01*
X115587366Y-171738255D01*
X115682405Y-171547389D01*
X115740756Y-171342310D01*
X115760429Y-171130000D01*
X115740756Y-170917690D01*
X115693043Y-170750000D01*
X138624318Y-170750000D01*
X138644956Y-170906762D01*
X138705464Y-171052841D01*
X138714590Y-171064735D01*
X138735013Y-171122409D01*
X138717635Y-171181075D01*
X138714608Y-171185241D01*
X138705464Y-171197159D01*
X138645341Y-171342310D01*
X138644957Y-171343236D01*
X138644955Y-171343241D01*
X138624318Y-171499999D01*
X138624318Y-171500000D01*
X138644955Y-171656758D01*
X138644957Y-171656766D01*
X138705462Y-171802838D01*
X138705462Y-171802839D01*
X138786467Y-171908407D01*
X138801718Y-171928282D01*
X138927159Y-172024536D01*
X139073238Y-172085044D01*
X139190809Y-172100522D01*
X139229999Y-172105682D01*
X139230000Y-172105682D01*
X139230001Y-172105682D01*
X139261352Y-172101554D01*
X139386762Y-172085044D01*
X139532841Y-172024536D01*
X139658282Y-171928282D01*
X139754536Y-171802841D01*
X139815044Y-171656762D01*
X139835682Y-171500000D01*
X139815044Y-171343238D01*
X139754537Y-171197161D01*
X139754537Y-171197160D01*
X139745412Y-171185269D01*
X139724987Y-171127593D01*
X139742363Y-171068927D01*
X139745412Y-171064731D01*
X139754536Y-171052841D01*
X139815044Y-170906762D01*
X139835682Y-170750000D01*
X139815044Y-170593238D01*
X139815042Y-170593233D01*
X139754537Y-170447161D01*
X139754537Y-170447160D01*
X139658286Y-170321723D01*
X139658285Y-170321722D01*
X139658282Y-170321718D01*
X139658277Y-170321714D01*
X139658276Y-170321713D01*
X139532838Y-170225462D01*
X139386766Y-170164957D01*
X139386758Y-170164955D01*
X139230001Y-170144318D01*
X139229999Y-170144318D01*
X139073241Y-170164955D01*
X139073233Y-170164957D01*
X138927161Y-170225462D01*
X138927160Y-170225462D01*
X138801723Y-170321713D01*
X138801713Y-170321723D01*
X138705462Y-170447160D01*
X138705462Y-170447161D01*
X138644957Y-170593233D01*
X138644955Y-170593241D01*
X138629240Y-170712611D01*
X138624318Y-170750000D01*
X115693043Y-170750000D01*
X115682405Y-170712611D01*
X115587366Y-170521745D01*
X115458872Y-170351593D01*
X115404623Y-170302139D01*
X115301307Y-170207952D01*
X115301300Y-170207946D01*
X115120024Y-170095705D01*
X115120019Y-170095702D01*
X114921195Y-170018678D01*
X114711610Y-169979500D01*
X114498390Y-169979500D01*
X114288804Y-170018678D01*
X114089980Y-170095702D01*
X114089975Y-170095705D01*
X113908699Y-170207946D01*
X113908692Y-170207952D01*
X113751135Y-170351586D01*
X113751131Y-170351589D01*
X113751128Y-170351593D01*
X113751125Y-170351597D01*
X113622635Y-170521743D01*
X113622630Y-170521752D01*
X113527596Y-170712608D01*
X113469244Y-170917688D01*
X113449571Y-171130000D01*
X100500500Y-171130000D01*
X100500500Y-167000000D01*
X131374318Y-167000000D01*
X131394956Y-167156762D01*
X131455464Y-167302841D01*
X131464590Y-167314735D01*
X131485013Y-167372409D01*
X131467635Y-167431075D01*
X131464608Y-167435241D01*
X131455464Y-167447159D01*
X131455463Y-167447160D01*
X131455463Y-167447161D01*
X131394957Y-167593236D01*
X131394955Y-167593241D01*
X131374318Y-167749999D01*
X131374318Y-167750000D01*
X131394955Y-167906758D01*
X131394957Y-167906766D01*
X131455462Y-168052838D01*
X131455462Y-168052839D01*
X131455464Y-168052841D01*
X131551718Y-168178282D01*
X131677159Y-168274536D01*
X131823238Y-168335044D01*
X131940809Y-168350522D01*
X131979999Y-168355682D01*
X131980000Y-168355682D01*
X131980001Y-168355682D01*
X132011352Y-168351554D01*
X132136762Y-168335044D01*
X132282841Y-168274536D01*
X132408282Y-168178282D01*
X132504536Y-168052841D01*
X132565044Y-167906762D01*
X132585682Y-167750000D01*
X132565044Y-167593238D01*
X132504537Y-167447161D01*
X132504537Y-167447160D01*
X132495412Y-167435269D01*
X132474987Y-167377593D01*
X132492363Y-167318927D01*
X132495412Y-167314731D01*
X132504536Y-167302841D01*
X132565044Y-167156762D01*
X132585682Y-167000000D01*
X132565044Y-166843238D01*
X132504537Y-166697161D01*
X132504537Y-166697160D01*
X132408286Y-166571723D01*
X132408285Y-166571722D01*
X132408282Y-166571718D01*
X132408277Y-166571714D01*
X132408276Y-166571713D01*
X132282838Y-166475462D01*
X132136766Y-166414957D01*
X132136758Y-166414955D01*
X131980001Y-166394318D01*
X131979999Y-166394318D01*
X131823241Y-166414955D01*
X131823233Y-166414957D01*
X131677161Y-166475462D01*
X131677160Y-166475462D01*
X131551723Y-166571713D01*
X131551713Y-166571723D01*
X131455462Y-166697160D01*
X131455462Y-166697161D01*
X131394957Y-166843233D01*
X131394955Y-166843241D01*
X131377165Y-166978374D01*
X131374318Y-167000000D01*
X100500500Y-167000000D01*
X100500500Y-165699999D01*
X166880986Y-165699999D01*
X166880986Y-165700000D01*
X166901623Y-165856758D01*
X166901625Y-165856767D01*
X166964591Y-166008781D01*
X166969391Y-166069778D01*
X166964591Y-166084551D01*
X166901625Y-166236564D01*
X166901623Y-166236573D01*
X166880986Y-166393331D01*
X166880986Y-166393332D01*
X166901623Y-166550090D01*
X166901625Y-166550098D01*
X166962130Y-166696170D01*
X166962130Y-166696171D01*
X166962889Y-166697160D01*
X167058386Y-166821614D01*
X167058390Y-166821617D01*
X167058391Y-166821618D01*
X167086567Y-166843238D01*
X167183827Y-166917868D01*
X167329906Y-166978376D01*
X167447477Y-166993854D01*
X167486667Y-166999014D01*
X167486668Y-166999014D01*
X167486669Y-166999014D01*
X167518020Y-166994886D01*
X167643430Y-166978376D01*
X167789509Y-166917868D01*
X167914950Y-166821614D01*
X168011204Y-166696173D01*
X168071712Y-166550094D01*
X168092350Y-166393332D01*
X168071712Y-166236570D01*
X168011204Y-166090491D01*
X168011203Y-166090490D01*
X168008744Y-166084552D01*
X168003943Y-166023555D01*
X168008744Y-166008780D01*
X168011204Y-166002841D01*
X168071712Y-165856762D01*
X168092350Y-165700000D01*
X168071712Y-165543238D01*
X168011205Y-165397161D01*
X168011205Y-165397160D01*
X167914954Y-165271723D01*
X167914953Y-165271722D01*
X167914950Y-165271718D01*
X167914945Y-165271714D01*
X167914944Y-165271713D01*
X167789506Y-165175462D01*
X167643434Y-165114957D01*
X167643426Y-165114955D01*
X167486669Y-165094318D01*
X167486667Y-165094318D01*
X167329909Y-165114955D01*
X167329901Y-165114957D01*
X167183829Y-165175462D01*
X167183828Y-165175462D01*
X167058391Y-165271713D01*
X167058381Y-165271723D01*
X166962130Y-165397160D01*
X166962130Y-165397161D01*
X166901625Y-165543233D01*
X166901623Y-165543241D01*
X166880986Y-165699999D01*
X100500500Y-165699999D01*
X100500500Y-163969668D01*
X159843987Y-163969668D01*
X159843987Y-163969669D01*
X159864624Y-164126427D01*
X159864626Y-164126435D01*
X159925131Y-164272507D01*
X159925131Y-164272508D01*
X159925133Y-164272510D01*
X160021387Y-164397951D01*
X160146828Y-164494205D01*
X160292907Y-164554713D01*
X160410478Y-164570191D01*
X160449668Y-164575351D01*
X160449669Y-164575351D01*
X160449670Y-164575351D01*
X160481021Y-164571223D01*
X160606431Y-164554713D01*
X160752510Y-164494205D01*
X160877951Y-164397951D01*
X160974205Y-164272510D01*
X161034713Y-164126431D01*
X161055351Y-163969669D01*
X161034713Y-163812907D01*
X160978951Y-163678286D01*
X160974206Y-163666830D01*
X160974206Y-163666829D01*
X160877955Y-163541392D01*
X160877954Y-163541391D01*
X160877951Y-163541387D01*
X160877946Y-163541383D01*
X160877945Y-163541382D01*
X160832703Y-163506667D01*
X161367650Y-163506667D01*
X161367650Y-163506668D01*
X161388287Y-163663426D01*
X161388289Y-163663434D01*
X161448794Y-163809506D01*
X161448794Y-163809507D01*
X161545045Y-163934944D01*
X161545050Y-163934950D01*
X161670491Y-164031204D01*
X161816570Y-164091712D01*
X161934141Y-164107190D01*
X161973331Y-164112350D01*
X161973332Y-164112350D01*
X161973333Y-164112350D01*
X162004684Y-164108222D01*
X162130094Y-164091712D01*
X162276173Y-164031204D01*
X162401614Y-163934950D01*
X162497868Y-163809509D01*
X162558376Y-163663430D01*
X162579014Y-163506668D01*
X162558376Y-163349906D01*
X162497869Y-163203829D01*
X162497869Y-163203828D01*
X162401618Y-163078391D01*
X162401617Y-163078390D01*
X162401614Y-163078386D01*
X162401609Y-163078382D01*
X162401608Y-163078381D01*
X162276170Y-162982130D01*
X162130098Y-162921625D01*
X162130090Y-162921623D01*
X161973333Y-162900986D01*
X161973331Y-162900986D01*
X161816573Y-162921623D01*
X161816565Y-162921625D01*
X161670493Y-162982130D01*
X161670492Y-162982130D01*
X161545055Y-163078381D01*
X161545045Y-163078391D01*
X161448794Y-163203828D01*
X161448794Y-163203829D01*
X161388289Y-163349901D01*
X161388287Y-163349909D01*
X161367650Y-163506667D01*
X160832703Y-163506667D01*
X160776762Y-163463742D01*
X160752510Y-163445133D01*
X160752509Y-163445132D01*
X160752507Y-163445131D01*
X160606435Y-163384626D01*
X160606427Y-163384624D01*
X160449670Y-163363987D01*
X160449668Y-163363987D01*
X160292910Y-163384624D01*
X160292902Y-163384626D01*
X160146830Y-163445131D01*
X160146829Y-163445131D01*
X160021392Y-163541382D01*
X160021382Y-163541392D01*
X159925131Y-163666829D01*
X159925131Y-163666830D01*
X159864626Y-163812902D01*
X159864624Y-163812910D01*
X159843987Y-163969668D01*
X100500500Y-163969668D01*
X100500500Y-161315541D01*
X100519407Y-161257350D01*
X100568907Y-161221386D01*
X100630093Y-161221386D01*
X100679593Y-161257350D01*
X100691924Y-161280063D01*
X100797743Y-161555733D01*
X100891610Y-161739955D01*
X100964318Y-161882652D01*
X101164149Y-162190366D01*
X101395051Y-162475506D01*
X101654494Y-162734949D01*
X101939634Y-162965851D01*
X102247348Y-163165682D01*
X102574264Y-163332255D01*
X102574266Y-163332256D01*
X102916780Y-163463735D01*
X102916793Y-163463739D01*
X102916801Y-163463742D01*
X103271206Y-163558705D01*
X103271209Y-163558705D01*
X103271211Y-163558706D01*
X103633586Y-163616101D01*
X103633595Y-163616101D01*
X103633596Y-163616102D01*
X103633597Y-163616102D01*
X103633607Y-163616103D01*
X103999994Y-163635304D01*
X104000000Y-163635304D01*
X104000006Y-163635304D01*
X104366392Y-163616103D01*
X104366400Y-163616102D01*
X104366404Y-163616102D01*
X104366406Y-163616101D01*
X104366413Y-163616101D01*
X104728788Y-163558706D01*
X104728788Y-163558705D01*
X104728794Y-163558705D01*
X105083199Y-163463742D01*
X105083210Y-163463737D01*
X105083219Y-163463735D01*
X105363089Y-163356302D01*
X105425736Y-163332255D01*
X105587172Y-163249999D01*
X156774318Y-163249999D01*
X156774318Y-163250000D01*
X156794955Y-163406758D01*
X156794957Y-163406766D01*
X156855462Y-163552838D01*
X156855462Y-163552839D01*
X156951713Y-163678276D01*
X156951718Y-163678282D01*
X157077159Y-163774536D01*
X157077160Y-163774536D01*
X157077161Y-163774537D01*
X157169802Y-163812910D01*
X157223238Y-163835044D01*
X157340809Y-163850522D01*
X157379999Y-163855682D01*
X157380000Y-163855682D01*
X157380001Y-163855682D01*
X157411352Y-163851554D01*
X157536762Y-163835044D01*
X157682841Y-163774536D01*
X157808282Y-163678282D01*
X157904536Y-163552841D01*
X157965044Y-163406762D01*
X157985682Y-163250000D01*
X157965044Y-163093238D01*
X157919022Y-162982132D01*
X157904537Y-162947161D01*
X157904537Y-162947160D01*
X157808286Y-162821723D01*
X157808285Y-162821722D01*
X157808282Y-162821718D01*
X157808277Y-162821714D01*
X157808276Y-162821713D01*
X157682838Y-162725462D01*
X157536766Y-162664957D01*
X157536758Y-162664955D01*
X157380001Y-162644318D01*
X157379999Y-162644318D01*
X157223241Y-162664955D01*
X157223233Y-162664957D01*
X157077161Y-162725462D01*
X157077160Y-162725462D01*
X156951723Y-162821713D01*
X156951713Y-162821723D01*
X156855462Y-162947160D01*
X156855462Y-162947161D01*
X156794957Y-163093233D01*
X156794955Y-163093241D01*
X156774318Y-163249999D01*
X105587172Y-163249999D01*
X105752652Y-163165682D01*
X106060366Y-162965851D01*
X106345506Y-162734949D01*
X106604949Y-162475506D01*
X106726827Y-162324999D01*
X112124318Y-162324999D01*
X112124318Y-162325000D01*
X112144955Y-162481758D01*
X112144957Y-162481766D01*
X112205462Y-162627838D01*
X112205462Y-162627839D01*
X112287653Y-162734952D01*
X112301718Y-162753282D01*
X112427159Y-162849536D01*
X112573238Y-162910044D01*
X112690809Y-162925522D01*
X112729999Y-162930682D01*
X112730000Y-162930682D01*
X112730001Y-162930682D01*
X112761352Y-162926554D01*
X112886762Y-162910044D01*
X113032841Y-162849536D01*
X113158282Y-162753282D01*
X113254536Y-162627841D01*
X113315044Y-162481762D01*
X113335682Y-162325000D01*
X113315044Y-162168238D01*
X113315042Y-162168233D01*
X113254537Y-162022161D01*
X113254537Y-162022160D01*
X113158286Y-161896723D01*
X113158285Y-161896722D01*
X113158282Y-161896718D01*
X113158277Y-161896714D01*
X113158276Y-161896713D01*
X113087104Y-161842101D01*
X113032841Y-161800464D01*
X113032840Y-161800463D01*
X113032838Y-161800462D01*
X112886766Y-161739957D01*
X112886758Y-161739955D01*
X112730001Y-161719318D01*
X112729999Y-161719318D01*
X112573241Y-161739955D01*
X112573233Y-161739957D01*
X112427161Y-161800462D01*
X112427160Y-161800462D01*
X112301723Y-161896713D01*
X112301713Y-161896723D01*
X112205462Y-162022160D01*
X112205462Y-162022161D01*
X112144957Y-162168233D01*
X112144955Y-162168241D01*
X112124318Y-162324999D01*
X106726827Y-162324999D01*
X106835851Y-162190366D01*
X107035682Y-161882652D01*
X107202255Y-161555736D01*
X107299333Y-161302838D01*
X107333735Y-161213219D01*
X107333737Y-161213210D01*
X107333742Y-161213199D01*
X107428705Y-160858794D01*
X107445936Y-160750000D01*
X107445936Y-160749999D01*
X118624318Y-160749999D01*
X118624318Y-160750000D01*
X118644955Y-160906758D01*
X118644957Y-160906766D01*
X118705462Y-161052838D01*
X118724589Y-161077765D01*
X118745013Y-161135441D01*
X118728440Y-161191386D01*
X118728708Y-161191541D01*
X118728064Y-161192654D01*
X118727635Y-161194106D01*
X118725646Y-161196843D01*
X118725463Y-161197160D01*
X118712705Y-161227962D01*
X118676429Y-161315541D01*
X118664957Y-161343236D01*
X118664955Y-161343241D01*
X118644318Y-161499999D01*
X118644318Y-161500000D01*
X118664955Y-161656758D01*
X118664957Y-161656766D01*
X118725462Y-161802838D01*
X118725462Y-161802839D01*
X118725464Y-161802841D01*
X118821718Y-161928282D01*
X118947159Y-162024536D01*
X119093238Y-162085044D01*
X119210809Y-162100522D01*
X119249999Y-162105682D01*
X119250000Y-162105682D01*
X119250001Y-162105682D01*
X119281352Y-162101554D01*
X119406762Y-162085044D01*
X119552841Y-162024536D01*
X119678282Y-161928282D01*
X119774536Y-161802841D01*
X119835044Y-161656762D01*
X119855682Y-161500000D01*
X119835044Y-161343238D01*
X119774536Y-161197159D01*
X119755410Y-161172234D01*
X119734987Y-161114559D01*
X119751559Y-161058614D01*
X119751292Y-161058460D01*
X119751934Y-161057347D01*
X119752365Y-161055894D01*
X119754355Y-161053154D01*
X119754533Y-161052844D01*
X119754536Y-161052841D01*
X119776424Y-160999999D01*
X162874318Y-160999999D01*
X162874318Y-161000000D01*
X162894955Y-161156758D01*
X162894957Y-161156766D01*
X162955462Y-161302838D01*
X162955462Y-161302839D01*
X163051713Y-161428276D01*
X163051718Y-161428282D01*
X163177159Y-161524536D01*
X163323238Y-161585044D01*
X163440809Y-161600522D01*
X163479999Y-161605682D01*
X163480000Y-161605682D01*
X163480001Y-161605682D01*
X163511352Y-161601554D01*
X163636762Y-161585044D01*
X163782841Y-161524536D01*
X163908282Y-161428282D01*
X164004536Y-161302841D01*
X164065044Y-161156762D01*
X164085682Y-161000000D01*
X164065044Y-160843238D01*
X164065042Y-160843233D01*
X164004537Y-160697161D01*
X164004537Y-160697160D01*
X163908286Y-160571723D01*
X163908285Y-160571722D01*
X163908282Y-160571718D01*
X163908277Y-160571714D01*
X163908276Y-160571713D01*
X163810142Y-160496413D01*
X163782841Y-160475464D01*
X163782840Y-160475463D01*
X163782838Y-160475462D01*
X163636766Y-160414957D01*
X163636758Y-160414955D01*
X163480001Y-160394318D01*
X163479999Y-160394318D01*
X163323241Y-160414955D01*
X163323233Y-160414957D01*
X163177161Y-160475462D01*
X163177160Y-160475462D01*
X163051723Y-160571713D01*
X163051713Y-160571723D01*
X162955462Y-160697160D01*
X162955462Y-160697161D01*
X162894957Y-160843233D01*
X162894955Y-160843241D01*
X162874318Y-160999999D01*
X119776424Y-160999999D01*
X119815044Y-160906762D01*
X119835682Y-160750000D01*
X119815044Y-160593238D01*
X119754537Y-160447161D01*
X119754537Y-160447160D01*
X119658286Y-160321723D01*
X119658285Y-160321722D01*
X119658282Y-160321718D01*
X119658277Y-160321714D01*
X119658276Y-160321713D01*
X119532838Y-160225462D01*
X119386766Y-160164957D01*
X119386758Y-160164955D01*
X119230001Y-160144318D01*
X119229999Y-160144318D01*
X119073241Y-160164955D01*
X119073233Y-160164957D01*
X118927161Y-160225462D01*
X118927160Y-160225462D01*
X118801723Y-160321713D01*
X118801713Y-160321723D01*
X118705462Y-160447160D01*
X118705462Y-160447161D01*
X118644957Y-160593233D01*
X118644955Y-160593241D01*
X118624318Y-160749999D01*
X107445936Y-160749999D01*
X107486101Y-160496413D01*
X107486103Y-160496392D01*
X107505304Y-160130006D01*
X107505304Y-160129993D01*
X107486103Y-159763607D01*
X107486101Y-159763586D01*
X107444353Y-159499999D01*
X150124318Y-159499999D01*
X150124318Y-159500000D01*
X150144955Y-159656758D01*
X150144957Y-159656766D01*
X150205462Y-159802838D01*
X150205462Y-159802839D01*
X150205464Y-159802841D01*
X150301718Y-159928282D01*
X150427159Y-160024536D01*
X150573238Y-160085044D01*
X150690809Y-160100522D01*
X150729999Y-160105682D01*
X150730000Y-160105682D01*
X150730001Y-160105682D01*
X150761352Y-160101554D01*
X150886762Y-160085044D01*
X151032841Y-160024536D01*
X151158282Y-159928282D01*
X151158288Y-159928273D01*
X151159996Y-159926567D01*
X151161547Y-159925776D01*
X151163430Y-159924332D01*
X151163697Y-159924680D01*
X151214513Y-159898790D01*
X151274945Y-159908361D01*
X151300004Y-159926567D01*
X151301713Y-159928276D01*
X151301718Y-159928282D01*
X151427159Y-160024536D01*
X151573238Y-160085044D01*
X151690809Y-160100522D01*
X151729999Y-160105682D01*
X151730000Y-160105682D01*
X151730001Y-160105682D01*
X151761352Y-160101554D01*
X151886762Y-160085044D01*
X152032841Y-160024536D01*
X152158282Y-159928282D01*
X152254536Y-159802841D01*
X152315044Y-159656762D01*
X152335682Y-159500000D01*
X152335682Y-159499999D01*
X157542650Y-159499999D01*
X157542650Y-159500000D01*
X157563287Y-159656758D01*
X157563289Y-159656766D01*
X157623794Y-159802838D01*
X157623794Y-159802839D01*
X157623796Y-159802841D01*
X157720050Y-159928282D01*
X157845491Y-160024536D01*
X157991570Y-160085044D01*
X158109141Y-160100522D01*
X158148331Y-160105682D01*
X158148332Y-160105682D01*
X158148333Y-160105682D01*
X158179684Y-160101554D01*
X158305094Y-160085044D01*
X158451173Y-160024536D01*
X158576614Y-159928282D01*
X158672868Y-159802841D01*
X158733376Y-159656762D01*
X158754014Y-159500000D01*
X158754014Y-159499999D01*
X163574318Y-159499999D01*
X163574318Y-159500000D01*
X163594955Y-159656758D01*
X163594957Y-159656766D01*
X163655462Y-159802838D01*
X163655462Y-159802839D01*
X163655464Y-159802841D01*
X163751718Y-159928282D01*
X163877159Y-160024536D01*
X164023238Y-160085044D01*
X164140809Y-160100522D01*
X164179999Y-160105682D01*
X164180000Y-160105682D01*
X164180001Y-160105682D01*
X164211352Y-160101554D01*
X164336762Y-160085044D01*
X164482841Y-160024536D01*
X164608282Y-159928282D01*
X164704536Y-159802841D01*
X164765044Y-159656762D01*
X164785682Y-159500000D01*
X164785682Y-159499999D01*
X178124318Y-159499999D01*
X178124318Y-159500000D01*
X178144955Y-159656758D01*
X178144957Y-159656766D01*
X178205462Y-159802838D01*
X178205462Y-159802839D01*
X178205464Y-159802841D01*
X178301718Y-159928282D01*
X178427159Y-160024536D01*
X178573238Y-160085044D01*
X178690809Y-160100522D01*
X178729999Y-160105682D01*
X178730000Y-160105682D01*
X178730001Y-160105682D01*
X178761352Y-160101554D01*
X178886762Y-160085044D01*
X179032841Y-160024536D01*
X179158282Y-159928282D01*
X179254536Y-159802841D01*
X179315044Y-159656762D01*
X179335682Y-159500000D01*
X179315044Y-159343238D01*
X179254537Y-159197161D01*
X179254537Y-159197160D01*
X179158286Y-159071723D01*
X179158285Y-159071722D01*
X179158282Y-159071718D01*
X179158277Y-159071714D01*
X179158276Y-159071713D01*
X179087104Y-159017101D01*
X179032841Y-158975464D01*
X179032840Y-158975463D01*
X179032838Y-158975462D01*
X178886766Y-158914957D01*
X178886758Y-158914955D01*
X178730001Y-158894318D01*
X178729999Y-158894318D01*
X178573241Y-158914955D01*
X178573233Y-158914957D01*
X178427161Y-158975462D01*
X178427160Y-158975462D01*
X178301723Y-159071713D01*
X178301713Y-159071723D01*
X178205462Y-159197160D01*
X178205462Y-159197161D01*
X178144957Y-159343233D01*
X178144955Y-159343241D01*
X178124318Y-159499999D01*
X164785682Y-159499999D01*
X164765044Y-159343238D01*
X164704537Y-159197161D01*
X164704537Y-159197160D01*
X164608286Y-159071723D01*
X164608285Y-159071722D01*
X164608282Y-159071718D01*
X164608277Y-159071714D01*
X164608276Y-159071713D01*
X164537104Y-159017101D01*
X164482841Y-158975464D01*
X164482840Y-158975463D01*
X164482838Y-158975462D01*
X164336766Y-158914957D01*
X164336758Y-158914955D01*
X164180001Y-158894318D01*
X164179999Y-158894318D01*
X164023241Y-158914955D01*
X164023233Y-158914957D01*
X163877161Y-158975462D01*
X163877160Y-158975462D01*
X163751723Y-159071713D01*
X163751713Y-159071723D01*
X163655462Y-159197160D01*
X163655462Y-159197161D01*
X163594957Y-159343233D01*
X163594955Y-159343241D01*
X163574318Y-159499999D01*
X158754014Y-159499999D01*
X158733376Y-159343238D01*
X158672869Y-159197161D01*
X158672869Y-159197160D01*
X158576618Y-159071723D01*
X158576617Y-159071722D01*
X158576614Y-159071718D01*
X158576609Y-159071714D01*
X158576608Y-159071713D01*
X158505436Y-159017101D01*
X158451173Y-158975464D01*
X158451172Y-158975463D01*
X158451170Y-158975462D01*
X158305098Y-158914957D01*
X158305090Y-158914955D01*
X158148333Y-158894318D01*
X158148331Y-158894318D01*
X157991573Y-158914955D01*
X157991565Y-158914957D01*
X157845493Y-158975462D01*
X157845492Y-158975462D01*
X157720055Y-159071713D01*
X157720045Y-159071723D01*
X157623794Y-159197160D01*
X157623794Y-159197161D01*
X157563289Y-159343233D01*
X157563287Y-159343241D01*
X157542650Y-159499999D01*
X152335682Y-159499999D01*
X152315044Y-159343238D01*
X152254537Y-159197161D01*
X152254537Y-159197160D01*
X152158286Y-159071723D01*
X152158285Y-159071722D01*
X152158282Y-159071718D01*
X152158277Y-159071714D01*
X152158276Y-159071713D01*
X152087104Y-159017101D01*
X152032841Y-158975464D01*
X152032840Y-158975463D01*
X152032838Y-158975462D01*
X151886766Y-158914957D01*
X151886758Y-158914955D01*
X151730001Y-158894318D01*
X151729999Y-158894318D01*
X151573241Y-158914955D01*
X151573233Y-158914957D01*
X151427161Y-158975462D01*
X151427160Y-158975462D01*
X151301715Y-159071719D01*
X151299998Y-159073437D01*
X151298449Y-159074225D01*
X151296570Y-159075668D01*
X151296302Y-159075319D01*
X151245479Y-159101210D01*
X151185048Y-159091634D01*
X151160002Y-159073437D01*
X151158284Y-159071719D01*
X151078116Y-159010205D01*
X151032841Y-158975464D01*
X151032840Y-158975463D01*
X151032838Y-158975462D01*
X150886766Y-158914957D01*
X150886758Y-158914955D01*
X150730001Y-158894318D01*
X150729999Y-158894318D01*
X150573241Y-158914955D01*
X150573233Y-158914957D01*
X150427161Y-158975462D01*
X150427160Y-158975462D01*
X150301723Y-159071713D01*
X150301713Y-159071723D01*
X150205462Y-159197160D01*
X150205462Y-159197161D01*
X150144957Y-159343233D01*
X150144955Y-159343241D01*
X150124318Y-159499999D01*
X107444353Y-159499999D01*
X107428706Y-159401211D01*
X107374031Y-159197161D01*
X107333742Y-159046801D01*
X107333739Y-159046793D01*
X107333735Y-159046780D01*
X107202256Y-158704266D01*
X107189013Y-158678276D01*
X107035682Y-158377348D01*
X106952981Y-158249999D01*
X149124318Y-158249999D01*
X149124318Y-158250000D01*
X149144955Y-158406758D01*
X149144957Y-158406766D01*
X149205462Y-158552838D01*
X149205462Y-158552839D01*
X149230174Y-158585044D01*
X149301718Y-158678282D01*
X149427159Y-158774536D01*
X149573238Y-158835044D01*
X149690809Y-158850522D01*
X149729999Y-158855682D01*
X149730000Y-158855682D01*
X149730001Y-158855682D01*
X149761352Y-158851554D01*
X149886762Y-158835044D01*
X150032841Y-158774536D01*
X150158282Y-158678282D01*
X150254536Y-158552841D01*
X150315044Y-158406762D01*
X150335682Y-158250000D01*
X150315044Y-158093238D01*
X150305266Y-158069631D01*
X150276423Y-157999999D01*
X191874318Y-157999999D01*
X191874318Y-158000000D01*
X191894955Y-158156758D01*
X191894957Y-158156766D01*
X191955462Y-158302838D01*
X191955462Y-158302839D01*
X192035202Y-158406758D01*
X192051718Y-158428282D01*
X192177159Y-158524536D01*
X192323238Y-158585044D01*
X192440809Y-158600522D01*
X192479999Y-158605682D01*
X192480000Y-158605682D01*
X192480001Y-158605682D01*
X192511352Y-158601554D01*
X192636762Y-158585044D01*
X192782841Y-158524536D01*
X192908282Y-158428282D01*
X193004536Y-158302841D01*
X193065044Y-158156762D01*
X193085682Y-158000000D01*
X193065044Y-157843238D01*
X193040713Y-157784498D01*
X193004537Y-157697161D01*
X193004537Y-157697160D01*
X192908286Y-157571723D01*
X192908285Y-157571722D01*
X192908282Y-157571718D01*
X192908277Y-157571714D01*
X192908276Y-157571713D01*
X192782838Y-157475462D01*
X192636766Y-157414957D01*
X192636758Y-157414955D01*
X192480001Y-157394318D01*
X192479999Y-157394318D01*
X192323241Y-157414955D01*
X192323233Y-157414957D01*
X192177161Y-157475462D01*
X192177160Y-157475462D01*
X192051723Y-157571713D01*
X192051713Y-157571723D01*
X191955462Y-157697160D01*
X191955462Y-157697161D01*
X191894957Y-157843233D01*
X191894955Y-157843241D01*
X191874318Y-157999999D01*
X150276423Y-157999999D01*
X150254537Y-157947161D01*
X150254537Y-157947160D01*
X150158286Y-157821723D01*
X150158285Y-157821722D01*
X150158282Y-157821718D01*
X150158277Y-157821714D01*
X150158276Y-157821713D01*
X150032838Y-157725462D01*
X149886766Y-157664957D01*
X149886758Y-157664955D01*
X149730001Y-157644318D01*
X149729999Y-157644318D01*
X149573241Y-157664955D01*
X149573233Y-157664957D01*
X149427161Y-157725462D01*
X149427160Y-157725462D01*
X149301723Y-157821713D01*
X149301713Y-157821723D01*
X149205462Y-157947160D01*
X149205462Y-157947161D01*
X149144957Y-158093233D01*
X149144955Y-158093241D01*
X149124318Y-158249999D01*
X106952981Y-158249999D01*
X106835851Y-158069634D01*
X106604949Y-157784494D01*
X106345506Y-157525051D01*
X106060366Y-157294149D01*
X105752652Y-157094318D01*
X105717287Y-157076298D01*
X105425733Y-156927743D01*
X105083219Y-156796264D01*
X105083196Y-156796257D01*
X104728788Y-156701293D01*
X104366413Y-156643898D01*
X104366392Y-156643896D01*
X104000006Y-156624696D01*
X103999994Y-156624696D01*
X103633607Y-156643896D01*
X103633586Y-156643898D01*
X103271211Y-156701293D01*
X102916803Y-156796257D01*
X102916780Y-156796264D01*
X102574266Y-156927743D01*
X102247353Y-157094315D01*
X101939631Y-157294151D01*
X101654498Y-157525047D01*
X101395047Y-157784498D01*
X101164151Y-158069631D01*
X101164149Y-158069634D01*
X101047019Y-158250000D01*
X100964315Y-158377353D01*
X100797743Y-158704266D01*
X100691924Y-158979936D01*
X100653419Y-159027486D01*
X100594319Y-159043322D01*
X100537197Y-159021395D01*
X100503873Y-158970081D01*
X100500500Y-158944458D01*
X100500500Y-155749999D01*
X138874318Y-155749999D01*
X138874318Y-155750000D01*
X138894955Y-155906758D01*
X138894957Y-155906766D01*
X138955462Y-156052838D01*
X138955462Y-156052839D01*
X138980174Y-156085044D01*
X139051718Y-156178282D01*
X139177159Y-156274536D01*
X139323238Y-156335044D01*
X139440809Y-156350522D01*
X139479999Y-156355682D01*
X139480000Y-156355682D01*
X139480001Y-156355682D01*
X139511352Y-156351554D01*
X139636762Y-156335044D01*
X139782841Y-156274536D01*
X139794731Y-156265411D01*
X139852407Y-156244987D01*
X139911073Y-156262363D01*
X139915258Y-156265404D01*
X139927159Y-156274536D01*
X140073238Y-156335044D01*
X140190809Y-156350522D01*
X140229999Y-156355682D01*
X140230000Y-156355682D01*
X140230001Y-156355682D01*
X140261352Y-156351554D01*
X140386762Y-156335044D01*
X140532841Y-156274536D01*
X140544731Y-156265411D01*
X140602407Y-156244987D01*
X140661073Y-156262363D01*
X140665258Y-156265404D01*
X140677159Y-156274536D01*
X140823238Y-156335044D01*
X140940809Y-156350522D01*
X140979999Y-156355682D01*
X140980000Y-156355682D01*
X140980001Y-156355682D01*
X141011352Y-156351554D01*
X141136762Y-156335044D01*
X141282841Y-156274536D01*
X141408282Y-156178282D01*
X141504536Y-156052841D01*
X141565044Y-155906762D01*
X141585682Y-155750000D01*
X141565044Y-155593238D01*
X141565042Y-155593233D01*
X141526423Y-155499999D01*
X190894318Y-155499999D01*
X190894318Y-155500000D01*
X190914955Y-155656758D01*
X190914957Y-155656766D01*
X190975462Y-155802838D01*
X190975462Y-155802839D01*
X190975464Y-155802841D01*
X191071718Y-155928282D01*
X191197159Y-156024536D01*
X191343238Y-156085044D01*
X191460809Y-156100522D01*
X191499999Y-156105682D01*
X191500000Y-156105682D01*
X191500001Y-156105682D01*
X191531352Y-156101554D01*
X191656762Y-156085044D01*
X191802841Y-156024536D01*
X191928282Y-155928282D01*
X192024536Y-155802841D01*
X192085044Y-155656762D01*
X192105682Y-155500000D01*
X192105682Y-155499999D01*
X192874318Y-155499999D01*
X192874318Y-155500000D01*
X192894955Y-155656758D01*
X192894957Y-155656766D01*
X192955462Y-155802838D01*
X192955462Y-155802839D01*
X192955464Y-155802841D01*
X193051718Y-155928282D01*
X193177159Y-156024536D01*
X193323238Y-156085044D01*
X193440809Y-156100522D01*
X193479999Y-156105682D01*
X193480000Y-156105682D01*
X193480001Y-156105682D01*
X193511352Y-156101554D01*
X193636762Y-156085044D01*
X193782841Y-156024536D01*
X193908282Y-155928282D01*
X194004536Y-155802841D01*
X194065044Y-155656762D01*
X194085682Y-155500000D01*
X194065044Y-155343238D01*
X194021302Y-155237635D01*
X194004537Y-155197161D01*
X194004537Y-155197160D01*
X193908286Y-155071723D01*
X193908285Y-155071722D01*
X193908282Y-155071718D01*
X193908277Y-155071714D01*
X193908276Y-155071713D01*
X193782838Y-154975462D01*
X193636766Y-154914957D01*
X193636758Y-154914955D01*
X193480001Y-154894318D01*
X193479999Y-154894318D01*
X193323241Y-154914955D01*
X193323233Y-154914957D01*
X193177161Y-154975462D01*
X193177160Y-154975462D01*
X193051723Y-155071713D01*
X193051713Y-155071723D01*
X192955462Y-155197160D01*
X192955462Y-155197161D01*
X192894957Y-155343233D01*
X192894955Y-155343241D01*
X192874318Y-155499999D01*
X192105682Y-155499999D01*
X192085044Y-155343238D01*
X192041302Y-155237635D01*
X192024537Y-155197161D01*
X192024537Y-155197160D01*
X191928286Y-155071723D01*
X191928285Y-155071722D01*
X191928282Y-155071718D01*
X191928277Y-155071714D01*
X191928276Y-155071713D01*
X191802838Y-154975462D01*
X191656766Y-154914957D01*
X191656758Y-154914955D01*
X191500001Y-154894318D01*
X191499999Y-154894318D01*
X191343241Y-154914955D01*
X191343233Y-154914957D01*
X191197161Y-154975462D01*
X191197160Y-154975462D01*
X191071723Y-155071713D01*
X191071713Y-155071723D01*
X190975462Y-155197160D01*
X190975462Y-155197161D01*
X190914957Y-155343233D01*
X190914955Y-155343241D01*
X190894318Y-155499999D01*
X141526423Y-155499999D01*
X141504537Y-155447161D01*
X141504537Y-155447160D01*
X141408286Y-155321723D01*
X141408285Y-155321722D01*
X141408282Y-155321718D01*
X141408277Y-155321714D01*
X141408276Y-155321713D01*
X141321350Y-155255013D01*
X141282841Y-155225464D01*
X141282840Y-155225463D01*
X141282838Y-155225462D01*
X141136766Y-155164957D01*
X141136758Y-155164955D01*
X140980001Y-155144318D01*
X140979999Y-155144318D01*
X140823241Y-155164955D01*
X140823236Y-155164957D01*
X140677164Y-155225462D01*
X140677159Y-155225464D01*
X140665264Y-155234590D01*
X140607591Y-155255013D01*
X140548925Y-155237635D01*
X140544758Y-155234608D01*
X140532841Y-155225464D01*
X140386762Y-155164956D01*
X140386759Y-155164955D01*
X140386758Y-155164955D01*
X140230001Y-155144318D01*
X140229999Y-155144318D01*
X140073241Y-155164955D01*
X140073236Y-155164957D01*
X139927164Y-155225462D01*
X139927159Y-155225464D01*
X139915264Y-155234590D01*
X139857591Y-155255013D01*
X139798925Y-155237635D01*
X139794758Y-155234608D01*
X139782841Y-155225464D01*
X139636762Y-155164956D01*
X139636759Y-155164955D01*
X139636758Y-155164955D01*
X139480001Y-155144318D01*
X139479999Y-155144318D01*
X139323241Y-155164955D01*
X139323233Y-155164957D01*
X139177161Y-155225462D01*
X139177160Y-155225462D01*
X139051723Y-155321713D01*
X139051713Y-155321723D01*
X138955462Y-155447160D01*
X138955462Y-155447161D01*
X138894957Y-155593233D01*
X138894955Y-155593241D01*
X138874318Y-155749999D01*
X100500500Y-155749999D01*
X100500500Y-152499999D01*
X101895172Y-152499999D01*
X101895172Y-152500000D01*
X101914461Y-152794311D01*
X101972004Y-153083598D01*
X102066810Y-153362883D01*
X102066815Y-153362894D01*
X102197262Y-153627414D01*
X102361123Y-153872650D01*
X102390404Y-153906039D01*
X103213707Y-153082735D01*
X103310967Y-153216602D01*
X103433398Y-153339033D01*
X103567262Y-153436290D01*
X102743959Y-154259594D01*
X102743958Y-154259594D01*
X102777349Y-154288876D01*
X103022585Y-154452737D01*
X103287105Y-154583184D01*
X103287116Y-154583189D01*
X103566401Y-154677995D01*
X103855688Y-154735538D01*
X104149999Y-154754828D01*
X104150001Y-154754828D01*
X104444311Y-154735538D01*
X104733598Y-154677995D01*
X105012883Y-154583189D01*
X105012894Y-154583184D01*
X105277414Y-154452737D01*
X105522648Y-154288877D01*
X105522652Y-154288874D01*
X105556039Y-154259594D01*
X104732736Y-153436291D01*
X104866602Y-153339033D01*
X104989033Y-153216602D01*
X105086291Y-153082736D01*
X105909594Y-153906039D01*
X105938874Y-153872652D01*
X105938877Y-153872648D01*
X106102737Y-153627414D01*
X106233184Y-153362894D01*
X106233189Y-153362883D01*
X106327995Y-153083598D01*
X106385538Y-152794311D01*
X106404828Y-152500000D01*
X106404828Y-152499999D01*
X106404828Y-152499997D01*
X109894451Y-152499997D01*
X109894451Y-152500002D01*
X109914616Y-152769098D01*
X109914618Y-152769107D01*
X109974666Y-153032197D01*
X110039411Y-153197161D01*
X110073257Y-153283398D01*
X110208185Y-153517102D01*
X110208189Y-153517108D01*
X110208191Y-153517110D01*
X110376434Y-153728081D01*
X110376440Y-153728087D01*
X110574252Y-153911629D01*
X110574254Y-153911630D01*
X110574259Y-153911635D01*
X110797226Y-154063651D01*
X111040359Y-154180738D01*
X111298228Y-154260280D01*
X111565071Y-154300500D01*
X111565076Y-154300500D01*
X111834924Y-154300500D01*
X111834929Y-154300500D01*
X112101772Y-154260280D01*
X112359641Y-154180738D01*
X112602775Y-154063651D01*
X112825741Y-153911635D01*
X113023561Y-153728085D01*
X113023565Y-153728081D01*
X113189974Y-153519410D01*
X113191815Y-153517102D01*
X113326743Y-153283398D01*
X113425334Y-153032195D01*
X113485383Y-152769103D01*
X113505549Y-152500000D01*
X113505549Y-152499997D01*
X117494451Y-152499997D01*
X117494451Y-152500002D01*
X117514616Y-152769098D01*
X117514618Y-152769107D01*
X117574666Y-153032197D01*
X117639411Y-153197161D01*
X117673257Y-153283398D01*
X117808185Y-153517102D01*
X117808189Y-153517108D01*
X117808191Y-153517110D01*
X117976434Y-153728081D01*
X117976440Y-153728087D01*
X118174252Y-153911629D01*
X118174254Y-153911630D01*
X118174259Y-153911635D01*
X118397226Y-154063651D01*
X118640359Y-154180738D01*
X118898228Y-154260280D01*
X119165071Y-154300500D01*
X119165076Y-154300500D01*
X119434924Y-154300500D01*
X119434929Y-154300500D01*
X119701772Y-154260280D01*
X119959641Y-154180738D01*
X120202775Y-154063651D01*
X120425741Y-153911635D01*
X120623561Y-153728085D01*
X120623565Y-153728081D01*
X120789974Y-153519410D01*
X120791815Y-153517102D01*
X120926743Y-153283398D01*
X121025334Y-153032195D01*
X121085383Y-152769103D01*
X121105549Y-152500000D01*
X121105549Y-152499996D01*
X124894709Y-152499996D01*
X124894709Y-152500003D01*
X124913851Y-152779858D01*
X124913853Y-152779867D01*
X124970923Y-153054506D01*
X125017894Y-153186670D01*
X125052271Y-153283398D01*
X125064866Y-153318835D01*
X125193917Y-153567893D01*
X125193919Y-153567896D01*
X125355688Y-153797069D01*
X125481284Y-153931550D01*
X125547155Y-154002081D01*
X125630643Y-154070004D01*
X125764754Y-154179111D01*
X125945257Y-154288877D01*
X126004427Y-154324859D01*
X126004439Y-154324866D01*
X126261715Y-154436616D01*
X126261717Y-154436616D01*
X126261725Y-154436620D01*
X126531839Y-154512303D01*
X126809742Y-154550500D01*
X126809748Y-154550500D01*
X127090252Y-154550500D01*
X127090258Y-154550500D01*
X127368161Y-154512303D01*
X127638275Y-154436620D01*
X127676195Y-154420148D01*
X127895560Y-154324866D01*
X127895563Y-154324863D01*
X127895568Y-154324862D01*
X128135246Y-154179111D01*
X128352845Y-154002081D01*
X128544312Y-153797069D01*
X128706081Y-153567896D01*
X128741262Y-153499999D01*
X184424318Y-153499999D01*
X184424318Y-153500000D01*
X184444955Y-153656758D01*
X184444957Y-153656766D01*
X184505462Y-153802838D01*
X184505462Y-153802839D01*
X184601719Y-153928284D01*
X184603437Y-153930002D01*
X184604225Y-153931550D01*
X184605668Y-153933430D01*
X184605319Y-153933697D01*
X184631210Y-153984521D01*
X184621634Y-154044952D01*
X184603437Y-154069998D01*
X184601719Y-154071715D01*
X184505462Y-154197160D01*
X184505462Y-154197161D01*
X184444957Y-154343233D01*
X184444955Y-154343241D01*
X184424318Y-154499999D01*
X184424318Y-154500000D01*
X184444955Y-154656758D01*
X184444957Y-154656766D01*
X184505462Y-154802838D01*
X184505462Y-154802839D01*
X184591493Y-154914957D01*
X184601718Y-154928282D01*
X184727159Y-155024536D01*
X184873238Y-155085044D01*
X184990809Y-155100522D01*
X185029999Y-155105682D01*
X185030000Y-155105682D01*
X185030001Y-155105682D01*
X185061352Y-155101554D01*
X185186762Y-155085044D01*
X185332841Y-155024536D01*
X185458282Y-154928282D01*
X185554536Y-154802841D01*
X185615044Y-154656762D01*
X185635682Y-154500000D01*
X185615044Y-154343238D01*
X185592527Y-154288877D01*
X185554537Y-154197161D01*
X185554537Y-154197160D01*
X185458286Y-154071723D01*
X185458285Y-154071722D01*
X185458282Y-154071718D01*
X185458277Y-154071714D01*
X185456567Y-154070004D01*
X185455776Y-154068452D01*
X185454332Y-154066570D01*
X185454680Y-154066302D01*
X185428790Y-154015487D01*
X185438361Y-153955055D01*
X185456567Y-153929996D01*
X185458273Y-153928288D01*
X185458282Y-153928282D01*
X185554536Y-153802841D01*
X185615044Y-153656762D01*
X185635682Y-153500000D01*
X185615044Y-153343238D01*
X185590258Y-153283400D01*
X185554537Y-153197161D01*
X185554537Y-153197160D01*
X185458286Y-153071723D01*
X185458285Y-153071722D01*
X185458282Y-153071718D01*
X185458277Y-153071714D01*
X185458276Y-153071713D01*
X185332838Y-152975462D01*
X185186766Y-152914957D01*
X185186758Y-152914955D01*
X185030001Y-152894318D01*
X185029999Y-152894318D01*
X184873241Y-152914955D01*
X184873233Y-152914957D01*
X184727161Y-152975462D01*
X184727160Y-152975462D01*
X184601723Y-153071713D01*
X184601713Y-153071723D01*
X184505462Y-153197160D01*
X184505462Y-153197161D01*
X184444957Y-153343233D01*
X184444955Y-153343241D01*
X184424318Y-153499999D01*
X128741262Y-153499999D01*
X128835136Y-153318830D01*
X128929075Y-153054511D01*
X128986148Y-152779862D01*
X129005291Y-152500000D01*
X128986148Y-152220138D01*
X128933712Y-151967802D01*
X128929076Y-151945493D01*
X128918737Y-151916401D01*
X128835136Y-151681170D01*
X128812303Y-151637105D01*
X128706082Y-151432106D01*
X128703383Y-151428282D01*
X128544312Y-151202931D01*
X128352845Y-150997919D01*
X128341757Y-150988898D01*
X128244102Y-150909450D01*
X133699500Y-150909450D01*
X133699500Y-151090549D01*
X133727828Y-151269406D01*
X133783788Y-151441637D01*
X133843687Y-151559196D01*
X133866004Y-151602994D01*
X133972447Y-151749501D01*
X134100499Y-151877553D01*
X134247006Y-151983996D01*
X134408361Y-152066211D01*
X134580591Y-152122171D01*
X134652136Y-152133502D01*
X134759451Y-152150500D01*
X134759454Y-152150500D01*
X135240549Y-152150500D01*
X135329977Y-152136335D01*
X135419409Y-152122171D01*
X135591639Y-152066211D01*
X135752994Y-151983996D01*
X135899501Y-151877553D01*
X136027553Y-151749501D01*
X136133996Y-151602994D01*
X136216211Y-151441639D01*
X136272171Y-151269409D01*
X136290012Y-151156766D01*
X136300500Y-151090549D01*
X136300500Y-150909450D01*
X136281614Y-150790212D01*
X136275245Y-150749999D01*
X151522768Y-150749999D01*
X151522769Y-150750000D01*
X152566988Y-150750000D01*
X152534075Y-150807007D01*
X152500000Y-150934174D01*
X152500000Y-151065826D01*
X152534075Y-151192993D01*
X152566988Y-151250000D01*
X151522769Y-151250000D01*
X151533241Y-151316122D01*
X151598904Y-151518215D01*
X151695375Y-151707552D01*
X151820277Y-151879464D01*
X151970535Y-152029722D01*
X152142447Y-152154624D01*
X152331784Y-152251095D01*
X152533878Y-152316759D01*
X152743750Y-152350000D01*
X152749999Y-152350000D01*
X152750000Y-152349999D01*
X152750000Y-151433012D01*
X152807007Y-151465925D01*
X152934174Y-151500000D01*
X153065826Y-151500000D01*
X153192993Y-151465925D01*
X153250000Y-151433012D01*
X153250000Y-152349999D01*
X153250001Y-152350000D01*
X153256250Y-152350000D01*
X153466121Y-152316759D01*
X153668215Y-152251095D01*
X153670366Y-152249999D01*
X186874318Y-152249999D01*
X186874318Y-152250000D01*
X186894955Y-152406758D01*
X186894957Y-152406766D01*
X186955462Y-152552838D01*
X186955462Y-152552839D01*
X187051713Y-152678276D01*
X187051718Y-152678282D01*
X187177159Y-152774536D01*
X187323238Y-152835044D01*
X187440809Y-152850522D01*
X187479999Y-152855682D01*
X187480000Y-152855682D01*
X187480001Y-152855682D01*
X187511352Y-152851554D01*
X187636762Y-152835044D01*
X187782841Y-152774536D01*
X187908282Y-152678282D01*
X188004536Y-152552841D01*
X188065044Y-152406762D01*
X188085682Y-152250000D01*
X188065044Y-152093238D01*
X188019795Y-151983997D01*
X188004537Y-151947161D01*
X188004537Y-151947160D01*
X187908286Y-151821723D01*
X187908285Y-151821722D01*
X187908282Y-151821718D01*
X187908277Y-151821714D01*
X187908276Y-151821713D01*
X187782838Y-151725462D01*
X187636766Y-151664957D01*
X187636758Y-151664955D01*
X187480001Y-151644318D01*
X187479999Y-151644318D01*
X187323241Y-151664955D01*
X187323233Y-151664957D01*
X187177161Y-151725462D01*
X187177160Y-151725462D01*
X187051723Y-151821713D01*
X187051713Y-151821723D01*
X186955462Y-151947160D01*
X186955462Y-151947161D01*
X186894957Y-152093233D01*
X186894955Y-152093241D01*
X186874318Y-152249999D01*
X153670366Y-152249999D01*
X153857552Y-152154624D01*
X154029464Y-152029722D01*
X154179722Y-151879464D01*
X154304624Y-151707552D01*
X154401095Y-151518215D01*
X154466758Y-151316122D01*
X154477231Y-151250000D01*
X153433012Y-151250000D01*
X153465925Y-151192993D01*
X153500000Y-151065826D01*
X153500000Y-150934174D01*
X153465925Y-150807007D01*
X153433012Y-150750000D01*
X154477231Y-150750000D01*
X154477231Y-150749999D01*
X154466758Y-150683877D01*
X154401095Y-150481784D01*
X154304624Y-150292447D01*
X154179722Y-150120535D01*
X154029464Y-149970277D01*
X153857552Y-149845375D01*
X153668215Y-149748904D01*
X153466121Y-149683240D01*
X153256250Y-149650000D01*
X153250001Y-149650000D01*
X153250000Y-149650001D01*
X153250000Y-150566988D01*
X153192993Y-150534075D01*
X153065826Y-150500000D01*
X152934174Y-150500000D01*
X152807007Y-150534075D01*
X152750000Y-150566988D01*
X152750000Y-149650001D01*
X152749999Y-149650000D01*
X152743750Y-149650000D01*
X152533878Y-149683240D01*
X152331784Y-149748904D01*
X152142447Y-149845375D01*
X151970535Y-149970277D01*
X151820277Y-150120535D01*
X151695375Y-150292447D01*
X151598904Y-150481784D01*
X151533241Y-150683877D01*
X151522768Y-150749999D01*
X136275245Y-150749999D01*
X136272171Y-150730591D01*
X136216211Y-150558361D01*
X136133996Y-150397006D01*
X136027553Y-150250499D01*
X135899501Y-150122447D01*
X135752994Y-150016004D01*
X135752993Y-150016003D01*
X135752991Y-150016002D01*
X135591637Y-149933788D01*
X135419406Y-149877828D01*
X135240549Y-149849500D01*
X135240546Y-149849500D01*
X134759454Y-149849500D01*
X134759451Y-149849500D01*
X134580593Y-149877828D01*
X134408362Y-149933788D01*
X134247008Y-150016002D01*
X134217730Y-150037274D01*
X134100499Y-150122447D01*
X133972447Y-150250499D01*
X133950963Y-150280070D01*
X133866002Y-150397008D01*
X133783788Y-150558362D01*
X133727828Y-150730593D01*
X133699500Y-150909450D01*
X128244102Y-150909450D01*
X128135255Y-150820896D01*
X128135252Y-150820894D01*
X128135246Y-150820889D01*
X127933471Y-150698187D01*
X127895572Y-150675140D01*
X127895560Y-150675133D01*
X127638284Y-150563383D01*
X127638276Y-150563380D01*
X127638275Y-150563380D01*
X127498816Y-150524305D01*
X127368162Y-150487697D01*
X127298685Y-150478147D01*
X127090258Y-150449500D01*
X126809742Y-150449500D01*
X126670790Y-150468598D01*
X126531837Y-150487697D01*
X126261728Y-150563379D01*
X126261715Y-150563383D01*
X126004439Y-150675133D01*
X126004427Y-150675140D01*
X125764760Y-150820885D01*
X125764744Y-150820896D01*
X125547155Y-150997918D01*
X125355687Y-151202932D01*
X125193917Y-151432106D01*
X125064866Y-151681164D01*
X124970923Y-151945493D01*
X124913853Y-152220132D01*
X124913851Y-152220141D01*
X124894709Y-152499996D01*
X121105549Y-152499996D01*
X121099061Y-152413428D01*
X121091817Y-152316759D01*
X121085383Y-152230897D01*
X121025334Y-151967805D01*
X120926743Y-151716602D01*
X120791815Y-151482898D01*
X120791808Y-151482889D01*
X120623565Y-151271918D01*
X120623559Y-151271912D01*
X120425747Y-151088370D01*
X120425744Y-151088368D01*
X120425741Y-151088365D01*
X120202775Y-150936349D01*
X120198259Y-150934174D01*
X119959643Y-150819262D01*
X119701776Y-150739721D01*
X119701773Y-150739720D01*
X119701772Y-150739720D01*
X119701767Y-150739719D01*
X119701766Y-150739719D01*
X119434932Y-150699500D01*
X119434929Y-150699500D01*
X119165071Y-150699500D01*
X119165067Y-150699500D01*
X118898233Y-150739719D01*
X118898223Y-150739721D01*
X118640358Y-150819262D01*
X118397233Y-150936345D01*
X118397229Y-150936347D01*
X118397226Y-150936349D01*
X118227977Y-151051741D01*
X118174252Y-151088370D01*
X117976440Y-151271912D01*
X117976434Y-151271918D01*
X117808191Y-151482889D01*
X117808187Y-151482894D01*
X117808185Y-151482898D01*
X117742687Y-151596344D01*
X117673258Y-151716599D01*
X117673254Y-151716608D01*
X117574666Y-151967802D01*
X117514618Y-152230892D01*
X117514616Y-152230901D01*
X117494451Y-152499997D01*
X113505549Y-152499997D01*
X113499061Y-152413428D01*
X113491817Y-152316759D01*
X113485383Y-152230897D01*
X113425334Y-151967805D01*
X113326743Y-151716602D01*
X113191815Y-151482898D01*
X113191808Y-151482889D01*
X113023565Y-151271918D01*
X113023559Y-151271912D01*
X112825747Y-151088370D01*
X112825744Y-151088368D01*
X112825741Y-151088365D01*
X112602775Y-150936349D01*
X112598259Y-150934174D01*
X112359643Y-150819262D01*
X112101776Y-150739721D01*
X112101773Y-150739720D01*
X112101772Y-150739720D01*
X112101767Y-150739719D01*
X112101766Y-150739719D01*
X111834932Y-150699500D01*
X111834929Y-150699500D01*
X111565071Y-150699500D01*
X111565067Y-150699500D01*
X111298233Y-150739719D01*
X111298223Y-150739721D01*
X111040358Y-150819262D01*
X110797233Y-150936345D01*
X110797229Y-150936347D01*
X110797226Y-150936349D01*
X110627977Y-151051741D01*
X110574252Y-151088370D01*
X110376440Y-151271912D01*
X110376434Y-151271918D01*
X110208191Y-151482889D01*
X110208187Y-151482894D01*
X110208185Y-151482898D01*
X110142687Y-151596344D01*
X110073258Y-151716599D01*
X110073254Y-151716608D01*
X109974666Y-151967802D01*
X109914618Y-152230892D01*
X109914616Y-152230901D01*
X109894451Y-152499997D01*
X106404828Y-152499997D01*
X106385538Y-152205688D01*
X106327995Y-151916401D01*
X106233189Y-151637116D01*
X106233184Y-151637105D01*
X106102737Y-151372585D01*
X105938876Y-151127349D01*
X105909594Y-151093959D01*
X105086290Y-151917262D01*
X104989033Y-151783398D01*
X104866602Y-151660967D01*
X104732735Y-151563707D01*
X105556039Y-150740404D01*
X105556040Y-150740404D01*
X105522650Y-150711123D01*
X105277414Y-150547262D01*
X105012894Y-150416815D01*
X105012883Y-150416810D01*
X104733598Y-150322004D01*
X104444311Y-150264461D01*
X104150001Y-150245172D01*
X104149999Y-150245172D01*
X103855688Y-150264461D01*
X103566401Y-150322004D01*
X103287116Y-150416810D01*
X103287105Y-150416815D01*
X103022585Y-150547262D01*
X102777352Y-150711121D01*
X102777346Y-150711126D01*
X102743959Y-150740404D01*
X103567263Y-151563708D01*
X103433398Y-151660967D01*
X103310967Y-151783398D01*
X103213708Y-151917263D01*
X102390404Y-151093959D01*
X102361126Y-151127346D01*
X102361121Y-151127352D01*
X102197262Y-151372585D01*
X102066815Y-151637105D01*
X102066810Y-151637116D01*
X101972004Y-151916401D01*
X101914461Y-152205688D01*
X101895172Y-152499999D01*
X100500500Y-152499999D01*
X100500500Y-149099000D01*
X100519407Y-149040809D01*
X100568907Y-149004845D01*
X100599500Y-149000000D01*
X158726255Y-149000000D01*
X158784446Y-149018907D01*
G37*
%TD.AperFunction*%
%TD*%
M02*
