M48
; DRILL file {KiCad 8.0.4+dfsg-1} date 2024-08-09T12:12:19+0200
; FORMAT={-:-/ absolute / inch / decimal}
; #@! TF.CreationDate,2024-08-09T12:12:19+02:00
; #@! TF.GenerationSoftware,Kicad,Pcbnew,8.0.4+dfsg-1
; #@! TF.FileFunction,Plated,1,4,PTH
FMAT,2
INCH
; #@! TA.AperFunction,Plated,PTH,ViaDrill
T1C0.0118
; #@! TA.AperFunction,Plated,PTH,ComponentDrill
T2C0.0276
; #@! TA.AperFunction,Plated,PTH,ComponentDrill
T3C0.0315
; #@! TA.AperFunction,Plated,PTH,ComponentDrill
T4C0.0354
; #@! TA.AperFunction,Plated,PTH,ComponentDrill
T5C0.0394
; #@! TA.AperFunction,Plated,PTH,ComponentDrill
T6C0.0630
; #@! TA.AperFunction,Plated,PTH,ComponentDrill
T7C0.0748
; #@! TA.AperFunction,Plated,PTH,ComponentDrill
T8C0.0866
; #@! TA.AperFunction,Plated,PTH,ComponentDrill
T9C0.0984
; #@! TA.AperFunction,Plated,PTH,ComponentDrill
T10C0.1260
%
G90
G05
T1
X4.0465Y-7.3661
X4.0543Y-7.1299
X4.1803Y-6.5551
X4.1961Y-7.7205
X4.2039Y-6.9646
X4.2118Y-6.0591
X4.2118Y-6.7677
X4.2433Y-5.9409
X4.2748Y-7.3425
X4.2748Y-7.4291
X4.3047Y-7.8445
X4.3299Y-7.0984
X4.3496Y-7.7537
X4.3732Y-7.2835
X4.385Y-7.4606
X4.3929Y-8.0118
X4.3933Y-7.8445
X4.4382Y-6.3907
X4.4382Y-7.7537
X4.4402Y-8.0
X4.4874Y-6.2402
X4.4874Y-6.2874
X4.5425Y-6.0669
X4.5551Y-6.3484
X4.5551Y-6.5059
X4.5819Y-5.9016
X4.5945Y-6.4862
X4.5957Y-7.6083
X4.5976Y-7.2323
X4.6646Y-7.0827
X4.6764Y-6.9409
X4.6941Y-6.3287
X4.6949Y-6.3583
X4.7259Y-7.0253
X4.7335Y-6.9882
X4.7571Y-7.2461
X4.763Y-6.6811
X4.7709Y-6.4528
X4.7709Y-7.311
X4.7787Y-6.815
X4.7827Y-6.2795
X4.7925Y-7.2461
X4.7945Y-7.0197
X4.8024Y-7.1535
X4.8102Y-6.878
X4.8181Y-7.0591
X4.8181Y-7.5315
X4.8319Y-7.2461
X4.8339Y-5.9567
X4.8496Y-6.2402
X4.8575Y-6.0669
X4.8614Y-7.6378
X4.8683Y-6.9852
X4.9283Y-6.4528
X4.9598Y-6.939
X4.9598Y-7.3917
X4.9598Y-7.4268
X5.0228Y-7.5
X5.0346Y-6.4252
X5.1016Y-7.6339
X5.1075Y-6.9193
X5.1291Y-6.4803
X5.1646Y-6.2008
X5.1685Y-6.1378
X5.1882Y-6.3622
X5.1961Y-6.5748
X5.1961Y-6.6043
X5.2039Y-6.8031
X5.2118Y-6.7441
X5.2265Y-6.9071
X5.2276Y-6.0669
X5.2354Y-6.8622
X5.2669Y-6.6024
X5.2827Y-6.4528
X5.2827Y-6.5
X5.2906Y-7.0512
X5.2906Y-7.122
X5.2945Y-7.6083
X5.3142Y-6.7205
X5.3142Y-6.8858
X5.3378Y-6.9882
X5.3772Y-6.5315
X5.3929Y-6.4134
X5.4224Y-7.5197
X5.4224Y-7.5492
X5.4224Y-7.5787
X5.452Y-6.2598
X5.4638Y-7.1299
X5.4815Y-6.7224
X5.4815Y-6.752
X5.4913Y-6.1319
X5.515Y-6.248
X5.5209Y-6.1319
X5.5268Y-6.4134
X5.5425Y-5.9567
X5.5425Y-7.1693
X5.5425Y-7.2087
X5.5425Y-7.248
X5.5504Y-6.1319
X5.5858Y-6.0472
X5.6134Y-6.8465
X5.6685Y-6.0591
X5.6969Y-4.7972
X5.6969Y-4.8248
X5.6969Y-4.8524
X5.6969Y-4.8799
X5.6969Y-4.9075
X5.6969Y-4.935
X5.7157Y-6.1457
X5.7157Y-7.4606
X5.7236Y-7.2087
X5.7283Y-4.7972
X5.7283Y-4.8248
X5.7283Y-4.8524
X5.7283Y-4.8799
X5.7283Y-4.9075
X5.7283Y-4.935
X5.7598Y-4.7972
X5.7598Y-4.8248
X5.7598Y-4.8524
X5.7598Y-4.8799
X5.7598Y-4.9075
X5.7598Y-4.935
X5.7709Y-6.122
X5.7787Y-6.1954
X5.7787Y-7.0354
X5.7913Y-4.7972
X5.7913Y-4.8248
X5.7913Y-4.8524
X5.7913Y-4.8799
X5.7913Y-4.9075
X5.7913Y-4.935
X5.8102Y-5.9409
X5.8228Y-4.7972
X5.8228Y-4.8248
X5.8228Y-4.8524
X5.8228Y-4.8799
X5.8228Y-4.9075
X5.8228Y-4.935
X5.8339Y-7.7205
X5.8543Y-4.7972
X5.8543Y-4.8248
X5.8543Y-4.8524
X5.8543Y-4.8799
X5.8543Y-4.9075
X5.8543Y-4.935
X5.8858Y-4.7972
X5.8858Y-4.8248
X5.8858Y-4.8524
X5.8858Y-4.8799
X5.8858Y-4.9075
X5.8858Y-4.935
X5.8937Y-5.1161
X5.8937Y-5.1437
X5.8937Y-5.1713
X5.8937Y-5.1988
X5.8937Y-5.2264
X5.8937Y-5.2539
X5.8937Y-5.2815
X5.8937Y-5.3091
X5.8937Y-5.3366
X5.8949Y-6.2303
X5.9047Y-7.311
X5.9252Y-5.1161
X5.9252Y-5.1437
X5.9252Y-5.1713
X5.9252Y-5.1988
X5.9252Y-5.2264
X5.9252Y-5.2539
X5.9252Y-5.2815
X5.9252Y-5.3091
X5.9252Y-5.3366
X5.9343Y-6.2795
X5.9362Y-6.0197
X5.9567Y-5.1161
X5.9567Y-5.1437
X5.9567Y-5.1713
X5.9567Y-5.1988
X5.9567Y-5.2264
X5.9567Y-5.2539
X5.9567Y-5.2815
X5.9567Y-5.3091
X5.9567Y-5.3366
X5.9736Y-6.2795
X5.9736Y-7.5886
X5.9882Y-5.1161
X5.9882Y-5.1437
X5.9882Y-5.1713
X5.9882Y-5.1988
X5.9882Y-5.2264
X5.9882Y-5.2539
X5.9882Y-5.2815
X5.9882Y-5.3091
X5.9882Y-5.3366
X5.9898Y-6.9961
X6.0197Y-5.1161
X6.0197Y-5.1437
X6.0197Y-5.1713
X6.0197Y-5.1988
X6.0197Y-5.2264
X6.0197Y-5.2539
X6.0197Y-5.2815
X6.0197Y-5.3091
X6.0197Y-5.3366
X6.0228Y-6.5866
X6.0307Y-7.7362
X6.0346Y-7.6181
X6.0512Y-5.1161
X6.0512Y-5.1437
X6.0512Y-5.1713
X6.0512Y-5.1988
X6.0512Y-5.2264
X6.0512Y-5.2539
X6.0512Y-5.2815
X6.0512Y-5.3091
X6.0512Y-5.3366
X6.0543Y-7.6929
X6.0827Y-5.1161
X6.0827Y-5.1437
X6.0827Y-5.1713
X6.0827Y-5.1988
X6.0827Y-5.2264
X6.0827Y-5.2539
X6.0827Y-5.2815
X6.0827Y-5.3091
X6.0827Y-5.3366
X6.1094Y-6.8465
X6.1104Y-7.4852
X6.1567Y-6.3976
X6.1567Y-7.6969
X6.1724Y-6.3425
X6.1724Y-7.6181
X6.1961Y-6.4272
X6.1996Y-7.1789
X6.2263Y-6.2795
X6.2394Y-7.5
X6.3169Y-6.4555
X6.3299Y-6.0118
X6.3769Y-6.4373
X6.385Y-6.1299
X6.385Y-7.6969
X6.3929Y-6.9724
X6.4165Y-7.4764
X6.4323Y-6.6339
X6.4362Y-6.3386
X6.4559Y-6.5315
X6.4638Y-6.2795
X6.4795Y-6.4134
X6.511Y-6.3031
X6.511Y-6.815
X6.511Y-7.3031
X6.5189Y-5.9724
X6.5268Y-6.2244
X6.5425Y-6.1772
X6.594Y-6.5236
X6.594Y-6.5509
X6.7236Y-6.5866
X6.7394Y-6.1693
X6.7472Y-7.3268
X6.8102Y-6.2717
X6.8339Y-6.0276
X6.8811Y-6.9331
X6.8969Y-6.4685
X6.952Y-5.9331
X6.9992Y-6.1299
X7.0366Y-6.2795
X7.0465Y-5.9882
X7.0465Y-6.374
X7.0627Y-7.8634
X7.0858Y-6.752
X7.2118Y-7.3583
X7.2591Y-6.5709
X7.2827Y-7.0354
X7.2846Y-5.9449
X7.2846Y-6.0433
X7.2846Y-6.0827
X7.3299Y-6.0827
X7.3811Y-5.9941
X7.4244Y-6.7913
X7.4323Y-6.0354
X7.4323Y-6.1299
X7.4559Y-6.3661
X7.4874Y-5.9961
X7.5394Y-6.122
X7.5661Y-7.2559
X7.574Y-5.9882
X7.574Y-6.0984
X7.578Y-6.2205
X7.5819Y-6.6969
X7.6173Y-6.122
X7.7315Y-7.5079
T2
X7.2244Y-5.9055
X7.3031Y-5.9055
X7.3819Y-5.9055
X7.4606Y-5.9055
X7.5394Y-5.9055
X7.6181Y-5.9055
X7.6969Y-5.9055
T4
X6.2894Y-5.5118
X6.2894Y-5.9055
X6.7815Y-5.5118
X6.7815Y-5.9055
T5
X4.0346Y-7.5295
X4.1346Y-7.5295
X4.512Y-6.7374
X4.512Y-6.8374
X4.512Y-6.9374
X4.512Y-7.0374
X4.512Y-7.1374
X4.512Y-7.2374
X4.5945Y-7.8043
X4.5945Y-7.9043
X4.6945Y-7.8043
X4.6945Y-7.9043
X4.7945Y-7.8043
X4.7945Y-7.9043
X4.8945Y-7.8043
X4.8945Y-7.9043
X4.9945Y-7.8043
X4.9945Y-7.9043
X5.0945Y-7.8043
X5.0945Y-7.9043
X5.1945Y-7.8043
X5.1945Y-7.9043
X5.2283Y-4.3366
X5.2756Y-4.0374
X5.2945Y-7.8043
X5.2945Y-7.9043
X5.315Y-5.9449
X5.3945Y-7.8043
X5.3945Y-7.9043
X5.4945Y-7.8043
X5.4945Y-7.9043
X5.5512Y-4.622
X5.5709Y-4.1791
X5.5945Y-7.8043
X5.5945Y-7.9043
X5.622Y-4.3366
X5.6945Y-7.8043
X5.6945Y-7.9043
X5.7874Y-4.622
X5.7945Y-7.8043
X5.7945Y-7.9043
X5.8945Y-7.8043
X5.8945Y-7.9043
X5.9945Y-7.8043
X5.9945Y-7.9043
X6.0236Y-5.9449
X6.0945Y-7.8043
X6.0945Y-7.9043
X6.1945Y-7.8043
X6.1945Y-7.9043
X6.2945Y-7.8043
X6.2945Y-7.9043
X6.3945Y-7.8043
X6.3945Y-7.9043
X6.4945Y-7.8043
X6.4945Y-7.9043
T6
X4.3976Y-6.0039
X4.6969Y-6.0039
T7
X4.0256Y-4.3071
X4.0256Y-4.5906
X4.2224Y-4.3071
X4.2224Y-4.5906
X4.4882Y-4.0413
X4.4882Y-4.3248
X4.685Y-4.0413
X4.685Y-4.3248
X6.1713Y-4.0512
X6.1713Y-4.3346
X6.3681Y-4.0512
X6.3681Y-4.3346
X6.5256Y-4.0512
X6.5256Y-4.3346
X6.7224Y-4.0512
X6.7224Y-4.3346
X7.0965Y-4.0413
X7.0965Y-4.3248
X7.2933Y-4.0413
X7.2933Y-4.3248
X7.6378Y-4.3169
X7.6378Y-4.6004
X7.8347Y-4.3169
X7.8347Y-4.6004
T8
X4.1004Y-6.0039
X4.998Y-6.0039
T9
X6.7217Y-5.1831
X6.7413Y-4.75
X7.3969Y-4.9665
X7.3969Y-5.3091
T10
X4.0945Y-6.3043
X4.0945Y-7.9043
X7.7945Y-6.3043
X7.7945Y-7.9043
T3
G00X4.2362Y-4.7323
M15
G01X4.1102Y-4.7323
M16
G05
G00X4.2362Y-5.1654
M15
G01X4.1102Y-5.1654
M16
G05
G00X4.9843Y-4.7323
M15
G01X4.8583Y-4.7323
M16
G05
G00X4.9843Y-5.1654
M15
G01X4.8583Y-5.1654
M16
G05
M30
