%TF.GenerationSoftware,KiCad,Pcbnew,8.0.4+dfsg-1*%
%TF.CreationDate,2024-09-09T10:41:01+02:00*%
%TF.ProjectId,hw_lower_v2,68775f6c-6f77-4657-925f-76322e6b6963,rev?*%
%TF.SameCoordinates,Original*%
%TF.FileFunction,Soldermask,Top*%
%TF.FilePolarity,Negative*%
%FSLAX46Y46*%
G04 Gerber Fmt 4.6, Leading zero omitted, Abs format (unit mm)*
G04 Created by KiCad (PCBNEW 8.0.4+dfsg-1) date 2024-09-09 10:41:01*
%MOMM*%
%LPD*%
G01*
G04 APERTURE LIST*
G04 Aperture macros list*
%AMRoundRect*
0 Rectangle with rounded corners*
0 $1 Rounding radius*
0 $2 $3 $4 $5 $6 $7 $8 $9 X,Y pos of 4 corners*
0 Add a 4 corners polygon primitive as box body*
4,1,4,$2,$3,$4,$5,$6,$7,$8,$9,$2,$3,0*
0 Add four circle primitives for the rounded corners*
1,1,$1+$1,$2,$3*
1,1,$1+$1,$4,$5*
1,1,$1+$1,$6,$7*
1,1,$1+$1,$8,$9*
0 Add four rect primitives between the rounded corners*
20,1,$1+$1,$2,$3,$4,$5,0*
20,1,$1+$1,$4,$5,$6,$7,0*
20,1,$1+$1,$6,$7,$8,$9,0*
20,1,$1+$1,$8,$9,$2,$3,0*%
%AMFreePoly0*
4,1,19,0.500000,-0.750000,0.000000,-0.750000,0.000000,-0.744911,-0.071157,-0.744911,-0.207708,-0.704816,-0.327430,-0.627875,-0.420627,-0.520320,-0.479746,-0.390866,-0.500000,-0.250000,-0.500000,0.250000,-0.479746,0.390866,-0.420627,0.520320,-0.327430,0.627875,-0.207708,0.704816,-0.071157,0.744911,0.000000,0.744911,0.000000,0.750000,0.500000,0.750000,0.500000,-0.750000,0.500000,-0.750000,
$1*%
%AMFreePoly1*
4,1,19,0.000000,0.744911,0.071157,0.744911,0.207708,0.704816,0.327430,0.627875,0.420627,0.520320,0.479746,0.390866,0.500000,0.250000,0.500000,-0.250000,0.479746,-0.390866,0.420627,-0.520320,0.327430,-0.627875,0.207708,-0.704816,0.071157,-0.744911,0.000000,-0.744911,0.000000,-0.750000,-0.500000,-0.750000,-0.500000,0.750000,0.000000,0.750000,0.000000,0.744911,0.000000,0.744911,
$1*%
G04 Aperture macros list end*
%ADD10C,8.000000*%
%ADD11RoundRect,0.218750X-0.218750X-0.256250X0.218750X-0.256250X0.218750X0.256250X-0.218750X0.256250X0*%
%ADD12RoundRect,0.250000X-0.550000X1.050000X-0.550000X-1.050000X0.550000X-1.050000X0.550000X1.050000X0*%
%ADD13FreePoly0,180.000000*%
%ADD14FreePoly1,180.000000*%
%ADD15RoundRect,0.250000X0.550000X-1.050000X0.550000X1.050000X-0.550000X1.050000X-0.550000X-1.050000X0*%
%ADD16R,1.100000X2.200000*%
%ADD17R,3.500000X2.200000*%
%ADD18RoundRect,0.250000X0.312500X0.625000X-0.312500X0.625000X-0.312500X-0.625000X0.312500X-0.625000X0*%
%ADD19RoundRect,0.200000X-0.200000X-0.275000X0.200000X-0.275000X0.200000X0.275000X-0.200000X0.275000X0*%
%ADD20RoundRect,0.200000X-0.275000X0.200000X-0.275000X-0.200000X0.275000X-0.200000X0.275000X0.200000X0*%
%ADD21C,1.152000*%
%ADD22RoundRect,0.250000X1.050000X0.550000X-1.050000X0.550000X-1.050000X-0.550000X1.050000X-0.550000X0*%
%ADD23RoundRect,0.250000X-0.250000X-0.475000X0.250000X-0.475000X0.250000X0.475000X-0.250000X0.475000X0*%
%ADD24RoundRect,0.200000X0.200000X0.275000X-0.200000X0.275000X-0.200000X-0.275000X0.200000X-0.275000X0*%
%ADD25C,3.200000*%
%ADD26C,6.400000*%
%ADD27FreePoly0,90.000000*%
%ADD28FreePoly1,90.000000*%
%ADD29RoundRect,0.218750X0.256250X-0.218750X0.256250X0.218750X-0.256250X0.218750X-0.256250X-0.218750X0*%
%ADD30RoundRect,0.250000X0.475000X-0.250000X0.475000X0.250000X-0.475000X0.250000X-0.475000X-0.250000X0*%
%ADD31O,0.568402X1.950216*%
%ADD32C,2.900000*%
%ADD33R,2.000000X1.700000*%
%ADD34O,2.000000X1.700000*%
%ADD35C,1.800000*%
%ADD36RoundRect,0.150000X0.150000X-0.587500X0.150000X0.587500X-0.150000X0.587500X-0.150000X-0.587500X0*%
%ADD37RoundRect,0.250000X0.625000X-0.312500X0.625000X0.312500X-0.625000X0.312500X-0.625000X-0.312500X0*%
%ADD38C,1.200000*%
%ADD39C,5.000000*%
%ADD40R,1.727991X1.190094*%
%ADD41C,1.600000*%
%ADD42RoundRect,0.250000X1.000000X0.650000X-1.000000X0.650000X-1.000000X-0.650000X1.000000X-0.650000X0*%
%ADD43RoundRect,0.250000X0.650000X-1.000000X0.650000X1.000000X-0.650000X1.000000X-0.650000X-1.000000X0*%
%ADD44R,2.200000X1.100000*%
%ADD45R,2.200000X3.500000*%
%ADD46C,3.000000*%
%ADD47RoundRect,0.250000X0.250000X0.475000X-0.250000X0.475000X-0.250000X-0.475000X0.250000X-0.475000X0*%
%ADD48RoundRect,0.218750X-0.256250X0.218750X-0.256250X-0.218750X0.256250X-0.218750X0.256250X0.218750X0*%
%ADD49RoundRect,0.250000X-0.475000X0.250000X-0.475000X-0.250000X0.475000X-0.250000X0.475000X0.250000X0*%
%ADD50C,1.524000*%
%ADD51RoundRect,0.085000X0.265000X0.085000X-0.265000X0.085000X-0.265000X-0.085000X0.265000X-0.085000X0*%
%ADD52R,1.700000X1.700000*%
%ADD53O,1.700000X1.700000*%
%ADD54RoundRect,0.250000X-0.312500X-0.625000X0.312500X-0.625000X0.312500X0.625000X-0.312500X0.625000X0*%
%ADD55RoundRect,0.200000X0.275000X-0.200000X0.275000X0.200000X-0.275000X0.200000X-0.275000X-0.200000X0*%
%ADD56RoundRect,0.250000X-0.625000X0.312500X-0.625000X-0.312500X0.625000X-0.312500X0.625000X0.312500X0*%
%ADD57C,3.500000*%
%ADD58O,5.200000X2.000000*%
%ADD59R,1.100000X0.600000*%
%ADD60O,2.013513X0.524994*%
%ADD61RoundRect,0.250000X-1.000000X-0.650000X1.000000X-0.650000X1.000000X0.650000X-1.000000X0.650000X0*%
G04 APERTURE END LIST*
D10*
X100000000Y-145000000D02*
X202000000Y-145000000D01*
D11*
%TO.C,D5*%
X134192500Y-190250000D03*
X135767500Y-190250000D03*
%TD*%
D12*
%TO.C,C16*%
X122980000Y-161450000D03*
X122980000Y-165050000D03*
%TD*%
D13*
%TO.C,JP5*%
X149730000Y-159500000D03*
D14*
X148430000Y-159500000D03*
%TD*%
D15*
%TO.C,C17*%
X123980000Y-184050000D03*
X123980000Y-180450000D03*
%TD*%
%TO.C,C19*%
X136480000Y-184225000D03*
X136480000Y-180625000D03*
%TD*%
D16*
%TO.C,U6*%
X132529975Y-180151194D03*
X130230000Y-180151194D03*
X127930025Y-180151194D03*
D17*
X130230000Y-186348806D03*
%TD*%
D18*
%TO.C,R9*%
X167400000Y-119250000D03*
X164475000Y-119250000D03*
%TD*%
D19*
%TO.C,R39*%
X123655000Y-176250000D03*
X125305000Y-176250000D03*
%TD*%
D20*
%TO.C,R12*%
X134480000Y-193850000D03*
X134480000Y-195500000D03*
%TD*%
D21*
%TO.C,REF\u002A\u002A*%
X109380000Y-101900000D03*
%TD*%
D20*
%TO.C,R14*%
X169480000Y-158925000D03*
X169480000Y-160575000D03*
%TD*%
D22*
%TO.C,C13*%
X136030000Y-159500000D03*
X132430000Y-159500000D03*
%TD*%
D13*
%TO.C,JP1*%
X138280000Y-156250000D03*
D14*
X136980000Y-156250000D03*
%TD*%
D23*
%TO.C,C5*%
X174523332Y-162250000D03*
X176423332Y-162250000D03*
%TD*%
D24*
%TO.C,R34*%
X125305000Y-177750000D03*
X123655000Y-177750000D03*
%TD*%
D25*
%TO.C,H1*%
X197980000Y-103500000D03*
%TD*%
D26*
%TO.C,H5*%
X197980000Y-200770000D03*
%TD*%
D27*
%TO.C,JP3*%
X124730000Y-169050000D03*
D28*
X124730000Y-167750000D03*
%TD*%
D29*
%TO.C,D4*%
X141980000Y-157325000D03*
X141980000Y-155750000D03*
%TD*%
D30*
%TO.C,C21*%
X131980000Y-166200000D03*
X131980000Y-164300000D03*
%TD*%
D24*
%TO.C,R15*%
X112730000Y-159700000D03*
X111080000Y-159700000D03*
%TD*%
D31*
%TO.C,U5*%
X130135004Y-161294895D03*
X128865001Y-161294895D03*
X127594999Y-161294895D03*
X126324996Y-161294895D03*
X126324996Y-166705105D03*
X127594999Y-166705105D03*
X128865001Y-166705105D03*
X130135004Y-166705105D03*
%TD*%
D19*
%TO.C,R32*%
X123655000Y-174750000D03*
X125305000Y-174750000D03*
%TD*%
D32*
%TO.C,J6*%
X113999873Y-102650000D03*
X113999873Y-109850000D03*
X118999873Y-102650000D03*
X118999873Y-109850000D03*
%TD*%
D33*
%TO.C,PS1*%
X147000000Y-117400000D03*
D34*
X141000000Y-117400000D03*
X153000000Y-151000000D03*
X135000000Y-151000000D03*
%TD*%
D35*
%TO.C,C12*%
X142800000Y-110150000D03*
X132800000Y-110150000D03*
%TD*%
D18*
%TO.C,R8*%
X162650000Y-119250000D03*
X159725000Y-119250000D03*
%TD*%
D36*
%TO.C,Q3*%
X156780000Y-192437500D03*
X158680000Y-192437500D03*
X157730000Y-190562500D03*
%TD*%
D20*
%TO.C,R3*%
X111590000Y-196945000D03*
X111590000Y-198595000D03*
%TD*%
D37*
%TO.C,R11*%
X164160000Y-133962500D03*
X164160000Y-131037500D03*
%TD*%
D36*
%TO.C,Q2*%
X153280000Y-192437500D03*
X155180000Y-192437500D03*
X154230000Y-190562500D03*
%TD*%
D19*
%TO.C,R35*%
X126655000Y-177750000D03*
X128305000Y-177750000D03*
%TD*%
D38*
%TO.C,U1*%
X183500000Y-150000000D03*
X185500000Y-150000000D03*
X187500000Y-150000000D03*
X189500000Y-150000000D03*
X191500000Y-150000000D03*
X193500000Y-150000000D03*
X195500000Y-150000000D03*
D39*
X187880000Y-126150000D03*
X171230000Y-120650000D03*
X187880000Y-134850000D03*
X170730000Y-131650000D03*
%TD*%
D24*
%TO.C,R17*%
X112730000Y-161200000D03*
X111080000Y-161200000D03*
%TD*%
D20*
%TO.C,R20*%
X191730000Y-156425000D03*
X191730000Y-158075000D03*
%TD*%
D24*
%TO.C,R44*%
X133305000Y-169250000D03*
X131655000Y-169250000D03*
%TD*%
D40*
%TO.C,F1*%
X146100000Y-109040018D03*
X146100000Y-106150000D03*
%TD*%
D32*
%TO.C,J3*%
X165749873Y-102900000D03*
X165749873Y-110100000D03*
X170749873Y-102900000D03*
X170749873Y-110100000D03*
%TD*%
D41*
%TO.C,RV1*%
X141500000Y-106150102D03*
X133999872Y-102549898D03*
%TD*%
D42*
%TO.C,D2*%
X114980000Y-187500000D03*
X110980000Y-187500000D03*
%TD*%
D30*
%TO.C,C3*%
X171230000Y-160450000D03*
X171230000Y-158550000D03*
%TD*%
D20*
%TO.C,R21*%
X193230000Y-156425000D03*
X193230000Y-158075000D03*
%TD*%
D26*
%TO.C,H3*%
X197980000Y-160130000D03*
%TD*%
D43*
%TO.C,D3*%
X118380000Y-174750000D03*
X118380000Y-170750000D03*
%TD*%
D23*
%TO.C,C1*%
X185030000Y-156750000D03*
X186930000Y-156750000D03*
%TD*%
D32*
%TO.C,J5*%
X107250127Y-116600000D03*
X107250127Y-109400000D03*
X102250127Y-116600000D03*
X102250127Y-109400000D03*
%TD*%
D19*
%TO.C,R42*%
X131155000Y-190250000D03*
X132805000Y-190250000D03*
%TD*%
D24*
%TO.C,R23*%
X158805000Y-194250000D03*
X157155000Y-194250000D03*
%TD*%
D32*
%TO.C,J1*%
X199000127Y-116850000D03*
X199000127Y-109650000D03*
X194000127Y-116850000D03*
X194000127Y-109650000D03*
%TD*%
D44*
%TO.C,U7*%
X138881194Y-164950025D03*
X138881194Y-167250000D03*
X138881194Y-169549975D03*
D45*
X145078806Y-167250000D03*
%TD*%
D36*
%TO.C,Q1*%
X110800000Y-157937500D03*
X112700000Y-157937500D03*
X111750000Y-156062500D03*
%TD*%
D22*
%TO.C,C18*%
X139780000Y-172750000D03*
X136180000Y-172750000D03*
%TD*%
D19*
%TO.C,R33*%
X123655000Y-171750000D03*
X125305000Y-171750000D03*
%TD*%
D24*
%TO.C,R31*%
X125305000Y-173250000D03*
X123655000Y-173250000D03*
%TD*%
D46*
%TO.C,FID5*%
X192480000Y-102500000D03*
%TD*%
D22*
%TO.C,C20*%
X143030000Y-161000000D03*
X139430000Y-161000000D03*
%TD*%
D47*
%TO.C,C7*%
X167486668Y-164750000D03*
X165586668Y-164750000D03*
%TD*%
D20*
%TO.C,R2*%
X109340000Y-200045000D03*
X109340000Y-201695000D03*
%TD*%
D21*
%TO.C,REF\u002A\u002A*%
X101980000Y-195700000D03*
%TD*%
D48*
%TO.C,D6*%
X149730000Y-155750000D03*
X149730000Y-157325000D03*
%TD*%
D20*
%TO.C,R4*%
X111590000Y-200045000D03*
X111590000Y-201695000D03*
%TD*%
D46*
%TO.C,FID4*%
X109780000Y-105500000D03*
%TD*%
D49*
%TO.C,C8*%
X131080013Y-172800000D03*
X131080013Y-174700000D03*
%TD*%
D42*
%TO.C,D1*%
X119250000Y-156750000D03*
X115250000Y-156750000D03*
%TD*%
D11*
%TO.C,D8*%
X128692500Y-169250000D03*
X130267500Y-169250000D03*
%TD*%
D32*
%TO.C,J2*%
X185250127Y-109850000D03*
X185250127Y-102650000D03*
X180250127Y-109850000D03*
X180250127Y-102650000D03*
%TD*%
D23*
%TO.C,C9*%
X128679987Y-171000000D03*
X130579987Y-171000000D03*
%TD*%
D50*
%TO.C,T1*%
X172250000Y-140000000D03*
X159750000Y-140000000D03*
X172250000Y-150000000D03*
X159750000Y-150000000D03*
%TD*%
D25*
%TO.C,H2*%
X104000000Y-103500000D03*
%TD*%
D51*
%TO.C,U3*%
X118730000Y-178000000D03*
X118730000Y-177500000D03*
X118730000Y-177000000D03*
X117230000Y-177000000D03*
X117230000Y-177500000D03*
X117230000Y-178000000D03*
%TD*%
D24*
%TO.C,R25*%
X159798332Y-158750000D03*
X158148332Y-158750000D03*
%TD*%
D52*
%TO.C,J7*%
X114605000Y-183830000D03*
D53*
X114605000Y-181290000D03*
X114605000Y-178750000D03*
X114605000Y-176210000D03*
X114605000Y-173670000D03*
X114605000Y-171130000D03*
%TD*%
D24*
%TO.C,R18*%
X176048332Y-160500000D03*
X174398332Y-160500000D03*
%TD*%
D19*
%TO.C,R48*%
X131155000Y-191750000D03*
X132805000Y-191750000D03*
%TD*%
%TO.C,R27*%
X158148332Y-160250000D03*
X159798332Y-160250000D03*
%TD*%
D47*
%TO.C,C4*%
X119180000Y-159500000D03*
X117280000Y-159500000D03*
%TD*%
D54*
%TO.C,R10*%
X164947500Y-129022936D03*
X167872500Y-129022936D03*
%TD*%
D24*
%TO.C,R19*%
X176048332Y-159000000D03*
X174398332Y-159000000D03*
%TD*%
%TO.C,R22*%
X155305000Y-194250000D03*
X153655000Y-194250000D03*
%TD*%
D55*
%TO.C,R37*%
X143480000Y-157362500D03*
X143480000Y-155712500D03*
%TD*%
D24*
%TO.C,R36*%
X128305000Y-176250000D03*
X126655000Y-176250000D03*
%TD*%
D32*
%TO.C,J4*%
X156749873Y-102900000D03*
X156749873Y-110100000D03*
X161749873Y-102900000D03*
X161749873Y-110100000D03*
%TD*%
D19*
%TO.C,R13*%
X167905000Y-157500000D03*
X169555000Y-157500000D03*
%TD*%
D56*
%TO.C,R26*%
X149780000Y-192437500D03*
X149780000Y-195362500D03*
%TD*%
D23*
%TO.C,C11*%
X117380000Y-179600000D03*
X119280000Y-179600000D03*
%TD*%
D20*
%TO.C,R16*%
X177473332Y-158925000D03*
X177473332Y-160575000D03*
%TD*%
D46*
%TO.C,K1*%
X119300000Y-152500000D03*
X111700000Y-152500000D03*
D57*
X126950000Y-152500000D03*
X104150000Y-152500000D03*
D58*
X125000000Y-131200000D03*
X106000000Y-131200000D03*
X125000000Y-120200000D03*
X106000000Y-120200000D03*
%TD*%
D59*
%TO.C,U4*%
X126629987Y-172800038D03*
X126629987Y-173750000D03*
X126629987Y-174699962D03*
X129330013Y-174699962D03*
X129330013Y-173750000D03*
X129330013Y-172800038D03*
%TD*%
D22*
%TO.C,C15*%
X128780000Y-157700000D03*
X125180000Y-157700000D03*
%TD*%
D55*
%TO.C,R38*%
X125980000Y-195525000D03*
X125980000Y-193875000D03*
%TD*%
D46*
%TO.C,FID6*%
X105580000Y-195300000D03*
%TD*%
D47*
%TO.C,C14*%
X135180000Y-156000000D03*
X133280000Y-156000000D03*
%TD*%
D21*
%TO.C,REF\u002A\u002A*%
X199580000Y-195700000D03*
%TD*%
D20*
%TO.C,R30*%
X116730000Y-193925000D03*
X116730000Y-195575000D03*
%TD*%
D47*
%TO.C,C6*%
X176423332Y-157250000D03*
X174523332Y-157250000D03*
%TD*%
D52*
%TO.C,J14*%
X102480000Y-191250000D03*
D53*
X105020000Y-191250000D03*
%TD*%
D26*
%TO.C,H6*%
X104000000Y-200770000D03*
%TD*%
D52*
%TO.C,J8*%
X164960000Y-198230000D03*
D53*
X164960000Y-200770000D03*
X162420000Y-198230000D03*
X162420000Y-200770000D03*
X159880000Y-198230000D03*
X159880000Y-200770000D03*
X157340000Y-198230000D03*
X157340000Y-200770000D03*
X154800000Y-198230000D03*
X154800000Y-200770000D03*
X152260000Y-198230000D03*
X152260000Y-200770000D03*
X149720000Y-198230000D03*
X149720000Y-200770000D03*
X147180000Y-198230000D03*
X147180000Y-200770000D03*
X144640000Y-198230000D03*
X144640000Y-200770000D03*
X142100000Y-198230000D03*
X142100000Y-200770000D03*
X139560000Y-198230000D03*
X139560000Y-200770000D03*
X137020000Y-198230000D03*
X137020000Y-200770000D03*
X134480000Y-198230000D03*
X134480000Y-200770000D03*
X131940000Y-198230000D03*
X131940000Y-200770000D03*
X129400000Y-198230000D03*
X129400000Y-200770000D03*
X126860000Y-198230000D03*
X126860000Y-200770000D03*
X124320000Y-198230000D03*
X124320000Y-200770000D03*
X121780000Y-198230000D03*
X121780000Y-200770000D03*
X119240000Y-198230000D03*
X119240000Y-200770000D03*
X116700000Y-198230000D03*
X116700000Y-200770000D03*
%TD*%
D55*
%TO.C,R24*%
X151730000Y-195325000D03*
X151730000Y-193675000D03*
%TD*%
D26*
%TO.C,H4*%
X104000000Y-160130000D03*
%TD*%
D20*
%TO.C,R29*%
X124230000Y-193925000D03*
X124230000Y-195575000D03*
%TD*%
%TO.C,R43*%
X148230000Y-155712500D03*
X148230000Y-157362500D03*
%TD*%
D56*
%TO.C,R7*%
X159300000Y-121587500D03*
X159300000Y-124512500D03*
%TD*%
D20*
%TO.C,R5*%
X113840000Y-196945000D03*
X113840000Y-198595000D03*
%TD*%
D12*
%TO.C,C10*%
X118980000Y-182200000D03*
X118980000Y-185800000D03*
%TD*%
D60*
%TO.C,U2*%
X167486668Y-163000000D03*
X167486668Y-162000000D03*
X167486668Y-161000000D03*
X167486668Y-160000000D03*
X167486668Y-159000000D03*
X161973332Y-159000000D03*
X161973332Y-160000000D03*
X161973332Y-161000000D03*
X161973332Y-162000000D03*
X161973332Y-163000000D03*
%TD*%
D20*
%TO.C,R6*%
X113840000Y-200045000D03*
X113840000Y-201695000D03*
%TD*%
D24*
%TO.C,R28*%
X159798332Y-161750000D03*
X158148332Y-161750000D03*
%TD*%
D61*
%TO.C,D7*%
X114730000Y-167500000D03*
X118730000Y-167500000D03*
%TD*%
D22*
%TO.C,C2*%
X118780000Y-162950000D03*
X115180000Y-162950000D03*
%TD*%
D20*
%TO.C,R1*%
X109340000Y-196945000D03*
X109340000Y-198595000D03*
%TD*%
D27*
%TO.C,JP4*%
X137730000Y-190150000D03*
D28*
X137730000Y-188850000D03*
%TD*%
D19*
%TO.C,R45*%
X158134996Y-163250000D03*
X159784996Y-163250000D03*
%TD*%
M02*
