%TF.GenerationSoftware,KiCad,Pcbnew,8.0.4+dfsg-1*%
%TF.CreationDate,2024-08-09T12:12:19+02:00*%
%TF.ProjectId,hw_lower_v2,68775f6c-6f77-4657-925f-76322e6b6963,rev?*%
%TF.SameCoordinates,Original*%
%TF.FileFunction,Legend,Bot*%
%TF.FilePolarity,Positive*%
%FSLAX46Y46*%
G04 Gerber Fmt 4.6, Leading zero omitted, Abs format (unit mm)*
G04 Created by KiCad (PCBNEW 8.0.4+dfsg-1) date 2024-08-09 12:12:19*
%MOMM*%
%LPD*%
G01*
G04 APERTURE LIST*
%ADD10C,8.000000*%
%ADD11C,3.200000*%
%ADD12C,6.400000*%
%ADD13C,2.900000*%
%ADD14R,2.000000X1.700000*%
%ADD15O,2.000000X1.700000*%
%ADD16C,1.800000*%
%ADD17C,1.200000*%
%ADD18C,5.000000*%
%ADD19C,1.600000*%
%ADD20C,1.524000*%
%ADD21R,1.700000X1.700000*%
%ADD22O,1.700000X1.700000*%
%ADD23C,3.000000*%
%ADD24C,3.500000*%
%ADD25O,5.200000X2.000000*%
G04 APERTURE END LIST*
%LPC*%
D10*
X100000000Y-145000000D02*
X202000000Y-145000000D01*
D11*
%TO.C,H1*%
X197980000Y-103500000D03*
%TD*%
D12*
%TO.C,H5*%
X197980000Y-200770000D03*
%TD*%
D13*
%TO.C,J6*%
X113999873Y-102650000D03*
X113999873Y-109850000D03*
X118999873Y-102650000D03*
X118999873Y-109850000D03*
%TD*%
D14*
%TO.C,PS1*%
X147000000Y-117400000D03*
D15*
X141000000Y-117400000D03*
X153000000Y-151000000D03*
X135000000Y-151000000D03*
%TD*%
D16*
%TO.C,C12*%
X142800000Y-110150000D03*
X132800000Y-110150000D03*
%TD*%
D17*
%TO.C,U1*%
X183500000Y-150000000D03*
X185500000Y-150000000D03*
X187500000Y-150000000D03*
X189500000Y-150000000D03*
X191500000Y-150000000D03*
X193500000Y-150000000D03*
X195500000Y-150000000D03*
D18*
X187880000Y-126150000D03*
X171230000Y-120650000D03*
X187880000Y-134850000D03*
X170730000Y-131650000D03*
%TD*%
D13*
%TO.C,J3*%
X165749873Y-102900000D03*
X165749873Y-110100000D03*
X170749873Y-102900000D03*
X170749873Y-110100000D03*
%TD*%
D19*
%TO.C,RV1*%
X141500000Y-106150102D03*
X133999872Y-102549898D03*
%TD*%
D12*
%TO.C,H3*%
X197980000Y-160130000D03*
%TD*%
D13*
%TO.C,J5*%
X107250127Y-116600000D03*
X107250127Y-109400000D03*
X102250127Y-116600000D03*
X102250127Y-109400000D03*
%TD*%
%TO.C,J1*%
X199000127Y-116850000D03*
X199000127Y-109650000D03*
X194000127Y-116850000D03*
X194000127Y-109650000D03*
%TD*%
%TO.C,J2*%
X185250127Y-109850000D03*
X185250127Y-102650000D03*
X180250127Y-109850000D03*
X180250127Y-102650000D03*
%TD*%
D20*
%TO.C,T1*%
X172250000Y-140000000D03*
X159750000Y-140000000D03*
X172250000Y-150000000D03*
X159750000Y-150000000D03*
%TD*%
D11*
%TO.C,H2*%
X104000000Y-103500000D03*
%TD*%
D21*
%TO.C,J7*%
X114605000Y-183830000D03*
D22*
X114605000Y-181290000D03*
X114605000Y-178750000D03*
X114605000Y-176210000D03*
X114605000Y-173670000D03*
X114605000Y-171130000D03*
%TD*%
D13*
%TO.C,J4*%
X156749873Y-102900000D03*
X156749873Y-110100000D03*
X161749873Y-102900000D03*
X161749873Y-110100000D03*
%TD*%
D23*
%TO.C,K1*%
X119300000Y-152500000D03*
X111700000Y-152500000D03*
D24*
X126950000Y-152500000D03*
X104150000Y-152500000D03*
D25*
X125000000Y-131200000D03*
X106000000Y-131200000D03*
X125000000Y-120200000D03*
X106000000Y-120200000D03*
%TD*%
D21*
%TO.C,J14*%
X102480000Y-191250000D03*
D22*
X105020000Y-191250000D03*
%TD*%
D12*
%TO.C,H6*%
X104000000Y-200770000D03*
%TD*%
D21*
%TO.C,J8*%
X164960000Y-198230000D03*
D22*
X164960000Y-200770000D03*
X162420000Y-198230000D03*
X162420000Y-200770000D03*
X159880000Y-198230000D03*
X159880000Y-200770000D03*
X157340000Y-198230000D03*
X157340000Y-200770000D03*
X154800000Y-198230000D03*
X154800000Y-200770000D03*
X152260000Y-198230000D03*
X152260000Y-200770000D03*
X149720000Y-198230000D03*
X149720000Y-200770000D03*
X147180000Y-198230000D03*
X147180000Y-200770000D03*
X144640000Y-198230000D03*
X144640000Y-200770000D03*
X142100000Y-198230000D03*
X142100000Y-200770000D03*
X139560000Y-198230000D03*
X139560000Y-200770000D03*
X137020000Y-198230000D03*
X137020000Y-200770000D03*
X134480000Y-198230000D03*
X134480000Y-200770000D03*
X131940000Y-198230000D03*
X131940000Y-200770000D03*
X129400000Y-198230000D03*
X129400000Y-200770000D03*
X126860000Y-198230000D03*
X126860000Y-200770000D03*
X124320000Y-198230000D03*
X124320000Y-200770000D03*
X121780000Y-198230000D03*
X121780000Y-200770000D03*
X119240000Y-198230000D03*
X119240000Y-200770000D03*
X116700000Y-198230000D03*
X116700000Y-200770000D03*
%TD*%
D12*
%TO.C,H4*%
X104000000Y-160130000D03*
%TD*%
D23*
%TO.C,FID1*%
X109980000Y-201700000D03*
%TD*%
%TO.C,FID3*%
X192480000Y-102500000D03*
%TD*%
%TO.C,FID2*%
X109842000Y-103246000D03*
%TD*%
G36*
X169043039Y-121669685D02*
G01*
X169088794Y-121722489D01*
X169100000Y-121774000D01*
X169100000Y-124326000D01*
X169080315Y-124393039D01*
X169027511Y-124438794D01*
X168976000Y-124450000D01*
X122424000Y-124450000D01*
X122356961Y-124430315D01*
X122311206Y-124377511D01*
X122300000Y-124326000D01*
X122300000Y-121774000D01*
X122319685Y-121706961D01*
X122372489Y-121661206D01*
X122424000Y-121650000D01*
X168976000Y-121650000D01*
X169043039Y-121669685D01*
G37*
G36*
X168143039Y-130669685D02*
G01*
X168188794Y-130722489D01*
X168200000Y-130774000D01*
X168200000Y-133326000D01*
X168180315Y-133393039D01*
X168127511Y-133438794D01*
X168076000Y-133450000D01*
X128024000Y-133450000D01*
X127956961Y-133430315D01*
X127911206Y-133377511D01*
X127900000Y-133326000D01*
X127900000Y-130774000D01*
X127919685Y-130706961D01*
X127972489Y-130661206D01*
X128024000Y-130650000D01*
X168076000Y-130650000D01*
X168143039Y-130669685D01*
G37*
%LPD*%
M02*
